<svg width="24" height="24" viewBox="0 0 24 24" fill="none" xmlns="http://www.w3.org/2000/svg">
<path fill-rule="evenodd" clip-rule="evenodd" d="M12.2385 10.2314C12.223 10.2368 12.2091 10.2414 12.1932 10.2388C11.9568 10.2065 11.7402 10.1094 11.5165 10.0306C11.5017 10.0646 11.4885 10.0994 11.4759 10.1344C11.609 10.2012 11.745 10.2637 11.8906 10.2938C11.9137 10.2985 11.936 10.3083 11.9566 10.3201C12.0112 10.3515 12.0348 10.409 12.0166 10.4715C11.9971 10.5386 11.9421 10.5576 11.8807 10.5499C11.7647 10.5352 11.5337 10.427 11.4022 10.3535C11.3938 10.389 11.3893 10.4251 11.3872 10.4617C11.5406 10.4669 11.6632 10.5586 11.7564 10.6873L11.7752 10.7134L11.7542 10.7375C11.7361 10.7583 11.7283 10.7833 11.6962 10.7888C11.6577 10.7952 11.6165 10.7975 11.5786 10.7862C11.5173 10.768 11.4578 10.7444 11.3981 10.7215C11.4123 10.7864 11.4419 10.8462 11.4853 10.897C11.5213 10.9392 11.5489 10.9875 11.5832 11.0307C11.6432 11.1063 11.706 11.1765 11.7761 11.2358C12.6406 11.2324 13.5052 11.2487 14.3691 11.2847C14.3929 11.2674 14.4161 11.2488 14.4384 11.2289C14.4663 11.204 14.5022 11.1668 14.5133 11.1297C14.5624 10.9656 14.6141 10.7996 14.6004 10.6251C14.5859 10.441 14.5138 10.2669 14.4705 10.0892C14.4686 10.0816 14.4594 10.0689 14.4546 10.0617C14.3651 9.92143 14.2733 9.80364 14.1018 9.78501C13.9838 9.77219 13.8694 9.73621 13.7559 9.7016C13.3562 9.57973 12.9505 9.53973 12.5374 9.60144C12.4229 9.61855 12.3084 9.63736 12.1948 9.66074C12.2118 9.68975 12.2192 9.72436 12.2115 9.75933C12.1928 9.84518 12.1038 9.88568 12.0258 9.86487C11.9439 9.84302 11.8626 9.81827 11.7835 9.787C11.7818 9.78632 11.7801 9.78559 11.7784 9.78482C11.7454 9.79933 11.7126 9.8146 11.68 9.83016C11.6769 9.83164 11.6738 9.8332 11.6707 9.83482C11.8406 9.88747 12.0106 9.93977 12.1802 9.99322C12.2125 10.0034 12.2433 10.0215 12.2742 10.0358L12.2983 10.0469L12.2965 10.0744C12.2943 10.1092 12.2919 10.144 12.2896 10.1788L12.2884 10.1974L12.2739 10.2082C12.2631 10.2163 12.2512 10.2271 12.2385 10.2314Z" fill="black"/>
<path fill-rule="evenodd" clip-rule="evenodd" d="M11.4957 6.67866C11.4869 6.66078 11.4777 6.64337 11.4675 6.62764C11.2907 6.35595 11.1157 6.08297 10.9346 5.8144C10.7165 5.49092 10.4505 5.21134 10.1582 4.96094C10.0569 4.87426 9.97607 4.76557 9.89593 4.6584C9.85445 4.6029 9.83431 4.53155 9.82016 4.46367C9.79557 4.34572 9.84359 4.24273 9.92897 4.16709C10.016 4.08997 10.1135 4.10927 10.207 4.15951L10.2221 4.16766C10.3545 4.24528 10.4913 4.31438 10.6173 4.4035C10.7902 4.52587 10.9534 4.66224 11.1205 4.79291C11.133 4.80269 11.1392 4.81205 11.1493 4.82334C11.2556 4.94223 11.3649 5.0582 11.4678 5.18033C11.54 5.26592 11.6079 5.35568 11.6693 5.45007C11.7675 5.60115 11.858 5.75745 11.9533 5.91049C11.9569 5.91623 11.9608 5.92192 11.9649 5.92759C12.0072 5.75494 12.0399 5.57807 12.0331 5.3992C12.0308 5.3376 12.0288 5.26112 11.9877 5.21209C11.9232 5.13509 11.8568 5.05029 11.7595 5.01878C11.6937 4.99745 11.6309 4.96823 11.5662 4.94383C11.4144 4.88658 11.2995 4.78967 11.2559 4.62165C11.2366 4.54711 11.2176 4.4724 11.2028 4.39668C11.1767 4.26307 11.156 4.1284 11.1295 3.99486C11.0744 3.717 10.7565 3.54141 10.506 3.6565C10.4643 3.67563 10.4211 3.68944 10.3783 3.70522C10.0465 3.82757 9.72995 3.78305 9.42993 3.59583C9.30188 3.51596 9.17251 3.43832 9.0407 3.36542C8.94974 3.31509 8.85401 3.277 8.7505 3.26922C8.61677 3.25917 8.59172 3.30237 8.55554 3.43578C8.55107 3.45224 8.5538 3.47639 8.557 3.49297C8.58815 3.6545 8.61447 3.81779 8.65765 3.97647C8.67349 4.03473 8.72082 4.09396 8.75851 4.13932C8.87209 4.27605 9.01182 4.38329 9.15918 4.47698C9.31565 4.57647 9.44921 4.7049 9.56705 4.85069C9.70554 5.02205 9.79486 5.22235 9.86423 5.43292C9.90728 5.56358 9.93939 5.69758 9.97436 5.83075C9.9879 5.88226 10.0181 5.91839 10.0587 5.94941C10.1101 5.98869 10.1667 5.99578 10.2282 5.98341C10.332 5.96253 10.4365 5.94464 10.5396 5.91982C10.6542 5.89222 10.7582 5.92269 10.8537 5.99081C10.9412 6.05321 11.0104 6.13013 11.0571 6.2302C11.1004 6.32284 11.1514 6.41176 11.206 6.4975C11.2395 6.5501 11.2793 6.60169 11.326 6.64221C11.3806 6.6896 11.437 6.69522 11.4957 6.67866Z" fill="#C2C4C6"/>
<path fill-rule="evenodd" clip-rule="evenodd" d="M12.3159 4.70069C12.3414 4.57627 12.3584 4.41069 12.3615 4.31788C12.3698 4.06993 12.3842 3.82227 12.3972 3.57456C12.399 3.54034 12.4061 3.5076 12.4127 3.4742C12.4349 3.36346 12.4517 3.25177 12.4815 3.14281C12.5192 3.00483 12.5621 2.86827 12.612 2.73457C12.6575 2.61292 12.7402 2.5256 12.8711 2.51954L12.8929 2.51853L12.911 2.5312C13.0042 2.59626 13.0557 2.6518 13.0885 2.76513C13.1408 2.94499 13.1647 3.12955 13.1454 3.31717C13.0993 3.76478 13.0524 4.21228 13.0081 4.6601C13.0076 4.66557 13.0076 4.67169 13.008 4.67817C13.1827 4.56355 13.3243 4.34924 13.28 4.12781C13.2653 4.05451 13.2531 3.98052 13.2362 3.90774C13.1941 3.72686 13.2372 3.56439 13.3522 3.42411C13.4349 3.32321 13.5396 3.26349 13.6451 3.19357C13.7701 3.11082 13.876 3.00783 13.959 2.8795C14.0111 2.79902 14.0202 2.72209 13.9783 2.63417C13.9241 2.5206 13.8631 2.41155 13.7873 2.31204C13.6335 2.11006 13.5166 1.88857 13.4724 1.63225C13.4679 1.60651 13.4589 1.58087 13.4504 1.55632C13.3832 1.3629 13.3688 1.15743 13.3947 0.95431C13.4118 0.819649 13.4014 0.686168 13.3794 0.552994C13.3564 0.414066 13.2673 0.323115 13.1508 0.26104C13.0958 0.231708 13.0429 0.254335 13.012 0.307824C12.9235 0.460907 12.8705 0.621932 12.8692 0.802078C12.8669 1.12012 12.832 1.43363 12.7341 1.73617C12.7007 1.83959 12.6501 1.92198 12.5659 1.98809C12.3885 2.1274 12.2391 2.29498 12.1185 2.48958C12.0708 2.56647 12.0509 2.6481 12.0502 2.7391C12.0493 2.83695 12.0699 2.92888 12.1102 3.01706C12.1463 3.09593 12.1859 3.17279 12.2179 3.25367C12.2803 3.41123 12.3325 3.56342 12.3239 3.73723C12.3166 3.88492 12.2703 4.01809 12.2169 4.15329C12.1522 4.31733 12.1752 4.46156 12.2627 4.61005C12.2803 4.63992 12.2968 4.67156 12.3159 4.70069Z" fill="#C2C4C6"/>
<path fill-rule="evenodd" clip-rule="evenodd" d="M13.9332 4.85917C13.9295 4.86452 13.9263 4.86937 13.9251 4.87254C13.8461 5.08242 13.7641 5.29103 13.7519 5.51922C13.7336 5.86389 13.5604 6.12076 13.2621 6.26615C13.1941 6.29928 13.1648 6.33902 13.157 6.41694C13.14 6.58922 13.1545 6.75904 13.1937 6.92567C13.324 6.63663 13.498 6.37537 13.701 6.13685C13.772 6.05354 13.8514 5.97871 13.9223 5.89546C14.0008 5.80331 14.0968 5.74201 14.2118 5.71377L14.2339 5.70832L14.2546 5.71818C14.5136 5.84143 14.6459 6.07512 14.5575 6.36744C14.5365 6.43694 14.5043 6.50638 14.4614 6.56405C14.3711 6.68545 14.2769 6.80383 14.1762 6.91605C14.0395 7.06851 13.9016 7.2199 13.7843 7.38965C13.61 7.6419 13.5465 7.93758 13.4756 8.2328C13.5746 8.23343 13.6737 8.23493 13.7727 8.23185C13.825 8.2302 13.8537 8.20386 13.8661 8.15111C13.8809 8.0875 13.8896 8.0224 13.904 7.95859C13.921 7.88362 13.9286 7.80934 13.963 7.73948C14.1313 7.3973 14.4056 7.20138 14.773 7.16706C14.8458 7.16024 14.8881 7.13319 14.9164 7.06215C14.9282 7.03259 14.9378 7.00182 14.9455 6.97083C14.978 6.83998 14.9835 6.70546 14.9758 6.57103C14.956 6.22552 15.047 5.92304 15.314 5.70319C15.4005 5.63194 15.4845 5.55732 15.5682 5.48246C15.6892 5.37429 15.8101 5.26605 15.9285 5.15481C15.9741 5.11199 16.0187 5.06164 16.0262 4.99524C16.0387 4.88314 16.0031 4.79487 15.9171 4.72645C15.8346 4.66092 15.7485 4.65271 15.6533 4.69328C15.6127 4.71063 15.5748 4.73389 15.5337 4.75071C15.381 4.8132 15.2304 4.88314 15.0969 4.98406C15.0504 5.01919 15.002 5.05178 14.9502 5.07765C14.7661 5.16946 14.5757 5.19189 14.388 5.09608C14.2864 5.0442 14.1884 4.98499 14.0913 4.92448C14.0433 4.89456 13.9909 4.85712 13.9332 4.85917Z" fill="#C2C4C6"/>
<path fill-rule="evenodd" clip-rule="evenodd" d="M12.3634 7.71134C12.3367 7.62795 12.3098 7.54462 12.2829 7.46129C12.2181 7.2606 12.1476 7.06197 12.0767 6.86356C12.0365 6.75127 11.9928 6.64028 11.9456 6.53096C11.8492 6.30727 11.7256 6.09781 11.605 5.88782C11.456 5.62844 11.2922 5.37844 11.0771 5.17333C11.0605 5.15749 11.0442 5.14182 11.0297 5.12379C10.8046 4.84355 10.5135 4.6449 10.2147 4.46095C10.1756 4.43686 10.1425 4.4158 10.1003 4.41519C10.0875 4.45692 10.1042 4.49273 10.1348 4.53002C10.2073 4.61812 10.2822 4.70743 10.3688 4.78074C10.6405 5.01063 10.8948 5.26333 11.1064 5.55504C11.3295 5.86252 11.5301 6.18652 11.7379 6.5052C11.8291 6.64514 11.9232 6.78358 11.9997 6.93324C12.1212 7.17107 12.2331 7.41414 12.3409 7.65909C12.3485 7.67646 12.356 7.69387 12.3634 7.71134Z" fill="#C2C4C6"/>
<path fill-rule="evenodd" clip-rule="evenodd" d="M13.0305 8.83481C13.071 8.62467 13.1062 8.41338 13.1558 8.20529C13.202 8.01181 13.2625 7.82258 13.324 7.63397C13.3548 7.53968 13.3979 7.45078 13.4422 7.36282C13.5686 7.11141 13.7508 6.90674 13.9409 6.70691C14.0383 6.6044 14.1264 6.49242 14.2148 6.38141C14.2551 6.33073 14.2682 6.26605 14.265 6.20143C14.262 6.14068 14.2465 6.10683 14.2017 6.08522C14.1389 6.14771 14.0758 6.2099 14.0145 6.27403C13.7962 6.50249 13.6121 6.75885 13.4786 7.0508C13.4328 7.15072 13.3817 7.24796 13.3375 7.34861C13.3123 7.40597 13.2949 7.46744 13.2751 7.52699C13.2513 7.59846 13.2293 7.6705 13.2057 7.74204C13.1832 7.81038 13.1622 7.8792 13.1356 7.94599C13.0497 8.1612 13.0763 8.40883 12.9847 8.63238C12.9849 8.63449 12.9854 8.63688 12.9857 8.63852C13.0006 8.7043 13.0154 8.77011 13.0305 8.83481Z" fill="#C2C4C6"/>
<path fill-rule="evenodd" clip-rule="evenodd" d="M12.6538 6.82727C12.6651 6.50908 12.6764 6.19087 12.6838 5.87257C12.6867 5.74576 12.7147 5.60884 12.6615 5.48907C12.6467 5.45578 12.6543 5.42356 12.6582 5.38946C12.6746 5.24439 12.6958 5.09988 12.7085 4.95436C12.7407 4.58636 12.7678 4.21789 12.7997 3.84988C12.8147 3.67702 12.8269 3.50356 12.8579 3.33277C12.8807 3.20675 12.8659 3.08598 12.837 2.9633C12.8365 2.96177 12.8346 2.95906 12.8319 2.95564C12.8116 2.98922 12.7973 3.02457 12.7872 3.06562C12.7539 3.20195 12.7213 3.33851 12.6925 3.47596C12.6775 3.54755 12.6661 3.62043 12.6618 3.69364C12.6498 3.90022 12.6431 4.10707 12.6341 4.3138C12.6325 4.34993 12.6339 4.38596 12.6309 4.42213C12.6222 4.52827 12.6143 4.63452 12.6023 4.74034C12.5897 4.85087 12.5769 4.96298 12.5978 5.0734C12.6099 5.13728 12.617 5.20455 12.609 5.26939C12.5844 5.46753 12.5911 5.66712 12.6027 5.86594C12.6055 5.91392 12.5967 5.95928 12.595 6.00665C12.5931 6.06216 12.5938 6.1177 12.5918 6.17318C12.5836 6.39264 12.6261 6.60939 12.6538 6.82727Z" fill="#C2C4C6"/>
<path fill-rule="evenodd" clip-rule="evenodd" d="M12.9075 7.73208C12.9368 7.68906 12.9585 7.66323 12.9738 7.63338C13.0255 7.53305 13.063 7.43268 13.0017 7.31791C12.9793 7.2758 12.9812 7.21993 12.973 7.16998C12.9572 7.07526 12.9421 6.98063 12.9255 6.88624C12.924 6.87844 12.9132 6.87249 12.8987 6.85779C12.861 7.12518 12.8896 7.38692 12.8826 7.64752C12.882 7.66942 12.8952 7.69168 12.9075 7.73208ZM12.1175 9.63783C12.1613 9.66116 12.1848 9.70877 12.1754 9.75111C12.1632 9.80783 12.1012 9.84485 12.0358 9.82726C11.9552 9.80589 11.875 9.78136 11.7975 9.75071C11.7919 9.74846 11.7866 9.74537 11.7815 9.74163C11.7422 9.75852 11.7034 9.77658 11.665 9.79487C11.6354 9.80904 11.6091 9.82741 11.5859 9.8499L11.5877 9.85046C11.7819 9.91041 11.976 9.97017 12.17 10.0314C12.1976 10.04 12.2233 10.0556 12.2596 10.0723C12.257 10.1119 12.2544 10.1498 12.2527 10.1767C12.2358 10.1892 12.232 10.1931 12.2275 10.1944C12.2183 10.1977 12.2079 10.2017 12.1987 10.2002C11.9539 10.1669 11.7293 10.0621 11.4973 9.98271C11.4708 10.0392 11.4494 10.0971 11.4291 10.1554C11.4329 10.1568 11.4366 10.1584 11.4401 10.1603C11.583 10.2325 11.7272 10.3004 11.8839 10.3329C11.9031 10.3368 11.9219 10.3454 11.9391 10.3552C11.9792 10.3783 11.9939 10.4168 11.9812 10.4606C11.9675 10.5077 11.9297 10.5168 11.8858 10.5113C11.7927 10.4995 11.5331 10.3882 11.3802 10.2959C11.3569 10.3641 11.3498 10.4332 11.3486 10.5022C11.4922 10.4927 11.6202 10.5641 11.7269 10.7116C11.7156 10.7245 11.7048 10.748 11.6908 10.7504C11.6577 10.756 11.6214 10.7582 11.5896 10.7488C11.5191 10.7278 11.4507 10.6997 11.3816 10.6736C11.3707 10.6696 11.3609 10.6649 11.3522 10.6596C11.3579 10.7554 11.3927 10.8475 11.4578 10.9238C11.4932 10.9652 11.5207 11.0136 11.5548 11.0564C11.606 11.121 11.6595 11.1819 11.718 11.236C11.6118 11.2365 11.5056 11.2374 11.3995 11.2385C11.3621 11.1915 11.3262 11.1435 11.2952 11.0924C11.2174 10.964 11.1537 10.827 11.1495 10.6682C11.1484 10.6236 11.136 10.5776 11.1201 10.5355C11.0595 10.3763 11.0851 10.2158 11.1099 10.056C11.1137 10.0311 11.1218 10.0064 11.1336 9.98434C11.2579 9.74726 11.4044 9.52758 11.6206 9.37134C11.6708 9.33541 11.735 9.31754 11.7948 9.29877C11.9885 9.23867 12.188 9.24813 12.3867 9.24989C12.4433 9.25052 12.4999 9.24493 12.5551 9.24259C12.563 8.912 12.0287 7.37829 11.7481 6.98647C11.662 6.97646 11.5761 6.96344 11.4898 6.95709C11.3278 6.94529 11.1932 6.89159 11.0885 6.74835C11.0211 6.6556 10.9507 6.56676 10.8998 6.46242C10.8758 6.41286 10.8462 6.36632 10.8175 6.31936C10.7474 6.20516 10.6496 6.15616 10.5195 6.18313C10.429 6.20209 10.3379 6.21671 10.2474 6.234C10.0583 6.27024 9.85838 6.16136 9.78331 5.97616C9.75692 5.91146 9.74059 5.8419 9.72056 5.77414C9.68504 5.65356 9.65701 5.52946 9.61376 5.4116C9.49439 5.08772 9.27864 4.84542 9.00099 4.66224C8.8391 4.55575 8.70056 4.42428 8.57133 4.27823C8.47808 4.17275 8.42822 4.05207 8.40732 3.91322C8.39588 3.83841 8.38293 3.76306 8.36305 3.69055C8.29858 3.45619 8.35794 3.25224 8.4917 3.05739C8.65996 3.00838 8.8295 2.99907 8.99001 3.07146C9.16285 3.15001 9.32702 3.24901 9.49616 3.33732C9.58258 3.38282 9.66849 3.42997 9.75855 3.46679C9.98489 3.55952 10.2091 3.5207 10.4249 3.42914C10.5635 3.37001 10.6952 3.36066 10.8328 3.42065C10.8638 3.43401 10.8969 3.4438 10.9297 3.45266C11.1551 3.51453 11.2801 3.67957 11.3405 3.90178C11.3773 4.03738 11.3978 4.17803 11.4258 4.31634C11.4369 4.37089 11.4489 4.42512 11.4597 4.47985C11.4815 4.58889 11.548 4.65669 11.6428 4.69897C11.7322 4.73863 11.8226 4.77543 11.9098 4.81952C12.1342 4.93225 12.2619 5.11275 12.2637 5.38022C12.2653 5.61933 12.2281 5.85447 12.1789 6.08597C12.1414 6.26154 12.1471 6.42547 12.2154 6.58974C12.2715 6.72432 12.3229 6.86124 12.3777 6.99652C12.3845 7.01329 12.3988 7.02642 12.4248 7.0624C12.4503 6.84418 12.3769 6.65995 12.3788 6.47005C12.3808 6.27262 12.3834 6.07531 12.3825 5.87805C12.3817 5.68591 12.3771 5.49345 12.3743 5.31043C12.2514 5.07599 12.0918 4.87113 11.9925 4.62818C11.925 4.4623 11.9067 4.29808 11.9731 4.12714C12.0041 4.04711 12.026 3.96397 12.0557 3.88347C12.0962 3.77464 12.0983 3.6651 12.06 3.55711C12.0096 3.41446 11.9553 3.27378 11.901 3.13312C11.806 2.88774 11.788 2.64566 11.9061 2.40034C12.0133 2.17802 12.1702 1.99973 12.3538 1.84933C12.4771 1.7488 12.5412 1.62803 12.5716 1.47079C12.6128 1.25631 12.6443 1.0422 12.6539 0.82368C12.6573 0.748133 12.6721 0.673047 12.6763 0.597425C12.6865 0.415411 12.7837 0.272664 12.8748 0.131436C12.9636 -0.00749904 13.1692 -0.0399426 13.3013 0.051633C13.3695 0.0992923 13.4329 0.155219 13.4942 0.212733C13.6017 0.31265 13.6099 0.454047 13.6223 0.589201C13.6328 0.704466 13.6262 0.821893 13.6289 0.937857C13.6314 1.04923 13.6308 1.16101 13.6414 1.27129C13.6491 1.35106 13.6653 1.432 13.6908 1.50749C13.7348 1.63612 13.7806 1.76559 13.8416 1.88591C13.9049 2.01063 13.9831 2.12789 14.0626 2.24232C14.1403 2.3549 14.1936 2.47763 14.2394 2.60638C14.2718 2.69803 14.2646 2.78239 14.2298 2.87133C14.1593 3.05211 14.0285 3.18 13.8886 3.29788C13.7951 3.37723 13.692 3.44451 13.5935 3.51798C13.4817 3.60145 13.448 3.71293 13.4805 3.85135C13.4981 3.92476 13.5092 3.99991 13.5221 4.07502C13.5693 4.3483 13.4887 4.57345 13.2879 4.75397C13.2182 4.81667 13.1507 4.88226 13.0815 4.94557C12.9756 5.04205 12.9336 5.17072 12.9256 5.31041C12.9105 5.58297 12.9012 5.85635 12.8913 6.12918C12.889 6.19443 12.8942 6.25961 12.9134 6.32865C12.9262 6.30274 12.9387 6.27676 12.951 6.25068C12.9993 6.14706 13.0678 6.07352 13.1767 6.0297C13.3555 5.95693 13.4612 5.80932 13.5059 5.61475C13.5159 5.57036 13.5294 5.52544 13.5308 5.48097C13.5371 5.24767 13.6215 5.03714 13.7016 4.82529C13.7104 4.80176 13.7188 4.77784 13.7296 4.75501C13.8005 4.607 13.854 4.58301 14.0087 4.61879C14.0998 4.64048 14.1805 4.67908 14.26 4.73098C14.3493 4.79002 14.4471 4.83775 14.5462 4.87684C14.6449 4.91541 14.7468 4.90452 14.8418 4.85147C15.0468 4.73729 15.2508 4.62161 15.457 4.50969C15.525 4.47295 15.5959 4.43513 15.6696 4.41889C15.9833 4.3502 16.2611 4.5903 16.2665 4.92623C16.269 5.07473 16.228 5.20425 16.1303 5.31476C16.0046 5.45717 15.861 5.5775 15.7075 5.68498C15.5525 5.79312 15.4198 5.92742 15.3097 6.08137C15.2207 6.20572 15.2015 6.35961 15.2071 6.51481C15.2106 6.61584 15.2255 6.71805 15.2141 6.81717C15.1992 6.94664 15.1698 7.07636 15.1342 7.20175C15.0954 7.33785 15.0148 7.43788 14.8631 7.42815C14.699 7.41782 14.5642 7.48848 14.4315 7.57468C14.2743 7.67716 14.1719 7.81716 14.1528 8.01298C14.1424 8.11975 14.1216 8.22206 14.0748 8.31871C14.012 8.44816 13.9078 8.51158 13.7734 8.52422C13.6437 8.53637 13.5137 8.54433 13.3631 8.55546C13.2725 8.7843 13.2687 9.01446 13.2521 9.23327C13.3056 9.29542 13.3647 9.29719 13.4222 9.30479C13.7117 9.34331 13.9971 9.40409 14.2602 9.5393C14.4517 9.63808 14.5982 9.79211 14.678 10.0053C14.7115 10.0946 14.7448 10.1846 14.7724 10.2761C14.8266 10.4581 14.8398 10.6463 14.8124 10.8323C14.7919 10.9709 14.7486 11.1073 14.7042 11.2405C14.6977 11.2598 14.6894 11.2794 14.6795 11.2985C14.5966 11.2946 14.5137 11.2908 14.4308 11.2872C14.4419 11.2782 14.4528 11.269 14.4635 11.2594C14.499 11.2278 14.5367 11.1864 14.5499 11.142C14.6004 10.9733 14.6531 10.804 14.6386 10.6224C14.6239 10.434 14.5518 10.2608 14.5076 10.08C14.5041 10.0657 14.4948 10.0527 14.4866 10.0404C14.3937 9.89484 14.2937 9.7665 14.1064 9.74637C13.9917 9.73368 13.8784 9.69803 13.7671 9.66433C13.3621 9.54055 12.9526 9.50019 12.5328 9.56297C12.3934 9.58373 12.2547 9.60706 12.1175 9.63783V9.63783ZM12.6531 7.37463L12.6728 7.37258C12.6794 7.24677 12.6876 7.12097 12.6922 6.99588C12.7053 6.62135 12.7194 6.24776 12.7281 5.87366C12.7312 5.73901 12.7603 5.60135 12.7018 5.46956C12.6926 5.44909 12.6994 5.41975 12.7022 5.39491C12.7186 5.24944 12.7401 5.10413 12.7527 4.95855C12.785 4.59044 12.8122 4.22203 12.8439 3.85405C12.859 3.68274 12.8707 3.51024 12.9014 3.34141C12.9258 3.20679 12.91 3.07977 12.88 2.95178C12.8744 2.92881 12.8495 2.91021 12.8281 2.88231C12.7818 2.94118 12.7587 2.99574 12.7442 3.05414C12.7109 3.1912 12.6781 3.32806 12.6491 3.46604C12.6337 3.53981 12.6221 3.61526 12.6175 3.69081C12.6056 3.89759 12.5986 4.10492 12.5897 4.31169C12.5881 4.3474 12.5898 4.38262 12.5867 4.41815C12.5782 4.52392 12.5701 4.62954 12.5582 4.73488C12.5449 4.85073 12.532 4.96573 12.5543 5.08238C12.5654 5.14142 12.5723 5.20435 12.565 5.26342C12.5399 5.4654 12.5465 5.66667 12.5584 5.86875C12.5608 5.91373 12.5523 5.9597 12.5507 6.00496C12.5488 6.06052 12.5493 6.11629 12.5474 6.17135C12.5358 6.47699 12.6209 6.7729 12.6309 7.07626C12.6342 7.17604 12.6456 7.27498 12.6531 7.37463H12.6531ZM14.1853 6.00551C14.1123 6.07844 14.0384 6.15043 13.9674 6.22489C13.7434 6.45912 13.5555 6.72102 13.4185 7.0208C13.3725 7.12104 13.3214 7.21893 13.277 7.31964C13.2511 7.37906 13.2327 7.44241 13.2122 7.50416C13.1883 7.57568 13.1664 7.64794 13.1428 7.71942C13.1209 7.78605 13.1003 7.85376 13.0741 7.91923C12.9859 8.14029 13.0138 8.38913 12.9217 8.60949C12.9163 8.62235 12.9176 8.64021 12.921 8.65447C12.9453 8.76299 12.9697 8.87087 12.9973 8.97857C13.0027 8.99891 13.0225 9.01567 13.0401 9.04089C13.0826 8.99145 13.0781 8.93849 13.0876 8.89068C13.1313 8.66779 13.1676 8.44272 13.2204 8.2221C13.266 8.03069 13.3262 7.84305 13.387 7.65637C13.4166 7.56607 13.4585 7.47979 13.5011 7.39512C13.6243 7.15007 13.8029 6.95093 13.9881 6.7559C14.0869 6.65233 14.1762 6.53858 14.266 6.42585C14.3173 6.36124 14.3355 6.2802 14.3315 6.19782C14.3272 6.11289 14.3006 6.03883 14.1853 6.00551ZM10.0567 4.34996C10.0052 4.43642 10.0326 4.51216 10.0843 4.5753C10.1599 4.66692 10.2376 4.75929 10.3269 4.83476C10.5955 5.06211 10.8455 5.31004 11.0534 5.59702C11.2755 5.90291 11.4756 6.22673 11.6829 6.54433C11.7728 6.68242 11.8659 6.81957 11.9409 6.96595C12.0616 7.20278 12.1734 7.44427 12.2804 7.68811C12.4305 8.02862 12.5331 8.3877 12.6411 8.7447C12.6735 8.85056 12.7094 8.95541 12.7481 9.05901C12.7561 9.08073 12.7826 9.09476 12.8006 9.11205C12.8091 9.10762 12.8176 9.10316 12.8264 9.09868C12.7943 8.94838 12.7706 8.79451 12.7264 8.64821C12.6049 8.24344 12.4756 7.84102 12.346 7.43909C12.2808 7.23769 12.2102 7.03851 12.1391 6.83925C12.0983 6.72568 12.0543 6.61279 12.0063 6.50241C11.9088 6.27558 11.7841 6.06464 11.662 5.85205C11.5093 5.58619 11.3428 5.33234 11.122 5.12198C11.1077 5.10812 11.0933 5.09454 11.0807 5.07911C10.8496 4.7912 10.5541 4.58943 10.2485 4.40106C10.1948 4.3683 10.1392 4.33309 10.0567 4.34996ZM13.4175 8.3035C13.5351 8.30362 13.6555 8.30635 13.7755 8.30274C13.857 8.30008 13.912 8.25322 13.9316 8.16901C13.9466 8.1053 13.9553 8.04002 13.9697 7.97598C13.9852 7.90752 13.9932 7.83374 14.023 7.77264C14.1811 7.45171 14.4351 7.26942 14.7798 7.23771C14.8808 7.22774 14.9422 7.18225 14.9787 7.09025C14.9918 7.05796 15.0022 7.02367 15.0107 6.98971C15.045 6.85154 15.0513 6.7116 15.0431 6.56826C15.0248 6.24906 15.104 5.96695 15.356 5.7592C15.4433 5.68748 15.528 5.61202 15.6123 5.53667C15.7337 5.428 15.8551 5.31973 15.9739 5.20788C16.0321 5.15342 16.0835 5.09054 16.0931 5.00472C16.1084 4.86838 16.0632 4.75593 15.9582 4.67256C15.857 4.59194 15.746 4.58026 15.629 4.63035C15.5884 4.64746 15.5505 4.67096 15.5103 4.68739C15.3518 4.75228 15.1975 4.82429 15.0587 4.92916C15.0156 4.96186 14.9703 4.99226 14.9224 5.0163C14.7575 5.09839 14.5879 5.12159 14.4181 5.03502C14.3183 4.984 14.2217 4.92571 14.1263 4.86618C14.0552 4.82188 13.9869 4.77587 13.898 4.79538C13.8849 4.81557 13.8707 4.83083 13.8639 4.84853C13.7827 5.06473 13.699 5.27758 13.6863 5.51676C13.6693 5.83492 13.5118 6.06977 13.2348 6.20456C13.1428 6.2496 13.1016 6.31185 13.0917 6.41121C13.0715 6.61567 13.0932 6.81541 13.1474 7.0119C13.1529 7.03242 13.1687 7.04976 13.1878 7.08203C13.213 7.03684 13.2319 7.00873 13.2454 6.97776C13.3744 6.68545 13.5476 6.42409 13.7516 6.18446C13.8224 6.10144 13.902 6.02629 13.9729 5.94307C14.0432 5.86052 14.1275 5.80748 14.2278 5.78283C14.4703 5.89827 14.5687 6.10309 14.4948 6.3479C14.4761 6.40941 14.4477 6.47205 14.4097 6.52279C14.3209 6.64242 14.2277 6.75911 14.1285 6.86995C13.9898 7.02444 13.8513 7.17606 13.7312 7.35035C13.5395 7.6274 13.4779 7.94703 13.4005 8.26427C13.3994 8.26841 13.4042 8.2732 13.4175 8.3035ZM12.3489 4.83026C12.3887 4.71965 12.4224 4.44289 12.4265 4.32035C12.4348 4.07301 12.4493 3.82563 12.4622 3.57841C12.4638 3.54838 12.4705 3.51829 12.4764 3.48843C12.4982 3.37951 12.5146 3.26868 12.5439 3.16192C12.5809 3.02609 12.6235 2.89134 12.6725 2.75985C12.7072 2.66725 12.7667 2.59393 12.8725 2.58903C12.9595 2.64979 12.9967 2.69398 13.0233 2.78532C13.0728 2.95619 13.0961 3.13077 13.0777 3.3098C13.0315 3.75731 12.9848 4.20495 12.9403 4.65298C12.9368 4.69059 12.9476 4.72932 12.9513 4.76613C12.9728 4.76704 12.9841 4.77086 12.9916 4.76706C13.1983 4.65531 13.4006 4.39819 13.3436 4.1136C13.3287 4.03927 13.3163 3.96476 13.2993 3.89136C13.262 3.73127 13.3005 3.59207 13.4013 3.46936C13.4782 3.37524 13.5811 3.31723 13.6792 3.25232C13.8119 3.16439 13.9242 3.05515 14.0127 2.91844C14.0781 2.8172 14.0892 2.71428 14.0363 2.60321C13.9799 2.48511 13.9173 2.37267 13.8379 2.26881C13.6918 2.07656 13.5788 1.86559 13.5363 1.61995C13.5312 1.59018 13.5213 1.56131 13.5114 1.53265C13.4472 1.34774 13.4346 1.15536 13.4591 0.963509C13.4773 0.82 13.4665 0.680271 13.4434 0.541186C13.4167 0.379594 13.3145 0.271152 13.1795 0.199123C13.0939 0.153569 13.0028 0.186413 12.9534 0.271927C12.8592 0.434832 12.8026 0.60676 12.8011 0.801572C12.7989 1.11137 12.7654 1.417 12.6695 1.71397C12.64 1.80467 12.5973 1.87522 12.5244 1.93257C12.3408 2.07667 12.1864 2.24954 12.061 2.45183C12.0056 2.54112 11.983 2.63516 11.982 2.73852C11.9812 2.847 12.0039 2.94914 12.0486 3.04706C12.0842 3.12467 12.1232 3.20056 12.1548 3.28028C12.2122 3.42518 12.264 3.56912 12.2559 3.73368C12.2489 3.87479 12.203 4.00244 12.1539 4.12684C12.0797 4.3149 12.1073 4.48188 12.2045 4.64651C12.2273 4.68555 12.2482 4.72594 12.2747 4.7621C12.2914 4.78478 12.3164 4.80078 12.3489 4.83026ZM11.9742 6.04561C11.9935 6.02388 12.0127 6.01123 12.0168 5.99531C12.0668 5.79875 12.1073 5.60004 12.0997 5.39648C12.0967 5.31796 12.0924 5.23132 12.0378 5.16628C11.9646 5.07877 11.8926 4.98888 11.7793 4.95238C11.7147 4.93123 11.6525 4.90257 11.5888 4.87847C11.4589 4.82955 11.358 4.74985 11.3202 4.60349C11.3011 4.53036 11.2825 4.45666 11.268 4.3828C11.242 4.24883 11.2212 4.11433 11.1947 3.98075C11.1272 3.64036 10.7526 3.46754 10.4792 3.59285C10.4393 3.6115 10.3973 3.62484 10.3561 3.63967C10.0428 3.75556 9.74674 3.71254 9.46407 3.53617C9.33497 3.45561 9.20481 3.3774 9.07185 3.30399C8.97315 3.24928 8.86909 3.20802 8.75527 3.19988C8.60841 3.18848 8.54279 3.22723 8.49148 3.4168C8.48382 3.44455 8.48597 3.47774 8.49172 3.50668C8.52313 3.67054 8.54997 3.83529 8.59359 3.99548C8.61238 4.06475 8.66153 4.1288 8.70822 4.18489C8.8266 4.32753 8.97098 4.43861 9.12457 4.53636C9.2754 4.63221 9.40303 4.75564 9.51616 4.89554C9.64954 5.06067 9.73473 5.25385 9.80126 5.45552C9.84373 5.58467 9.87573 5.7176 9.91014 5.84914C9.92806 5.91671 9.967 5.96558 10.0194 6.00553C10.086 6.05648 10.161 6.06766 10.2408 6.05168C10.3455 6.03056 10.4508 6.01244 10.5546 5.98756C10.6525 5.96387 10.7372 5.992 10.8161 6.04821C10.8929 6.10314 10.9553 6.17035 10.9973 6.26069C11.0418 6.35561 11.0942 6.44797 11.1506 6.53603C11.1877 6.59461 11.2321 6.6512 11.2834 6.69566C11.3733 6.77375 11.474 6.77256 11.5881 6.7161C11.5631 6.66669 11.5463 6.62511 11.5225 6.58855C11.3456 6.31656 11.1704 6.04322 10.989 5.77436C10.7672 5.44524 10.4981 5.16248 10.2004 4.90721C10.1042 4.82511 10.0255 4.71881 9.94841 4.61563C9.91441 4.5703 9.89737 4.50694 9.8852 4.44889C9.86587 4.35589 9.90618 4.27826 9.97202 4.22013C10.0368 4.16259 10.1083 4.18537 10.1765 4.22132L10.1895 4.22832C10.3202 4.30487 10.4561 4.37342 10.58 4.46108C10.7517 4.58254 10.9141 4.71851 11.0805 4.84855C11.0882 4.85467 11.094 4.86333 11.1006 4.87078C11.2065 4.98917 11.3152 5.10493 11.4178 5.22627C11.4879 5.30971 11.5545 5.39723 11.6142 5.4891C11.712 5.63949 11.8025 5.79575 11.8975 5.94839C11.918 5.98118 11.9451 6.00921 11.9742 6.04561H11.9742Z" fill="black"/>
<path fill-rule="evenodd" clip-rule="evenodd" d="M22.3417 6.84755C22.4196 6.70968 22.4974 6.5718 22.575 6.43372C22.6636 6.27584 22.756 6.12021 22.8378 5.9583C22.8655 5.90343 22.8951 5.85267 22.9488 5.82218C22.9835 5.80248 23.014 5.7776 23.0468 5.75505C23.1809 5.66299 23.3266 5.60166 23.4837 5.56778C23.5229 5.5593 23.561 5.56728 23.5953 5.58844C23.6574 5.62683 23.7227 5.73183 23.6912 5.80701C23.6641 5.87159 23.64 5.94268 23.5962 5.99741C23.5 6.11773 23.3986 6.23565 23.2669 6.31431C23.2399 6.33043 23.2138 6.35148 23.1981 6.38003C23.1686 6.43338 23.1249 6.45545 23.0686 6.46718C23.0251 6.47624 22.9894 6.49779 22.9505 6.51806C22.7942 6.59945 22.6371 6.67924 22.4827 6.76482C22.4351 6.79124 22.3882 6.8191 22.3417 6.84755Z" fill="#C2C4C6"/>
<path fill-rule="evenodd" clip-rule="evenodd" d="M21.3224 6.72398C21.28 6.56256 21.2798 6.37973 21.3097 6.22427C21.3668 5.92736 21.4202 5.62964 21.4818 5.3337C21.5325 5.0903 21.6176 4.86169 21.761 4.66083C21.8107 4.59115 21.8715 4.54939 21.9502 4.52326C21.9726 4.51583 21.9946 4.51418 22.0108 4.53425C22.0355 4.5648 22.0744 4.60953 22.0844 4.64812C22.1032 4.72043 22.1123 4.79774 22.1101 4.87266C22.1062 5.00183 22.1056 5.13279 22.0776 5.25934C22.0636 5.32253 22.0433 5.37612 22.0012 5.42467C21.8623 5.58446 21.7431 5.76075 21.6347 5.94406C21.6129 5.98089 21.6012 6.01967 21.5852 6.05898C21.5431 6.16242 21.501 6.26584 21.4596 6.36958C21.4113 6.49074 21.3549 6.60296 21.3224 6.72398Z" fill="#C2C4C6"/>
<path fill-rule="evenodd" clip-rule="evenodd" d="M22.7091 5.33097C22.7098 5.33691 22.7101 5.34255 22.7096 5.34705C22.7001 5.43828 22.6845 5.52859 22.6782 5.62025C22.6707 5.72921 22.636 5.8267 22.58 5.91844C22.5346 5.99288 22.4866 6.06559 22.4464 6.14345C22.3143 6.39984 22.1802 6.657 22.0124 6.89044C21.91 7.03295 21.8413 7.20727 21.7233 7.3355C21.6944 7.36691 21.6807 7.4139 21.6768 7.45646C21.6651 7.58434 21.7792 7.66737 21.8883 7.60389C21.9425 7.57234 21.9899 7.53137 22.0378 7.49063C22.1694 7.37861 22.2977 7.26236 22.4312 7.15284C22.483 7.11029 22.5419 7.07604 22.6011 7.04584C22.7836 6.95262 22.9683 6.86418 23.1519 6.77324C23.2263 6.73634 23.35 6.72549 23.4434 6.73794C23.4381 6.772 23.4228 6.80177 23.3981 6.83008C23.2111 7.04388 22.9926 7.21579 22.7419 7.34012C22.5169 7.45171 22.2923 7.56419 22.0675 7.67621C22.0009 7.70943 21.9607 7.74687 21.947 7.82792L21.9426 7.85349L21.9567 7.87493C21.9765 7.90499 21.9964 7.93503 22.0161 7.96523L22.0387 7.99992L22.0781 7.9918C22.1092 7.98537 22.141 7.98329 22.1708 7.97103C22.2729 7.92902 22.382 7.9249 22.4903 7.92713C22.5324 7.92801 22.5678 7.93516 22.5992 7.95967C22.5986 7.96232 22.5981 7.96444 22.5977 7.9657C22.5489 8.02811 22.4891 8.08127 22.4169 8.1114C22.3541 8.1376 22.2886 8.15685 22.2229 8.17327C22.1817 8.1836 22.1464 8.17871 22.1136 8.1491C22.0739 8.1133 22.0298 8.08498 21.9868 8.05411C21.8096 7.92698 21.6104 7.85152 21.4107 7.77323C21.3389 7.74509 21.2643 7.7312 21.191 7.70914C21.1237 7.68892 21.0458 7.68856 20.9838 7.65308C20.9768 7.61762 20.9699 7.58216 20.963 7.54669C20.9349 7.40231 20.9081 7.25766 20.879 7.11349C20.8594 7.01605 20.8358 6.91955 20.8162 6.82211C20.8015 6.74897 20.795 6.67471 20.7773 6.60206C20.7203 6.36852 20.7751 6.15428 20.8849 5.94825C20.8875 5.94341 20.8926 5.93759 20.8985 5.93161C20.9104 5.94226 20.9143 5.95932 20.9192 5.97894C20.9468 6.09003 20.9732 6.20172 20.9913 6.31498C21.0121 6.44576 21.0075 6.57782 21.041 6.70726C21.0973 6.92401 21.1331 7.14329 21.1245 7.36854C21.1229 7.40909 21.1327 7.44877 21.1372 7.48883L21.1439 7.54632L21.1993 7.54467C21.2361 7.5436 21.2729 7.54256 21.3096 7.54163L21.344 7.54077L21.361 7.50953C21.3715 7.49022 21.3832 7.47109 21.3923 7.45107C21.4727 7.27393 21.528 7.08709 21.5697 6.89634C21.5836 6.83282 21.6082 6.77137 21.6319 6.71128C21.6935 6.55508 21.758 6.40015 21.8201 6.24418C21.8606 6.14271 21.9 6.03617 21.9662 5.94937C22.0359 5.85807 22.1052 5.76648 22.176 5.6761C22.2594 5.56958 22.3653 5.48611 22.4731 5.40852C22.5221 5.37329 22.584 5.35163 22.6398 5.33066C22.6655 5.32098 22.6874 5.31918 22.7091 5.33097H22.7091Z" fill="#C2C4C6"/>
<path fill-rule="evenodd" clip-rule="evenodd" d="M22.1704 7.02769C22.2926 6.81159 22.4083 6.60698 22.5237 6.40172C22.6117 6.24461 22.7039 6.0896 22.7852 5.9288C22.8195 5.86076 22.8558 5.80362 22.9209 5.76654C22.9537 5.74806 22.9833 5.7237 23.0146 5.70215C23.155 5.60581 23.3071 5.54139 23.4725 5.50576C23.6595 5.46535 23.8052 5.69586 23.7479 5.83259C23.7178 5.90394 23.6932 5.97632 23.6439 6.03818C23.5424 6.16501 23.4373 6.28635 23.2981 6.36947C23.2806 6.37988 23.2614 6.39415 23.2518 6.41181C23.2132 6.48151 23.1553 6.51409 23.0816 6.52948C23.0458 6.53691 23.012 6.55774 22.9787 6.57495C22.8229 6.65619 22.6661 6.73562 22.5123 6.82094C22.3995 6.88351 22.2912 6.95445 22.1704 7.02769ZM21.2502 6.21179C21.3068 5.91439 21.3609 5.61639 21.4225 5.32023C21.4749 5.06875 21.563 4.83218 21.7123 4.62293C21.7705 4.54144 21.8423 4.49257 21.9319 4.46281C21.9802 4.44686 22.0255 4.45395 22.0573 4.49335C22.0912 4.53529 22.1298 4.58099 22.1431 4.63151C22.1632 4.70973 22.1731 4.79376 22.1708 4.87468C22.1666 5.00774 22.1659 5.14126 22.1368 5.27366C22.12 5.34896 22.095 5.41097 22.0462 5.4673C21.9094 5.62458 21.7929 5.79756 21.6864 5.97743C21.6671 6.01032 21.6556 6.04819 21.6411 6.08381C21.5991 6.18705 21.5571 6.29041 21.5157 6.39399C21.4554 6.54535 21.3772 6.68993 21.3585 6.85706C21.3565 6.875 21.3407 6.89138 21.3291 6.91313C21.1854 6.6366 21.2317 6.30439 21.2502 6.21179ZM23.5047 6.66198C23.511 6.73331 23.4905 6.79474 23.4425 6.84947C23.2499 7.06982 23.0259 7.24594 22.7675 7.37404C22.5423 7.48581 22.3177 7.59816 22.0932 7.71009C22.0551 7.729 22.0176 7.74863 22.0063 7.81559C22.0219 7.83924 22.0441 7.87281 22.0658 7.90619C22.1003 7.89909 22.1258 7.89803 22.1481 7.88864C22.2591 7.84321 22.3743 7.83794 22.4911 7.84036C22.5551 7.84166 22.6139 7.85657 22.6644 7.91307C22.6583 7.93549 22.6579 7.96468 22.6443 7.98245C22.5886 8.05334 22.5208 8.11273 22.439 8.14693C22.3736 8.17415 22.3051 8.19429 22.2366 8.21159C22.1783 8.22604 22.1225 8.21817 22.0734 8.17371C22.0358 8.13989 21.9931 8.1124 21.9519 8.08302C21.7791 7.9589 21.5832 7.88552 21.3889 7.80924C21.3195 7.78216 21.2452 7.76808 21.1737 7.74674C21.0949 7.72291 21.0078 7.72762 20.929 7.66886C20.9211 7.62838 20.9118 7.58226 20.903 7.53594C20.8748 7.39187 20.8481 7.24732 20.8191 7.10319C20.7994 7.00594 20.7758 6.90924 20.7563 6.81175C20.7417 6.73971 20.7351 6.66556 20.7179 6.59434C20.6564 6.34288 20.7144 6.11345 20.8314 5.89403C20.8442 5.86976 20.8689 5.85228 20.8848 5.83524C20.9495 5.84651 20.9664 5.89472 20.9775 5.93966C21.0056 6.0524 21.0324 6.16634 21.0507 6.28121C21.0711 6.40925 21.0671 6.54328 21.0992 6.6673C21.1573 6.89118 21.1936 7.11535 21.1847 7.34768C21.1835 7.38047 21.192 7.41363 21.1971 7.45791C21.2408 7.45663 21.276 7.45564 21.3077 7.45486C21.3211 7.43027 21.33 7.41614 21.337 7.40052C21.4157 7.22749 21.469 7.04563 21.5101 6.85885C21.5245 6.79196 21.5499 6.72739 21.5753 6.66375C21.6367 6.50733 21.7014 6.35278 21.7636 6.19644C21.8068 6.08822 21.8474 5.97909 21.9183 5.88648C21.9881 5.79464 22.0578 5.70295 22.1285 5.61257C22.2163 5.5006 22.3257 5.41365 22.4382 5.33295C22.4919 5.29408 22.5568 5.27095 22.6188 5.24763C22.6665 5.2297 22.7169 5.22893 22.7647 5.27123C22.7665 5.28834 22.7717 5.31001 22.7695 5.33055C22.7602 5.42116 22.7445 5.51107 22.7383 5.60142C22.7301 5.72153 22.6921 5.82895 22.6308 5.92914C22.5863 6.00235 22.5386 6.07416 22.4995 6.15015C22.3656 6.40969 22.2305 6.66884 22.0606 6.90515C21.956 7.05099 21.8892 7.22297 21.7666 7.35609C21.7484 7.376 21.7392 7.41051 21.7368 7.43912C21.7294 7.51754 21.7927 7.56334 21.8583 7.52512C21.9088 7.49582 21.9542 7.45618 21.9989 7.41808C22.1307 7.30587 22.2592 7.18952 22.3932 7.0796C22.4482 7.03455 22.5108 6.99782 22.5739 6.96549C22.7567 6.87224 22.9414 6.78362 23.1253 6.69256C23.2179 6.64662 23.3866 6.63136 23.5047 6.66198ZM18.6784 11.6278C18.6946 11.5471 18.7114 11.4664 18.7268 11.3855C18.7928 11.0366 18.8566 10.6873 18.9243 10.3392C18.9581 10.1652 18.9989 9.993 19.0351 9.82721C19.0522 9.81773 19.059 9.81176 19.0666 9.81003C19.0827 9.807 19.0995 9.80403 19.1159 9.80448C19.3779 9.81041 19.623 9.89234 19.8611 9.99534C20.0295 10.0681 20.1858 10.1699 20.3601 10.2308C20.3976 10.244 20.4348 10.2701 20.4633 10.2999C20.5138 10.3532 20.5678 10.3627 20.6306 10.3384C20.6567 10.2135 20.6413 10.1742 20.5482 10.1223C20.5301 10.112 20.5118 10.0998 20.4919 10.0944C20.2976 10.0402 20.129 9.92438 19.9435 9.84821C19.7003 9.74836 19.46 9.63838 19.1908 9.64032C19.1585 9.64037 19.1227 9.64213 19.0999 9.59616C19.1186 9.49744 19.1247 9.38785 19.2107 9.30915C19.2293 9.29249 19.2504 9.26898 19.2532 9.24626C19.2649 9.14452 19.3277 9.06218 19.3477 8.96564C19.3658 8.87768 19.4104 8.8057 19.4515 8.73091C19.4866 8.66702 19.5309 8.60816 19.5624 8.54277C19.6735 8.31089 19.8538 8.1448 20.0404 7.98496C20.1222 7.91525 20.2173 7.87108 20.3235 7.86068C20.427 7.85069 20.5305 7.83567 20.6337 7.8374C20.8716 7.84205 21.1044 7.87953 21.3277 7.97132C21.4857 8.03637 21.6503 8.08428 21.7999 8.17293C21.9612 8.26896 22.0985 8.39455 22.2062 8.54936C22.2909 8.67151 22.3603 8.80422 22.4113 8.9492C22.4806 9.14652 22.4801 9.3394 22.4215 9.5345C22.3661 9.72039 22.3078 9.90593 22.2414 10.0878C22.1766 10.2657 22.1104 10.4446 22.0262 10.6129C21.9399 10.7851 21.8344 10.9473 21.7311 11.11C21.6374 11.258 21.5353 11.4006 21.4373 11.5458C21.3702 11.6448 21.3025 11.7431 21.2375 11.8436C21.209 11.8878 21.1793 11.9317 21.1509 11.9763C21.2108 11.9863 21.2707 11.9964 21.3306 12.0067C21.3984 11.8985 21.4734 11.7944 21.5444 11.6883C21.6723 11.4965 21.8071 11.3088 21.9305 11.1141C22.1054 10.8388 22.2544 10.5483 22.3641 10.2377C22.4427 10.0138 22.5168 9.78841 22.589 9.56193C22.6453 9.38501 22.6489 9.20525 22.5965 9.02458C22.5426 8.84088 22.4716 8.66645 22.3635 8.5094C22.34 8.47571 22.3245 8.43565 22.3062 8.4001C22.3586 8.33288 22.4265 8.32232 22.4883 8.30135C22.5985 8.2637 22.6856 8.1932 22.7588 8.1013C22.7692 8.08815 22.7793 8.07415 22.7871 8.05914C22.8661 7.90816 22.8196 7.76713 22.6662 7.69568C22.6328 7.67988 22.596 7.67183 22.5467 7.65596C22.5677 7.63827 22.58 7.62415 22.595 7.61597C22.767 7.52091 22.9446 7.43449 23.1115 7.32994C23.2315 7.25447 23.3389 7.15612 23.45 7.06494C23.5194 7.00804 23.5705 6.93331 23.6102 6.85162C23.6324 6.80582 23.6505 6.7556 23.6588 6.70529C23.6768 6.59432 23.6474 6.54173 23.5496 6.48577C23.5388 6.47983 23.5297 6.47092 23.5133 6.45877C23.5251 6.43713 23.5343 6.41349 23.5492 6.39568C23.6151 6.31777 23.6843 6.24257 23.7494 6.16383C23.8569 6.0335 23.9028 5.8752 23.9083 5.7082C23.9126 5.57924 23.8437 5.47266 23.748 5.40008C23.6448 5.32124 23.5248 5.29116 23.3939 5.33353C23.2628 5.37591 23.1321 5.41814 23.013 5.49195C22.9815 5.51154 22.9469 5.52649 22.9088 5.54592C22.8777 5.49177 22.8925 5.44093 22.9053 5.39299C22.9219 5.33151 22.9146 5.2726 22.899 5.21344C22.8819 5.14939 22.8419 5.11194 22.7789 5.09546C22.6596 5.06458 22.5484 5.08795 22.4404 5.14159C22.4073 5.15786 22.375 5.17611 22.3308 5.19957C22.3218 5.16358 22.3102 5.13703 22.3101 5.11033C22.3089 5.02353 22.3097 4.93675 22.3144 4.8502C22.3199 4.73969 22.2935 4.63502 22.2682 4.52983C22.2463 4.43709 22.192 4.37061 22.1159 4.3166C22.0344 4.25888 21.9552 4.25997 21.8676 4.29083C21.6816 4.35666 21.5694 4.49906 21.4786 4.67232C21.3087 4.99789 21.2306 5.35039 21.1813 5.71274C21.1744 5.76326 21.1769 5.81638 21.1333 5.87007C21.105 5.82494 21.0813 5.78636 21.0567 5.74841C21.0242 5.69721 20.9856 5.65236 20.9298 5.62726C20.8596 5.59533 20.8066 5.60266 20.7666 5.67024C20.6591 5.85131 20.5693 6.04058 20.5453 6.25775C20.525 6.4383 20.5641 6.61093 20.5977 6.78433C20.6426 7.01749 20.6934 7.24954 20.738 7.48269C20.7483 7.53599 20.7445 7.5926 20.7475 7.65012C20.6479 7.68112 20.5555 7.67681 20.4669 7.67322C20.325 7.66736 20.1932 7.70181 20.0693 7.76244C19.9883 7.80194 19.9154 7.86458 19.8468 7.92623C19.6531 8.10027 19.4922 8.30206 19.375 8.54085C19.3202 8.6528 19.2589 8.76129 19.2007 8.87114L19.1873 8.89284C19.0992 8.95944 19.0772 9.06355 19.0518 9.16373C18.9722 9.47797 18.8952 9.79297 18.8185 10.1081C18.7836 10.2509 18.7521 10.3947 18.7195 10.5381C18.7098 10.5804 18.7 10.6225 18.6918 10.6649C18.6318 10.9797 18.5711 11.2942 18.5119 11.6091C18.5674 11.6153 18.6229 11.6214 18.6784 11.6278Z" fill="white"/>
<path fill-rule="evenodd" clip-rule="evenodd" d="M18.7403 11.6351C18.7562 11.5565 18.7725 11.4779 18.7874 11.3991C18.8535 11.0505 18.9171 10.7013 18.9848 10.353C19.0161 10.1918 19.0536 10.0321 19.0889 9.87176C19.0978 9.87023 19.1071 9.86896 19.1156 9.86915C19.3684 9.87496 19.6072 9.95507 19.8388 10.0552C20.0093 10.1289 20.1658 10.2307 20.3419 10.2922C20.3708 10.3023 20.3998 10.3234 20.4212 10.3459C20.487 10.4152 20.5655 10.4329 20.6527 10.3991L20.6839 10.3871L20.691 10.3532C20.7206 10.2115 20.7039 10.1381 20.5779 10.0676C20.5546 10.0546 20.5347 10.0417 20.5086 10.0344C20.3191 9.98167 20.149 9.86528 19.9667 9.79045C19.7132 9.68631 19.4696 9.5763 19.1914 9.57817C19.1824 9.57822 19.1733 9.57983 19.1661 9.57779C19.1793 9.49825 19.1905 9.41399 19.2517 9.35818C19.2811 9.33136 19.3096 9.2972 19.3145 9.25514C19.3251 9.16452 19.3885 9.07492 19.4081 8.98024C19.4242 8.90188 19.4675 8.83232 19.5052 8.76369C19.541 8.69856 19.5853 8.64001 19.6177 8.57241C19.7239 8.35094 19.8994 8.1896 20.0799 8.03528C20.1524 7.97321 20.2363 7.93419 20.3301 7.92508C20.4307 7.9153 20.5324 7.90015 20.6336 7.90207C20.8645 7.90637 21.0908 7.9429 21.3064 8.03161C21.4612 8.09525 21.6256 8.14306 21.7708 8.22933C21.9234 8.31995 22.0549 8.43937 22.1581 8.58786C22.2404 8.70634 22.307 8.8348 22.3553 8.97232C22.4191 9.15384 22.4196 9.33306 22.3645 9.51683C22.3093 9.70149 22.2516 9.88561 22.1857 10.0665C22.1218 10.2419 22.0568 10.4181 21.9734 10.5847C21.8878 10.7556 21.7832 10.9156 21.6814 11.0762C21.5878 11.2238 21.4865 11.3659 21.3887 11.5105C21.3215 11.6098 21.2533 11.7085 21.1881 11.8094C21.1545 11.8616 21.1197 11.9129 21.0869 11.9655C20.3068 11.8363 19.5244 11.7263 18.7403 11.6351V11.6351Z" fill="white"/>
<path fill-rule="evenodd" clip-rule="evenodd" d="M3.16542 7.05953C3.13448 6.99623 3.10296 6.94784 3.08674 6.89441C3.03408 6.71926 2.99316 6.54178 2.98085 6.35734C2.9707 6.2114 2.95189 6.06641 2.93634 5.91272C2.87752 5.91629 2.82361 5.91724 2.77039 5.92339C2.6645 5.93566 2.61916 5.90715 2.57923 5.79734C2.60744 5.75496 2.65009 5.75331 2.69385 5.75321C2.74062 5.7529 2.78745 5.74957 2.8341 5.74558C2.86922 5.74252 2.89266 5.71976 2.90015 5.68553C2.91132 5.63317 2.9133 5.57852 2.88252 5.53213C2.75084 5.32997 2.45579 5.34134 2.35262 5.5171C2.31097 5.58851 2.28425 5.6646 2.2747 5.74575C2.24465 5.99863 2.28724 6.24268 2.38534 6.47264C2.45786 6.64299 2.55004 6.80473 2.69287 6.92594C2.71399 6.94382 2.73061 6.96764 2.73245 6.97026C2.72406 7.07397 2.68563 7.11958 2.61916 7.14158C2.60111 7.14773 2.58365 7.15814 2.56643 7.16762C2.44655 7.23399 2.3854 7.33721 2.37159 7.47935C2.35628 7.63937 2.36928 7.79547 2.39047 7.95332C2.41901 8.16703 2.39438 8.37562 2.30513 8.57342C2.29231 8.60183 2.28292 8.63173 2.26546 8.67742C2.37301 8.6558 2.45928 8.62452 2.53116 8.56014C2.66401 8.44034 2.77246 8.30403 2.79474 8.11326C2.80324 8.04229 2.83718 7.99224 2.90115 7.96705C2.95096 7.97053 2.97759 7.99875 2.99838 8.04339C3.0458 8.14584 3.0954 8.24748 3.14947 8.34652C3.23032 8.49341 3.33812 8.61564 3.47503 8.70844C3.55624 8.76343 3.6445 8.80182 3.75238 8.82839C3.72384 8.56119 3.64093 8.32063 3.5737 8.07426C3.60656 8.04288 3.63401 8.01614 3.65911 7.99207C3.75047 8.03984 3.83274 8.08632 3.91801 8.12507C4.00351 8.164 4.09036 8.20508 4.18061 8.22575C4.26755 8.24575 4.34989 8.305 4.45596 8.27772C4.43366 8.24731 4.41902 8.22341 4.40096 8.20351C4.28112 8.07147 4.1976 7.91664 4.13445 7.74907C4.11572 7.69956 4.09916 7.64909 4.07497 7.60234C4.03645 7.52773 4.00367 7.4444 3.94834 7.38498C3.76886 7.19169 3.55358 7.06921 3.2868 7.06972C3.24885 7.06972 3.21051 7.06373 3.16542 7.05953ZM8.51052 11.3424C8.43412 11.1163 8.31617 10.9197 8.15501 10.7511C7.96683 10.554 7.74997 10.3946 7.52421 10.248C7.50434 10.2351 7.4842 10.2219 7.46248 10.2139C7.19555 10.1115 6.92927 10.006 6.64902 9.947C6.46545 9.90827 6.28259 9.86831 6.1001 9.8252C6.01258 9.80444 5.92267 9.78568 5.84221 9.74694C5.62555 9.64357 5.4046 9.55181 5.18108 9.46781C4.94823 9.38041 4.75092 9.24201 4.59414 9.04047C4.47044 8.88139 4.38283 8.6993 4.28526 8.52375C4.2614 8.48106 4.24241 8.43931 4.19234 8.42113C4.10782 8.39031 4.02522 8.35321 3.94105 8.32133C3.90586 8.30813 3.8714 8.28239 3.82359 8.30211C3.82583 8.32496 3.82626 8.34903 3.83083 8.37188C3.86027 8.51506 3.89063 8.65831 3.92024 8.80165C3.92956 8.84543 3.93805 8.88941 3.9457 8.93353C3.96631 9.05299 3.90744 9.10701 3.80138 9.06522C3.74291 9.0422 3.68518 9.01745 3.62792 8.99085C3.3689 8.87098 3.14789 8.7046 3.01122 8.43601C2.99125 8.39672 2.96877 8.35927 2.92579 8.34504C2.87843 8.40491 2.83585 8.46232 2.78985 8.51706C2.74118 8.575 2.68954 8.62972 2.62823 8.6981C2.64818 8.74082 2.63745 8.77568 2.61806 8.81407C2.59837 8.85248 2.58729 8.89833 2.58272 8.94238C2.55446 9.22212 2.53656 9.50352 2.55087 9.78414C2.56557 10.0721 2.5942 10.3603 2.63038 10.6466C2.6496 10.7993 2.69527 10.9484 2.73289 11.0981C2.75575 11.1881 2.78636 11.2764 2.81199 11.3659C2.82861 11.4245 2.84333 11.4836 2.85822 11.5427C2.89418 11.6858 2.95333 11.8183 3.01843 11.9484C2.96009 11.9578 2.9018 11.9674 2.84349 11.9769C2.81365 11.9095 2.78436 11.842 2.75624 11.7738C2.73005 11.7107 2.70982 11.6435 2.69669 11.5761C2.66364 11.4077 2.61143 11.2465 2.55952 11.084C2.51726 10.9535 2.49147 10.8157 2.47225 10.6793C2.44365 10.4698 2.42726 10.2584 2.40555 10.0479C2.40071 10.0034 2.39347 9.95872 2.39156 9.91435C2.38758 9.82122 2.3864 9.72774 2.38458 9.63419C2.3844 9.61819 2.38849 9.60184 2.38749 9.58569C2.37076 9.3447 2.40437 9.10633 2.42585 8.86741C2.427 8.85552 2.42385 8.84351 2.42217 8.82338C2.35171 8.81052 2.28751 8.85012 2.21978 8.85306C2.15399 8.85586 2.08843 8.86325 2.01173 8.86967C1.99709 8.83709 1.98121 8.80279 1.96359 8.7643C2.05708 8.69132 2.11981 8.60489 2.15939 8.50055C2.23153 8.31081 2.25937 8.1156 2.22205 7.91423C2.18751 7.72813 2.18318 7.54241 2.21164 7.35641C2.23001 7.23696 2.30346 7.15225 2.39133 7.07944C2.4275 7.0499 2.4637 7.02029 2.50611 6.98572C2.4829 6.94809 2.46517 6.91743 2.44573 6.88831C2.31777 6.69669 2.19898 6.50085 2.16539 6.26325C2.1619 6.23955 2.15149 6.2166 2.14344 6.19367C2.08236 6.01533 2.08569 5.8322 2.11981 5.65096C2.15157 5.48417 2.22868 5.34239 2.38682 5.27263C2.62014 5.17029 2.89265 5.20902 3.03623 5.45567C3.05979 5.49608 3.07625 5.54377 3.08573 5.59016C3.11053 5.70977 3.12393 5.82975 3.10487 5.95371C3.09487 6.02046 3.10795 6.09203 3.11777 6.16039C3.14638 6.35751 3.17716 6.55418 3.2106 6.75046C3.21891 6.7971 3.24145 6.84088 3.26049 6.89527C3.31315 6.90066 3.35153 6.90543 3.39019 6.90813C3.68334 6.92942 4.02597 7.15512 4.17015 7.42687C4.20391 7.49078 4.22721 7.56073 4.25149 7.62969C4.3176 7.81509 4.41495 7.98139 4.54121 8.1269C4.59005 8.18345 4.65751 8.22176 4.7164 8.26834C4.77013 8.31072 4.77013 8.31072 4.76207 8.40742C4.6773 8.48106 4.56768 8.47058 4.46086 8.48891C4.46386 8.50846 4.46286 8.52547 4.46902 8.53895C4.57108 8.7564 4.69238 8.96064 4.8763 9.11361C4.94283 9.16888 5.01737 9.21795 5.09514 9.25356C5.36307 9.37608 5.63344 9.49326 5.90487 9.60758C5.97282 9.63635 6.04677 9.65067 6.11924 9.66667C6.35614 9.71809 6.59422 9.76316 6.83011 9.82017C6.96263 9.85205 7.09173 9.90044 7.22132 9.9451C7.44151 10.0206 7.64492 10.132 7.83442 10.2711C7.99078 10.3857 8.14078 10.508 8.27412 10.6526C8.4557 10.8503 8.58956 11.072 8.66947 11.3329C8.61648 11.336 8.5635 11.3392 8.51052 11.3424Z" fill="black"/>
<path fill-rule="evenodd" clip-rule="evenodd" d="M8.43687 11.3468C8.36436 11.1406 8.25427 10.9596 8.10492 10.8033C7.92094 10.6107 7.70742 10.454 7.48686 10.3108C7.47175 10.301 7.45491 10.2897 7.43815 10.2832C7.17482 10.1825 6.91076 10.0775 6.63505 10.0194C6.45112 9.98067 6.26748 9.94053 6.08448 9.89726C5.99221 9.87545 5.89932 9.85553 5.81277 9.81414C5.59836 9.71156 5.37901 9.62067 5.15715 9.53734C4.91211 9.44531 4.70393 9.29881 4.53921 9.08705C4.41297 8.92474 4.32412 8.74064 4.2241 8.56087C4.21098 8.53729 4.19566 8.50058 4.16904 8.49091C4.08412 8.45997 4.00153 8.42274 3.91699 8.39081C3.91386 8.38962 3.91015 8.38794 3.90607 8.38605C3.93353 8.51942 3.96162 8.65265 3.98938 8.78598C3.99867 8.83064 4.00757 8.87541 4.01532 8.92041C4.04522 9.09342 3.93705 9.19763 3.77641 9.13435C3.71668 9.11082 3.65762 9.08542 3.59925 9.05839C3.32405 8.93095 3.09254 8.75329 2.94875 8.47068C2.9454 8.46415 2.9414 8.45604 2.93669 8.44806C2.90593 8.48774 2.87525 8.52742 2.84302 8.56579C2.79942 8.61768 2.75337 8.66745 2.70786 8.71761C2.71461 8.76224 2.70293 8.80477 2.68054 8.84874C2.66503 8.87921 2.65653 8.91602 2.65306 8.95018C2.62512 9.22559 2.60737 9.50328 2.62152 9.78019C2.63613 10.0668 2.66461 10.3525 2.70051 10.637C2.71941 10.7869 2.76446 10.9334 2.8013 11.0793C2.82388 11.1688 2.85448 11.256 2.87978 11.3448C2.89671 11.4041 2.91159 11.4641 2.92667 11.524C2.96312 11.669 3.02549 11.8046 3.09242 11.9367C4.86615 11.6556 6.64958 11.459 8.43687 11.3468Z" fill="white"/>
<path fill-rule="evenodd" clip-rule="evenodd" d="M2.8733 5.98984C2.84149 5.99138 2.80968 5.9932 2.77819 5.99683C2.63658 6.01322 2.56333 5.96175 2.5131 5.82357L2.49986 5.78718L2.52114 5.75519C2.56412 5.69061 2.62378 5.67968 2.69352 5.67934C2.73851 5.67909 2.78349 5.67581 2.82829 5.67195C2.8291 5.67189 2.83001 5.67233 2.83078 5.67197C2.83125 5.67121 2.83095 5.67017 2.83113 5.66933C2.83775 5.63858 2.84217 5.60144 2.82407 5.57377C2.73355 5.43527 2.49965 5.40773 2.41296 5.55566C2.37699 5.61706 2.35338 5.68335 2.34489 5.75483C2.31664 5.99326 2.3568 6.22403 2.44996 6.44259C2.51853 6.6035 2.60481 6.75607 2.73747 6.8686C2.75671 6.88495 2.77469 6.90556 2.78941 6.92646L2.80516 6.94883L2.80292 6.97647C2.79361 7.09157 2.74896 7.17588 2.64065 7.21195C2.62719 7.21644 2.61207 7.22598 2.59953 7.23291C2.49972 7.28815 2.45316 7.37047 2.44198 7.48672C2.42722 7.63963 2.44025 7.7915 2.46053 7.9431C2.48919 8.15739 2.46673 8.36803 2.38581 8.56613C2.42138 8.55099 2.45494 8.53119 2.48497 8.50419C2.60505 8.39616 2.70456 8.27432 2.72453 8.10426C2.73603 8.00646 2.7871 7.933 2.87619 7.89793L2.89054 7.89227L2.90585 7.89335C2.98142 7.89861 3.03003 7.94217 3.06206 8.01119C3.10887 8.11218 3.1574 8.2124 3.21084 8.30981C3.28601 8.44684 3.38646 8.56037 3.51353 8.64646C3.56251 8.67967 3.6134 8.70525 3.6668 8.72527C3.63109 8.51022 3.56303 8.30475 3.50565 8.09449L3.49365 8.05054L3.52597 8.01973C3.55452 7.99247 3.58279 7.96495 3.61129 7.93763L3.64721 7.90323L3.69079 7.92603C3.77551 7.97034 3.85938 8.01783 3.94624 8.05736C4.02666 8.09393 4.10992 8.13389 4.19579 8.15361C4.22686 8.16071 4.25911 8.17377 4.29171 8.18556C4.19595 8.063 4.12451 7.92433 4.06863 7.77614C4.05115 7.72984 4.03539 7.68128 4.01272 7.63745C3.97944 7.5731 3.9463 7.48887 3.89757 7.43642C3.7298 7.25585 3.53218 7.14317 3.2869 7.14359C3.24416 7.14366 3.20167 7.1371 3.15914 7.13313L3.1202 7.1295L3.10241 7.09314C3.07399 7.03494 3.03813 6.97921 3.01926 6.9166C2.96478 6.73582 2.92317 6.55208 2.91029 6.36257C2.90183 6.23803 2.88674 6.11395 2.87329 5.98984H2.8733Z" fill="#C2C4C6"/>
<path fill-rule="evenodd" clip-rule="evenodd" d="M23.5733 13.1703C23.7146 13.0158 23.8568 12.8618 24 12.7084C23.7979 12.6647 23.5956 12.6222 23.3931 12.5807C15.8695 11.039 8.1305 11.039 0.606836 12.5807C0.404414 12.6222 0.202141 12.6647 0 12.7084C0.143139 12.8618 0.285358 13.0158 0.42666 13.1703C0.870127 13.6547 1.30463 14.144 1.73024 14.6383C1.4999 15.2579 1.27933 15.8788 1.06849 16.5007C1.00134 16.6989 0.935172 16.8972 0.869983 17.0957C1.05929 17.0548 1.24876 17.0149 1.43835 16.976C2.32924 16.7936 3.22447 16.6345 4.12292 16.4988C9.71068 15.6547 15.4232 15.7146 20.9936 16.6797C21.5175 16.7705 22.0403 16.8693 22.5616 16.976C22.7512 17.0149 22.9407 17.0548 23.13 17.0957C23.0649 16.8972 22.9986 16.6989 22.9315 16.5005C22.7208 15.8788 22.5003 15.258 22.2702 14.6384C22.6956 14.1441 23.13 13.6547 23.5733 13.1703Z" fill="black"/>
<path fill-rule="evenodd" clip-rule="evenodd" d="M19.294 17.6983C18.1393 20.7248 15.3098 22.8646 11.9999 22.8647C8.69014 22.8645 5.86061 20.7248 4.70599 17.6983C4.67154 17.6081 4.71366 17.5057 4.80008 17.4697C4.88652 17.4338 4.9845 17.4778 5.01896 17.568C6.12452 20.4646 8.83217 22.5131 11.9999 22.5128C15.1677 22.5131 17.8755 20.4646 18.981 17.568C19.0154 17.4778 19.1134 17.4338 19.1998 17.4697C19.2862 17.5057 19.3285 17.6081 19.294 17.6983Z" fill="#565757"/>
<path fill-rule="evenodd" clip-rule="evenodd" d="M20.4629 17.6757C19.2636 21.3541 15.9277 23.9997 12 24C8.07217 23.9997 4.73635 21.3541 3.53716 17.6757C3.51464 17.6068 3.54994 17.5317 3.61603 17.5082C3.68211 17.4847 3.75386 17.5217 3.77638 17.5906C4.94173 21.1646 8.18321 23.7362 12 23.736C15.8167 23.7362 19.0582 21.1646 20.2236 17.5906C20.2461 17.5217 20.3179 17.4847 20.3839 17.5082C20.4501 17.5317 20.4853 17.6068 20.4629 17.6757Z" fill="black"/>
<path fill-rule="evenodd" clip-rule="evenodd" d="M4.14838 12.9707L4.22144 12.9635C4.30206 12.9556 4.37522 13.0518 4.44128 13.2521L4.42161 13.3632L4.43593 13.3618C4.41942 13.5129 4.42318 13.7196 4.44675 13.9822L4.48682 14.4281L4.50461 14.4569L4.5327 14.4395C4.5613 14.4367 4.60772 14.4581 4.67185 14.5033L4.66486 14.5814L4.68158 14.6116C4.66769 14.6129 4.65437 14.6297 4.64164 14.6619C4.65196 14.6609 4.65718 14.6654 4.65803 14.675C4.63182 14.6775 4.60001 14.7116 4.56306 14.7776C4.58709 14.8217 4.60341 14.8875 4.61126 14.975C4.59325 15.0023 4.58521 15.024 4.58666 15.0402L4.55726 15.0431C4.49452 15.0492 4.43248 15.0189 4.37079 14.9521L4.34179 14.9549C4.02848 15.1513 3.84403 15.2527 3.78881 15.2581L3.75722 15.2453C3.7395 15.2575 3.72527 15.2643 3.71457 15.2654L3.65328 15.2391C3.63523 15.4798 3.60177 15.6024 3.55253 15.6072C3.53704 15.6087 3.51846 15.6206 3.49606 15.6433L3.48097 15.6448C3.36516 15.5687 3.30416 15.4918 3.29714 15.4138L3.293 15.3678C3.28596 15.2893 3.30476 15.1682 3.34946 15.0057L3.33435 15.0072C3.37508 14.9032 3.43242 14.7113 3.50583 14.4313C3.52607 14.4293 3.53507 14.418 3.53324 14.3976C3.52332 14.3986 3.5177 14.3941 3.51673 14.3834C3.57613 14.2683 3.63908 14.086 3.70605 13.8367C3.73538 13.7305 3.74932 13.6672 3.74744 13.646L3.73353 13.6474C3.85014 13.3753 3.91745 13.1879 3.93538 13.0844L3.99186 13.0484C4.00983 13.0567 4.02972 13.0593 4.05155 13.0572L4.05024 13.0427L4.08172 13.0542L4.11072 13.0514C4.11328 12.9997 4.12573 12.9729 4.14838 12.9707ZM4.09037 13.815C4.05583 13.9481 3.95082 14.2689 3.7753 14.7774C3.77628 14.7881 3.78146 14.7926 3.79181 14.7916L4.20492 14.5955L4.22001 14.594L4.21589 14.548L4.18694 14.3951L4.20202 14.3936C4.17842 14.3583 4.16482 14.3182 4.16082 14.2738L4.1581 14.2436C4.15713 14.2328 4.16184 14.2273 4.17177 14.2263L4.15392 14.1971L4.11935 13.8121L4.09037 13.815ZM6.20249 12.8785L6.20337 12.8943L6.23274 12.8767L6.52665 12.8586C6.86435 12.8378 7.13693 12.9938 7.34432 13.3267C7.39289 13.4509 7.42534 13.5729 7.4425 13.6925C7.43812 13.9052 7.37322 14.1362 7.24858 14.3851C7.01689 14.7483 6.85716 14.9418 6.76976 14.9651C6.77178 15.0008 6.71268 15.0587 6.59333 15.1387C6.52946 15.2248 6.41074 15.3235 6.23762 15.4356C6.237 15.4248 6.23156 15.4201 6.22161 15.4207C6.22401 15.4636 6.11415 15.535 5.89162 15.6351L5.8462 15.6379C5.81834 15.6822 5.69174 15.733 5.46642 15.7911L5.46547 15.774L5.43575 15.793C5.34847 15.7762 5.24869 15.7498 5.13636 15.7137L5.14968 15.6808C5.076 15.6853 5.01888 15.5862 4.97827 15.3833L4.97737 15.3675C4.99421 15.3047 5.02799 15.2592 5.07881 15.2319C5.08668 15.3712 5.12127 15.4392 5.1826 15.4354L5.26076 15.4465C5.5033 15.4316 5.78047 15.3014 6.09231 15.0556C6.04549 14.9625 6.01899 14.861 6.01288 14.7525L6.00106 14.5428C5.99051 14.3561 5.99306 14.2099 6.00791 14.1046L5.99156 14.1056C6.00526 14.0296 6.01595 13.9426 6.02398 13.8444L6.00845 13.8454C6.03584 13.5941 6.07692 13.4084 6.13166 13.2877L6.13076 13.2715L6.1156 13.2724C6.04552 13.2768 5.96042 13.3196 5.8595 13.4009C5.87254 13.4548 5.88441 13.4811 5.89436 13.4806C5.87891 13.5679 5.86105 13.6124 5.83993 13.6137L5.80966 13.6156C5.74198 13.6197 5.66126 13.5704 5.56834 13.4676L5.59617 13.4012L5.57982 13.4022L5.59439 13.3696L5.57619 13.3378C5.66445 13.1596 5.73686 13.0687 5.79382 13.0652C5.89007 12.9867 6.02606 12.9245 6.20249 12.8785ZM6.34147 13.2097L6.34235 13.2255C6.40889 13.307 6.44348 13.375 6.44657 13.4295C6.41976 13.5071 6.39173 13.6549 6.36245 13.8724L6.37879 13.8714C6.37287 13.9152 6.36331 13.9371 6.35096 13.9378C6.35158 13.9486 6.35702 13.9533 6.36697 13.9527C6.36813 13.9731 6.36062 14.017 6.34401 14.0839L6.35914 14.083L6.3335 14.1664C6.34344 14.1658 6.34891 14.1709 6.34951 14.1813C6.33956 14.1819 6.33469 14.1876 6.33528 14.198L6.35039 14.197L6.32203 14.5231L6.33716 14.5222C6.32119 14.6004 6.31825 14.7249 6.32786 14.8954C6.42176 14.8032 6.49658 14.7557 6.55274 14.7522L6.55187 14.7364L6.53367 14.7046C6.56561 14.6901 6.62928 14.6215 6.72465 14.4983C6.72525 14.5087 6.73032 14.5138 6.74066 14.5132C6.75796 14.4583 6.79595 14.4021 6.85505 14.3446C6.85395 14.3251 6.89661 14.2524 6.9822 14.1265C7.05222 13.9715 7.10094 13.8224 7.12804 13.6797L7.11291 13.6806L7.12618 13.6468L7.12442 13.6152C7.108 13.3245 6.93494 13.1891 6.6048 13.2094L6.55819 13.2122L6.52703 13.1983L6.52793 13.2141L6.49558 13.2002L6.34147 13.2097ZM6.39316 14.8914L6.37981 14.9243L6.39497 14.9234L6.40948 14.8904L6.39316 14.8914ZM5.694 15.6953L5.69495 15.7123L5.72642 15.7104L5.72547 15.6933L5.694 15.6953ZM8.65743 13.6507L8.68574 13.6495C8.89341 13.6408 9.02354 13.7334 9.07526 13.9263C9.07668 13.9629 9.08699 13.9921 9.10656 14.013L9.09374 14.0431C9.10397 14.0598 9.10911 14.0792 9.10994 14.1008C9.0616 14.318 8.95084 14.479 8.77759 14.5839C8.56641 14.7295 8.36812 14.8062 8.18315 14.814L8.04286 14.8198C7.84754 14.828 7.71763 14.741 7.65387 14.5577C7.64229 14.5056 7.63619 14.4616 7.63486 14.4267C7.62484 14.1665 7.77139 13.9698 8.07526 13.8365L8.28141 13.7253C8.28177 13.7349 8.28676 13.7397 8.29592 13.7393C8.29439 13.7002 8.41506 13.6709 8.65743 13.6507ZM8.20192 14.2123C8.20157 14.2028 8.19659 14.1979 8.18741 14.1983L7.94185 14.3846L7.94297 14.4137L8.09725 14.4073C8.14387 14.4053 8.21384 14.3974 8.30674 14.3839C8.30574 14.3576 8.37497 14.3306 8.5144 14.3018C8.64994 14.244 8.74536 14.1716 8.8007 14.0846C8.7764 14.066 8.76211 14.057 8.7573 14.0572L8.5612 14.0655C8.53327 14.0862 8.44111 14.1193 8.28436 14.1651C8.28472 14.1747 8.2574 14.1904 8.20192 14.2123ZM10.6047 12.8851C10.6773 12.8835 10.7386 12.9543 10.7881 13.097L10.8021 13.0967L10.7887 13.1253L10.7912 13.2545C10.7404 13.2873 10.6723 13.3129 10.5868 13.331L10.5865 13.3164C10.1861 13.4463 9.8998 13.5775 9.72685 13.7096C9.65417 13.7674 9.61785 13.8066 9.61825 13.827C9.69078 13.8633 9.95838 13.9151 10.4209 13.9817C10.6279 14.0519 10.7627 14.1544 10.8257 14.2893C10.8261 14.3135 10.8358 14.3374 10.855 14.3603L10.8559 14.4032C10.8579 14.5082 10.7951 14.5817 10.6675 14.6232C10.3639 14.7643 10.1358 14.8363 9.98307 14.8396L9.91405 14.8411C9.81514 14.8433 9.74509 14.7919 9.7043 14.6869L9.70316 14.6294C9.70298 14.6207 9.70729 14.616 9.71686 14.6158L9.67435 14.5446C9.70187 14.544 9.71515 14.5292 9.71457 14.5C9.70501 14.5002 9.70051 14.4957 9.70034 14.4869C9.86388 14.4834 10.0557 14.4405 10.2764 14.3582L10.2758 14.3303C10.1374 14.3137 10.0681 14.3007 10.0679 14.2907C10.0596 14.2909 10.0553 14.2959 10.0555 14.3059C9.70753 14.2464 9.49007 14.1648 9.403 14.0608C9.3679 14.0616 9.32482 13.9621 9.27339 13.7623C9.26851 13.5166 9.46164 13.3157 9.85282 13.1601C10.1045 13.0326 10.3552 12.9409 10.6047 12.8851L10.6047 12.8851ZM13.0236 12.8515C13.0368 12.8502 13.05 12.8497 13.0632 12.8499C13.2837 12.8548 13.4262 13.0684 13.491 13.4908C13.4949 13.5346 13.4951 13.6797 13.4925 13.9255C13.5436 13.8654 13.6657 13.6518 13.8587 13.2839C13.9945 13.0861 14.1031 12.9839 14.1842 12.9774L14.2158 12.976C14.3077 13.0097 14.3603 13.1088 14.3733 13.2737L14.3795 13.3605C14.382 13.3948 14.3828 13.4335 14.3819 13.4777C14.3768 13.7272 14.3119 14.1296 14.1869 14.6844C14.1885 14.7048 14.1893 14.7244 14.1889 14.7432C14.1859 14.8902 14.1208 14.9696 13.9937 14.9805C13.9227 14.9398 13.8844 14.8793 13.8793 14.7984L13.8702 14.6773L13.8498 14.6439C13.8693 14.6419 13.8791 14.6312 13.8795 14.6117L13.8797 14.6054C13.8657 14.566 13.8582 14.5437 13.8575 14.5378L13.8566 14.5207L13.8734 14.5211L13.8759 14.5553L13.8923 14.5532L13.8915 14.5361C13.8779 14.5154 13.8707 14.4986 13.8693 14.4856L14.1022 13.4373L14.1026 13.4202L14.0862 13.4211C13.8443 14.0121 13.6277 14.4377 13.4373 14.6968L13.375 14.7555L13.3246 14.7606C13.3202 14.7613 13.3158 14.7617 13.3119 14.7616C13.2365 14.7599 13.1689 14.6896 13.109 14.5516C13.1129 14.5217 13.115 14.4947 13.1155 14.4701C13.1158 14.4555 13.1157 14.4422 13.1151 14.4297L13.1315 14.4288L13.1356 14.4634L13.1508 14.4613L13.127 14.3761L13.1253 14.342L13.1417 14.3402L13.1446 14.3744L13.161 14.3736L13.1589 14.3565L13.1339 14.2534L13.1667 14.2504L13.1441 14.1657L13.142 14.1486L13.1768 14.1639C13.1853 13.9841 13.1902 13.8392 13.1925 13.7283C13.1948 13.6176 13.1943 13.5417 13.1904 13.4999C13.1628 13.2851 13.1323 13.1773 13.0988 13.1766L13.0976 13.1766C12.8822 13.1955 12.6996 13.6932 12.5504 14.67L12.5742 14.7548C12.5531 14.8493 12.5066 14.9003 12.4358 14.9067L12.4027 14.9097C12.2876 14.8592 12.2233 14.7423 12.2091 14.5599L12.2097 14.5316C12.216 14.2217 12.3457 13.7733 12.5995 13.1863C12.723 12.9778 12.8642 12.8659 13.0237 12.8515L13.0236 12.8515ZM15.5116 12.7273L15.5849 12.7306C15.6658 12.7344 15.7257 12.8401 15.7648 13.0479L15.7308 13.1552L15.7451 13.1558C15.709 13.3031 15.6856 13.5084 15.6745 13.7719L15.6556 14.2194L15.6695 14.2504L15.6996 14.2372C15.7283 14.2385 15.7715 14.2664 15.8291 14.3203L15.8119 14.3967L15.8245 14.429C15.8106 14.4283 15.7952 14.4431 15.7783 14.4731C15.7887 14.4736 15.7933 14.4788 15.7929 14.4884C15.7666 14.4872 15.7306 14.5164 15.6854 14.5765C15.7033 14.6236 15.7109 14.6911 15.7072 14.7789C15.6858 14.8033 15.6749 14.8237 15.6743 14.8399L15.6448 14.8386C15.5818 14.8357 15.5243 14.7968 15.472 14.7218L15.4429 14.7205C15.1068 14.8702 14.9108 14.9442 14.8554 14.9416L14.8257 14.9244C14.8066 14.934 14.7916 14.9387 14.7809 14.9382L14.7236 14.9035C14.6741 15.1393 14.6249 15.256 14.5755 15.2537C14.56 15.253 14.54 15.262 14.5148 15.2814L14.4997 15.2807C14.395 15.1887 14.3446 15.1038 14.3479 15.0255L14.3499 14.9794C14.3532 14.9007 14.3876 14.7834 14.4532 14.6288L14.4381 14.6281C14.4921 14.5309 14.574 14.3491 14.6835 14.0822C14.7038 14.0831 14.7142 14.0732 14.7151 14.0527C14.7051 14.0523 14.7001 14.0471 14.7006 14.0362C14.7745 13.9308 14.8608 13.7592 14.9598 13.5218C15.0028 13.4208 15.0249 13.3601 15.0258 13.3389L15.0119 13.3382C15.1631 13.0854 15.2544 12.9094 15.2857 12.8095L15.3464 12.7818C15.3631 12.7926 15.3824 12.7981 15.4043 12.7991L15.4049 12.7845L15.4346 12.8005L15.4637 12.8018C15.473 12.751 15.4889 12.7262 15.5116 12.7273H15.5116ZM15.3434 13.5553C15.2917 13.6822 15.1456 13.9849 14.905 14.4635C14.9046 14.4743 14.9091 14.4795 14.9195 14.48L15.3545 14.3449L15.3696 14.3455L15.3716 14.2993L15.3629 14.1438L15.3781 14.1445C15.3593 14.1061 15.3511 14.0644 15.353 14.0199L15.3542 13.9895C15.3547 13.9787 15.3601 13.9739 15.3701 13.9744L15.3562 13.9429L15.3725 13.5566L15.3434 13.5553ZM16.985 13.5736L17.0729 13.575L17.08 13.5754C17.178 13.5811 17.2505 13.6684 17.2978 13.8372C17.229 14.5743 17.0509 14.9395 16.7639 14.9336L16.7464 14.9326C16.5138 14.7918 16.3985 14.6604 16.401 14.5382L16.3835 14.5372C16.3148 14.7761 16.2532 14.8977 16.1991 14.9016L16.1815 14.9019L16.1795 14.9018C16.1691 14.9011 16.1638 14.895 16.1641 14.8829L16.1292 14.9013C15.9881 14.8493 15.9201 14.7306 15.9243 14.546L15.9249 14.491C15.9508 14.4917 15.9811 14.4492 16.016 14.3632C16.0158 14.3519 16.0105 14.3457 16.0006 14.3452L15.9982 14.345C16.0473 14.2478 16.1163 14.0339 16.2058 13.7041C16.2261 13.7044 16.2558 13.6869 16.2953 13.6508L16.2977 13.651C16.3077 13.6515 16.3126 13.6573 16.3119 13.6689L16.3476 13.6513C16.4749 13.7443 16.5601 13.8999 16.604 14.1186C16.653 14.3389 16.6974 14.4503 16.7372 14.4527L16.738 14.4527C16.7967 14.4544 16.859 14.2899 16.925 13.9587L16.9255 13.9036C16.9262 13.8915 16.9205 13.885 16.909 13.8843L16.9279 13.7928L16.9299 13.6644C16.9655 13.6255 16.9839 13.5957 16.985 13.5745L16.985 13.5736ZM18.5103 13.8735L18.5386 13.8755C18.746 13.8902 18.8658 13.9968 18.8973 14.1945C18.895 14.2311 18.9022 14.2612 18.9195 14.2842L18.9037 14.3127C18.9122 14.3304 18.9152 14.3502 18.9138 14.3719C18.8434 14.5824 18.7167 14.73 18.5336 14.8148C18.3087 14.9358 18.1037 14.9898 17.919 14.9767L17.7789 14.9668C17.5839 14.953 17.4637 14.8518 17.4192 14.6624C17.413 14.6094 17.4115 14.565 17.4138 14.5301C17.4306 14.2703 17.5966 14.0912 17.9124 13.9928L18.1288 13.9054C18.1282 13.915 18.1327 13.9203 18.1418 13.921C18.1443 13.8819 18.2673 13.8664 18.5103 13.8735ZM17.9996 14.3807C18.0002 14.3711 17.9958 14.3658 17.9866 14.3651L17.7233 14.5227L17.7214 14.5518L17.8754 14.5627C17.922 14.5661 17.9924 14.566 18.0862 14.5631C18.0878 14.5368 18.1595 14.5177 18.3011 14.5048C18.4418 14.4625 18.5441 14.4013 18.6081 14.321C18.5858 14.2998 18.5725 14.2893 18.5678 14.2889L18.3719 14.2751C18.342 14.2926 18.247 14.3151 18.0864 14.343C18.0858 14.3525 18.057 14.3651 17.9996 14.3807V14.3807ZM20.5353 13.3364C20.6076 13.3435 20.6608 13.421 20.6946 13.5686L20.7084 13.57L20.692 13.5968L20.6806 13.7254C20.6266 13.752 20.5561 13.7694 20.4693 13.7773L20.4705 13.7628C20.0586 13.8447 19.76 13.9412 19.5738 14.0521C19.4954 14.101 19.455 14.1355 19.4532 14.1559C19.5214 14.2005 19.7816 14.2835 20.234 14.4044C20.432 14.4984 20.555 14.6162 20.6029 14.7577C20.6008 14.7818 20.6077 14.8067 20.6244 14.8317L20.6206 14.8745C20.6113 14.979 20.541 15.0446 20.4096 15.0708C20.0926 15.1752 19.8583 15.2198 19.7062 15.2051L19.6374 15.1984C19.5389 15.1889 19.4749 15.1296 19.4457 15.0204L19.4508 14.9632C19.4516 14.9545 19.4563 14.9504 19.4659 14.9513L19.4313 14.8756C19.4587 14.8782 19.4735 14.865 19.4761 14.8359C19.4666 14.835 19.4626 14.83 19.4634 14.8213C19.6263 14.8371 19.8215 14.8171 20.0497 14.7614L20.0521 14.7336C19.9164 14.7008 19.849 14.6796 19.8499 14.6697C19.8415 14.6689 19.8368 14.6734 19.8358 14.6833C19.4966 14.5831 19.2893 14.4764 19.2141 14.3628C19.1791 14.3594 19.1471 14.2555 19.1176 14.051C19.1393 13.8062 19.353 13.6294 19.7585 13.521C20.0223 13.424 20.2814 13.3625 20.5353 13.3364Z" fill="white"/>
<path fill-rule="evenodd" clip-rule="evenodd" d="M8.72352 17.9347C8.72352 17.962 8.71564 17.9829 8.69984 17.9974C8.68407 18.0119 8.66655 18.0193 8.6473 18.0197C8.62804 18.0201 8.61053 18.0135 8.59475 17.9998C8.57895 17.9861 8.57107 17.9644 8.57107 17.9347C8.57107 17.929 8.56836 17.9192 8.56298 17.9051C8.55759 17.891 8.54892 17.8772 8.537 17.8635C8.52506 17.8498 8.50908 17.8376 8.48907 17.8267C8.46905 17.8159 8.4448 17.8104 8.4163 17.8104C8.39012 17.8104 8.36472 17.8175 8.34008 17.8315C8.31543 17.8456 8.29369 17.8669 8.27483 17.8955C8.25596 17.924 8.24074 17.96 8.2292 18.0034C8.21765 18.0468 8.21188 18.0975 8.21188 18.1554C8.21188 18.2125 8.21746 18.2611 8.22863 18.3013C8.23979 18.3416 8.25557 18.3741 8.27598 18.399C8.29638 18.424 8.32064 18.4423 8.34874 18.4539C8.37684 18.4656 8.40821 18.4714 8.44287 18.4714C8.46674 18.4714 8.48771 18.4678 8.5058 18.4606C8.52391 18.4533 8.54296 18.4441 8.56298 18.4328C8.5807 18.4224 8.59629 18.4173 8.60976 18.4177C8.62322 18.4182 8.63459 18.4222 8.64383 18.4298C8.65307 18.4375 8.65981 18.4475 8.66404 18.46C8.66827 18.4724 8.6702 18.4853 8.66981 18.4986C8.66945 18.5118 8.66635 18.5247 8.66057 18.5372C8.65479 18.5496 8.64652 18.5595 8.63574 18.5667C8.62573 18.5731 8.61476 18.5796 8.60282 18.586C8.5909 18.5924 8.57724 18.5983 8.56183 18.6035C8.54643 18.6087 8.52833 18.613 8.50754 18.6162C8.48675 18.6194 8.46211 18.621 8.43363 18.621C8.40899 18.621 8.38281 18.6188 8.35509 18.6144C8.32737 18.6099 8.29984 18.6017 8.27251 18.5896C8.24519 18.5776 8.2188 18.5609 8.1934 18.5396C8.168 18.5183 8.14567 18.4903 8.12641 18.4557C8.10716 18.4212 8.09156 18.3793 8.07964 18.3303C8.0677 18.2813 8.06174 18.2229 8.06174 18.1554C8.06174 18.0702 8.07173 17.9964 8.09177 17.9341C8.11178 17.8717 8.13872 17.8201 8.17261 17.7791C8.20649 17.738 8.24519 17.7077 8.28868 17.688C8.33219 17.6683 8.37742 17.6584 8.42439 17.6584C8.46211 17.6584 8.49888 17.6657 8.53469 17.6802C8.57049 17.6946 8.60245 17.7145 8.63054 17.7399C8.65865 17.7652 8.68118 17.7945 8.69812 17.8279C8.71505 17.8613 8.72352 17.8969 8.72352 17.9347ZM9.08964 18.621C9.04961 18.621 9.01264 18.6131 8.97877 18.5975C8.94489 18.5818 8.91543 18.5601 8.89042 18.5323C8.86539 18.5046 8.84594 18.4714 8.83208 18.4328C8.81823 18.3942 8.81131 18.352 8.81131 18.3062C8.81131 18.2603 8.81823 18.2179 8.83208 18.1789C8.84594 18.1399 8.86539 18.1063 8.89042 18.0782C8.91543 18.0501 8.94489 18.0281 8.97877 18.0125C9.01264 17.9968 9.04961 17.9889 9.08964 17.9889C9.12967 17.9889 9.16664 17.9968 9.20051 18.0125C9.23439 18.0281 9.26365 18.0501 9.28829 18.0782C9.31294 18.1063 9.33238 18.1399 9.34661 18.1789C9.36087 18.2179 9.36798 18.2603 9.36798 18.3062C9.36798 18.352 9.36105 18.3942 9.3472 18.4328C9.33334 18.4714 9.31389 18.5046 9.28886 18.5323C9.26385 18.5601 9.23439 18.5818 9.20051 18.5975C9.16664 18.6131 9.12967 18.621 9.08964 18.621ZM9.08964 18.1204C9.06731 18.1204 9.04729 18.1252 9.02958 18.1349C9.01188 18.1445 8.99686 18.1578 8.98455 18.1747C8.97222 18.1916 8.96259 18.2117 8.95566 18.235C8.94874 18.2583 8.94528 18.2837 8.94528 18.311C8.94528 18.3657 8.95837 18.4095 8.98455 18.4425C9.01071 18.4754 9.04576 18.4919 9.08964 18.4919C9.13352 18.4919 9.16857 18.4754 9.19475 18.4425C9.22091 18.4095 9.234 18.3657 9.234 18.311C9.234 18.2845 9.23054 18.2595 9.22362 18.2362C9.21669 18.2129 9.20686 18.1926 9.19416 18.1753C9.18146 18.158 9.16625 18.1445 9.14854 18.1349C9.13084 18.1252 9.1112 18.1204 9.08964 18.1204ZM9.90966 18.1783C9.90349 18.1783 9.89753 18.1773 9.89175 18.1753C9.88598 18.1733 9.88116 18.1707 9.87731 18.1675C9.86578 18.1594 9.85558 18.1528 9.84671 18.1476C9.83785 18.1423 9.82882 18.1381 9.81958 18.1349C9.81032 18.1317 9.80051 18.1297 9.79013 18.1289C9.77972 18.128 9.76722 18.1277 9.75259 18.1277C9.72795 18.1277 9.70659 18.1323 9.68847 18.1415C9.67039 18.1508 9.655 18.1636 9.64228 18.1801C9.62958 18.1966 9.62016 18.2161 9.61399 18.2386C9.60782 18.2611 9.60475 18.2857 9.60475 18.3122C9.60475 18.3331 9.60879 18.3538 9.61688 18.3743C9.62497 18.3948 9.63593 18.4133 9.6498 18.4298C9.66365 18.4463 9.67983 18.4598 9.6983 18.4702C9.71679 18.4807 9.73641 18.4859 9.7572 18.4859C9.77492 18.4859 9.7907 18.4851 9.80456 18.4835C9.81841 18.4819 9.83304 18.4783 9.84844 18.4726C9.85152 18.471 9.85595 18.4696 9.86172 18.4684C9.8675 18.4672 9.87231 18.4666 9.87616 18.4666C9.89233 18.4666 9.90716 18.4724 9.92063 18.4841C9.9341 18.4958 9.94084 18.5128 9.94084 18.5354C9.94084 18.5587 9.93334 18.576 9.91832 18.5872C9.90331 18.5985 9.88579 18.6065 9.86578 18.6113C9.85576 18.6137 9.84556 18.6156 9.83517 18.6168C9.82477 18.618 9.81457 18.619 9.80456 18.6198C9.79378 18.6206 9.78396 18.6208 9.77511 18.6204C9.76626 18.62 9.75835 18.6198 9.75142 18.6198C9.71216 18.6198 9.6754 18.6124 9.64113 18.5975C9.60686 18.5826 9.57685 18.5615 9.55104 18.5341C9.52525 18.5068 9.50485 18.4742 9.48983 18.4364C9.47481 18.3986 9.46731 18.3572 9.46731 18.3122C9.46731 18.2712 9.47424 18.2314 9.4881 18.1928C9.50196 18.1542 9.5214 18.12 9.54643 18.0903C9.57144 18.0605 9.60148 18.0364 9.6365 18.0179C9.67155 17.9994 9.71023 17.9901 9.75259 17.9901C9.7857 17.9901 9.81958 17.9952 9.85422 18.0052C9.88887 18.0153 9.91968 18.0332 9.94661 18.0589C9.95278 18.0653 9.95856 18.0728 9.96394 18.0812C9.96933 18.0897 9.97204 18.1003 9.97204 18.1132C9.97204 18.1317 9.96587 18.1472 9.95354 18.1596C9.94123 18.1721 9.9266 18.1783 9.90966 18.1783ZM10.2689 17.8056C10.2689 17.8313 10.2604 17.853 10.2434 17.8707C10.2265 17.8884 10.2057 17.8973 10.1811 17.8973C10.1564 17.8973 10.1357 17.8884 10.1187 17.8707C10.1018 17.853 10.0933 17.8313 10.0933 17.8056C10.0933 17.7799 10.1018 17.7582 10.1187 17.7405C10.1357 17.7228 10.1564 17.7139 10.1811 17.7139C10.2057 17.7139 10.2265 17.7228 10.2434 17.7405C10.2604 17.7582 10.2689 17.7799 10.2689 17.8056ZM10.2527 18.0553L10.2515 18.539C10.2515 18.5599 10.2446 18.5788 10.2307 18.5957C10.2169 18.6125 10.2003 18.621 10.1811 18.621C10.1618 18.621 10.1453 18.6125 10.1314 18.5957C10.1176 18.5788 10.1106 18.5599 10.1106 18.539L10.1095 18.0553C10.1095 18.0448 10.1118 18.035 10.1164 18.0257C10.121 18.0165 10.1268 18.0084 10.1337 18.0016C10.1407 17.9948 10.1484 17.9893 10.1568 17.9853C10.1653 17.9813 10.1734 17.9793 10.1811 17.9793C10.1888 17.9793 10.1969 17.9813 10.2053 17.9853C10.2138 17.9893 10.2215 17.9948 10.2284 18.0016C10.2354 18.0084 10.2411 18.0165 10.2458 18.0257C10.2504 18.035 10.2527 18.0448 10.2527 18.0553ZM10.8307 18.621C10.8105 18.621 10.7942 18.6135 10.7819 18.5987C10.7693 18.5838 10.7632 18.5667 10.7632 18.5474V18.2965C10.7632 18.2724 10.762 18.2499 10.7597 18.229C10.7574 18.2081 10.7526 18.1902 10.7453 18.1753C10.738 18.1604 10.7276 18.1488 10.7141 18.1403C10.7006 18.1319 10.6831 18.1277 10.6615 18.1277C10.6423 18.1277 10.6232 18.1313 10.6044 18.1385C10.5855 18.1457 10.5707 18.1546 10.5599 18.165V18.5438C10.5599 18.5623 10.5539 18.5798 10.542 18.5963C10.5301 18.6127 10.5137 18.621 10.4929 18.621C10.4721 18.621 10.4558 18.6127 10.4438 18.5963C10.4319 18.5798 10.4259 18.5623 10.4259 18.5438V18.0686C10.4259 18.0436 10.4325 18.0245 10.4456 18.0113C10.4586 17.998 10.4752 17.9914 10.4952 17.9914C10.5083 17.9914 10.5199 17.9948 10.5299 18.0016C10.5399 18.0084 10.5472 18.0171 10.5518 18.0275C10.5657 18.0147 10.5824 18.0054 10.6017 17.9998C10.6209 17.9942 10.6415 17.9914 10.6631 17.9914C10.7434 17.9914 10.8024 18.0159 10.8404 18.0649C10.8783 18.114 10.8972 18.1803 10.8972 18.264V18.5474C10.8972 18.5667 10.8912 18.5838 10.8791 18.5987C10.8671 18.6135 10.8509 18.621 10.8307 18.621ZM11.4896 18.627C11.465 18.627 11.4454 18.617 11.4307 18.5969C11.4153 18.6033 11.3968 18.6089 11.3753 18.6137C11.3537 18.6186 11.3353 18.621 11.3199 18.621C11.276 18.621 11.2355 18.6135 11.1986 18.5987C11.1616 18.5838 11.1299 18.5629 11.1033 18.536C11.0767 18.509 11.0559 18.4765 11.0409 18.4382C11.0259 18.4001 11.0184 18.3576 11.0184 18.311C11.0184 18.2652 11.0257 18.2227 11.0404 18.1837C11.055 18.1447 11.0756 18.1108 11.1021 18.0818C11.1287 18.0529 11.1605 18.0304 11.1974 18.0143C11.2344 17.9982 11.2752 17.9901 11.3199 17.9901C11.3314 17.9901 11.3458 17.9924 11.3632 17.9968C11.3805 18.0012 11.3946 18.0074 11.4053 18.0155C11.4176 17.997 11.4338 17.9877 11.4538 17.9877C11.4762 17.9877 11.4923 17.9946 11.5023 18.0082C11.5123 18.0219 11.5174 18.0392 11.5174 18.0601V18.387C11.5174 18.4031 11.5187 18.4205 11.5214 18.4395C11.5241 18.4584 11.5289 18.475 11.5358 18.4895C11.5405 18.5008 11.5453 18.5114 11.5503 18.5215C11.5553 18.5315 11.5578 18.543 11.5578 18.5558C11.5578 18.5744 11.5509 18.5908 11.537 18.6053C11.5231 18.6198 11.5073 18.627 11.4896 18.627ZM11.3868 18.4328V18.1361C11.3768 18.1313 11.3659 18.1272 11.3539 18.124C11.342 18.1208 11.331 18.1192 11.321 18.1192C11.2956 18.1192 11.2723 18.1238 11.2511 18.1331C11.23 18.1423 11.2117 18.1552 11.1963 18.1717C11.1809 18.1882 11.1689 18.2077 11.1605 18.2302C11.152 18.2527 11.1478 18.2772 11.1478 18.3038C11.1478 18.3303 11.152 18.355 11.1605 18.3779C11.1689 18.4009 11.1807 18.4208 11.1957 18.4376C11.2107 18.4545 11.229 18.4678 11.2506 18.4775C11.2721 18.4871 11.2956 18.4919 11.321 18.4919C11.3326 18.4919 11.3443 18.4905 11.3562 18.4877C11.3682 18.4849 11.3799 18.4815 11.3915 18.4775C11.3899 18.4694 11.3888 18.4618 11.388 18.4545C11.3872 18.4473 11.3868 18.4401 11.3868 18.4328ZM12.7116 18.5402C12.7116 18.5651 12.7039 18.5848 12.6885 18.5993C12.6731 18.6137 12.6558 18.621 12.6365 18.621C12.6096 18.621 12.5884 18.6093 12.573 18.586L12.1884 17.9757V18.5414C12.1884 18.5631 12.1811 18.5818 12.1662 18.5975C12.1516 18.6131 12.1341 18.621 12.1139 18.621C12.0929 18.621 12.075 18.6131 12.0604 18.5975C12.0456 18.5818 12.0382 18.5631 12.0382 18.5414V17.738C12.0382 17.7131 12.0457 17.6938 12.0608 17.6802C12.0758 17.6665 12.0933 17.6597 12.1133 17.6597C12.1241 17.6597 12.1349 17.6619 12.1457 17.6663C12.1564 17.6707 12.1653 17.6785 12.1722 17.6898L12.5603 18.3062V17.7368C12.5603 17.7151 12.5678 17.6966 12.583 17.6814C12.598 17.6661 12.6157 17.6584 12.6359 17.6584C12.6562 17.6584 12.6737 17.6659 12.6883 17.6808C12.7031 17.6956 12.7104 17.7143 12.7104 17.7368L12.7116 18.5402ZM13.3087 18.627C13.2841 18.627 13.2644 18.617 13.2498 18.5969C13.2344 18.6033 13.2159 18.6089 13.1943 18.6137C13.1728 18.6186 13.1543 18.621 13.1389 18.621C13.095 18.621 13.0546 18.6135 13.0176 18.5987C12.9807 18.5838 12.9489 18.5629 12.9224 18.536C12.8958 18.509 12.875 18.4765 12.86 18.4382C12.845 18.4001 12.8375 18.3576 12.8375 18.311C12.8375 18.2652 12.8448 18.2227 12.8594 18.1837C12.874 18.1447 12.8946 18.1108 12.9212 18.0818C12.9478 18.0529 12.9795 18.0304 13.0165 18.0143C13.0535 17.9982 13.0943 17.9901 13.1389 17.9901C13.1505 17.9901 13.1649 17.9924 13.1822 17.9968C13.1996 18.0012 13.2136 18.0074 13.2244 18.0155C13.2367 17.997 13.2529 17.9877 13.2729 17.9877C13.2952 17.9877 13.3114 17.9946 13.3214 18.0082C13.3314 18.0219 13.3364 18.0392 13.3364 18.0601V18.387C13.3364 18.4031 13.3378 18.4205 13.3405 18.4395C13.3432 18.4584 13.348 18.475 13.3549 18.4895C13.3595 18.5008 13.3643 18.5114 13.3693 18.5215C13.3743 18.5315 13.3768 18.543 13.3768 18.5558C13.3768 18.5744 13.3699 18.5908 13.356 18.6053C13.3422 18.6198 13.3264 18.627 13.3087 18.627ZM13.2059 18.4328V18.1361C13.1959 18.1313 13.1849 18.1272 13.173 18.124C13.161 18.1208 13.1501 18.1192 13.1401 18.1192C13.1147 18.1192 13.0914 18.1238 13.0702 18.1331C13.049 18.1423 13.0307 18.1552 13.0153 18.1717C12.9999 18.1882 12.988 18.2077 12.9795 18.2302C12.9711 18.2527 12.9668 18.2772 12.9668 18.3038C12.9668 18.3303 12.9711 18.355 12.9795 18.3779C12.988 18.4009 12.9997 18.4208 13.0148 18.4376C13.0298 18.4545 13.0481 18.4678 13.0696 18.4775C13.0912 18.4871 13.1147 18.4919 13.1401 18.4919C13.1516 18.4919 13.1634 18.4905 13.1753 18.4877C13.1872 18.4849 13.199 18.4815 13.2105 18.4775C13.209 18.4694 13.2078 18.4618 13.2071 18.4545C13.2063 18.4473 13.2059 18.4401 13.2059 18.4328ZM13.7857 18.621H13.7545C13.7229 18.621 13.6956 18.6148 13.6725 18.6023C13.6494 18.5898 13.6302 18.5735 13.6148 18.5534C13.5993 18.5333 13.5878 18.5104 13.5801 18.4847C13.5724 18.459 13.5686 18.4324 13.5686 18.4051V18.1156H13.5432C13.5254 18.1156 13.5091 18.111 13.4941 18.1017C13.4791 18.0925 13.4715 18.0774 13.4715 18.0565C13.4715 18.0356 13.4787 18.0191 13.4929 18.007C13.5071 17.995 13.5239 17.9889 13.5432 17.9889H13.5686V17.8587C13.5686 17.8378 13.5749 17.8197 13.5876 17.8044C13.6003 17.7891 13.6159 17.7815 13.6344 17.7815C13.6536 17.7815 13.6694 17.7891 13.6817 17.8044C13.6941 17.8197 13.7002 17.8378 13.7002 17.8587V17.9889H13.7799C13.7992 17.9889 13.8159 17.995 13.8302 18.007C13.8444 18.0191 13.8515 18.0356 13.8515 18.0565C13.8515 18.0774 13.844 18.0925 13.829 18.1017C13.814 18.111 13.7976 18.1156 13.7799 18.1156H13.7002V18.3906C13.7002 18.4268 13.7079 18.4517 13.7233 18.4654C13.7387 18.4791 13.7595 18.4863 13.7857 18.4871C13.7996 18.4879 13.814 18.4937 13.829 18.5046C13.844 18.5155 13.8515 18.5305 13.8515 18.5498C13.8515 18.5683 13.8456 18.5848 13.8336 18.5993C13.8217 18.6137 13.8057 18.621 13.7857 18.621ZM14.4071 18.627C14.3932 18.627 14.3809 18.6236 14.3701 18.6168C14.3593 18.6099 14.3512 18.6013 14.3458 18.5908C14.332 18.5997 14.3135 18.6069 14.2904 18.6125C14.2673 18.6182 14.2392 18.621 14.2061 18.621C14.1799 18.621 14.1526 18.6178 14.1241 18.6113C14.0956 18.6049 14.0692 18.5918 14.045 18.5721C14.0207 18.5524 14.0007 18.5247 13.9849 18.4889C13.9691 18.4531 13.9612 18.4059 13.9612 18.3472V18.0601C13.9612 18.0392 13.968 18.0219 13.9813 18.0082C13.9947 17.9946 14.0105 17.9877 14.0288 17.9877C14.0471 17.9877 14.0627 17.9946 14.0758 18.0082C14.0887 18.0219 14.0952 18.0392 14.0952 18.0601V18.305C14.0952 18.3637 14.1025 18.4085 14.1174 18.4395C14.132 18.4704 14.1622 18.4863 14.2078 18.4871C14.2219 18.4871 14.234 18.4863 14.2444 18.4847C14.2548 18.4831 14.2644 18.4811 14.2729 18.4787C14.2798 18.4771 14.2862 18.475 14.2921 18.4726C14.2979 18.4702 14.3035 18.4682 14.3089 18.4666C14.305 18.4561 14.3027 18.4447 14.302 18.4322C14.3012 18.4198 14.3008 18.4115 14.3008 18.4075V18.0625C14.3008 18.0416 14.3071 18.0239 14.3199 18.0095C14.3326 17.995 14.3485 17.9877 14.3678 17.9877C14.387 17.9877 14.403 17.995 14.4157 18.0095C14.4284 18.0239 14.4348 18.0416 14.4348 18.0625V18.3858C14.4348 18.4163 14.4375 18.4411 14.4429 18.46C14.4483 18.4789 14.456 18.4975 14.466 18.5161C14.4729 18.5297 14.4758 18.543 14.4746 18.5558C14.4735 18.5687 14.47 18.5806 14.4642 18.5914C14.4585 18.6023 14.4504 18.6109 14.44 18.6174C14.4296 18.6238 14.4186 18.627 14.4071 18.627ZM14.9002 18.124C14.8956 18.1224 14.8898 18.1208 14.8829 18.1192C14.876 18.1176 14.8683 18.1168 14.8598 18.1168C14.8459 18.1168 14.8315 18.1198 14.8165 18.1258C14.8015 18.1319 14.7874 18.1403 14.7743 18.1512C14.7612 18.162 14.7495 18.1747 14.7391 18.1892C14.7287 18.2037 14.722 18.2193 14.7189 18.2362V18.5402C14.7189 18.5619 14.7124 18.5808 14.6993 18.5969C14.6862 18.613 14.6696 18.621 14.6496 18.621C14.6296 18.621 14.6128 18.613 14.5994 18.5969C14.5859 18.5808 14.5791 18.5619 14.5791 18.5402V18.0673C14.5791 18.0521 14.5814 18.0396 14.5861 18.0299C14.5907 18.0203 14.5967 18.0125 14.604 18.0064C14.6113 18.0004 14.6192 17.9962 14.6276 17.9938C14.6361 17.9914 14.6442 17.9901 14.6519 17.9901C14.6658 17.9901 14.6787 17.994 14.6906 18.0016C14.7025 18.0092 14.7104 18.0215 14.7143 18.0384C14.7435 18.0135 14.7714 17.9984 14.798 17.9932C14.8246 17.9879 14.8475 17.9853 14.8667 17.9853C14.8821 17.9853 14.8969 17.9873 14.9112 17.9914C14.9254 17.9954 14.9376 17.9998 14.9476 18.0046C14.9707 18.0167 14.9849 18.0314 14.9903 18.0486C14.9957 18.0659 14.9949 18.0814 14.988 18.0951C14.9811 18.1087 14.9697 18.119 14.9539 18.1258C14.9381 18.1327 14.9202 18.1321 14.9002 18.124ZM15.5274 18.627C15.5027 18.627 15.4831 18.617 15.4685 18.5969C15.4531 18.6033 15.4346 18.6089 15.413 18.6137C15.3915 18.6186 15.373 18.621 15.3576 18.621C15.3137 18.621 15.2733 18.6135 15.2363 18.5987C15.1994 18.5838 15.1676 18.5629 15.141 18.536C15.1145 18.509 15.0937 18.4765 15.0787 18.4382C15.0636 18.4001 15.0561 18.3576 15.0561 18.311C15.0561 18.2652 15.0635 18.2227 15.0781 18.1837C15.0927 18.1447 15.1133 18.1108 15.1399 18.0818C15.1664 18.0529 15.1982 18.0304 15.2352 18.0143C15.2721 17.9982 15.3129 17.9901 15.3576 17.9901C15.3691 17.9901 15.3836 17.9924 15.4009 17.9968C15.4182 18.0012 15.4323 18.0074 15.443 18.0155C15.4554 17.997 15.4715 17.9877 15.4916 17.9877C15.5139 17.9877 15.5301 17.9946 15.5401 18.0082C15.5501 18.0219 15.5551 18.0392 15.5551 18.0601V18.387C15.5551 18.4031 15.5564 18.4205 15.5591 18.4395C15.5618 18.4584 15.5666 18.475 15.5736 18.4895C15.5782 18.5008 15.583 18.5114 15.588 18.5215C15.593 18.5315 15.5955 18.543 15.5955 18.5558C15.5955 18.5744 15.5886 18.5908 15.5747 18.6053C15.5609 18.6198 15.5451 18.627 15.5274 18.627ZM15.4246 18.4328V18.1361C15.4146 18.1313 15.4036 18.1272 15.3917 18.124C15.3797 18.1208 15.3687 18.1192 15.3587 18.1192C15.3333 18.1192 15.31 18.1238 15.2889 18.1331C15.2677 18.1423 15.2494 18.1552 15.234 18.1717C15.2186 18.1882 15.2067 18.2077 15.1982 18.2302C15.1897 18.2527 15.1855 18.2772 15.1855 18.3038C15.1855 18.3303 15.1897 18.355 15.1982 18.3779C15.2067 18.4009 15.2184 18.4208 15.2334 18.4376C15.2484 18.4545 15.2667 18.4678 15.2883 18.4775C15.3099 18.4871 15.3333 18.4919 15.3587 18.4919C15.3703 18.4919 15.382 18.4905 15.394 18.4877C15.4059 18.4849 15.4176 18.4815 15.4292 18.4775C15.4276 18.4694 15.4265 18.4618 15.4257 18.4545C15.425 18.4473 15.4246 18.4401 15.4246 18.4328ZM15.927 18.5173C15.9347 18.5309 15.9381 18.5442 15.9374 18.5571C15.9366 18.5699 15.9333 18.5814 15.9276 18.5914C15.9218 18.6015 15.9141 18.6097 15.9044 18.6162C15.8948 18.6226 15.8842 18.6258 15.8727 18.6258C15.855 18.6258 15.8402 18.6218 15.8282 18.6137C15.8163 18.6057 15.8038 18.5924 15.7907 18.5739C15.7815 18.5603 15.7724 18.5376 15.7635 18.5058C15.7547 18.474 15.7503 18.4356 15.7503 18.3906V17.7332C15.7503 17.7228 15.7524 17.7129 15.7566 17.7037C15.7609 17.6944 15.7664 17.6866 15.7734 17.6802C15.7803 17.6737 15.7878 17.6685 15.7959 17.6645C15.804 17.6604 15.8123 17.6584 15.8207 17.6584C15.8292 17.6584 15.8377 17.6604 15.8461 17.6645C15.8546 17.6685 15.8623 17.6737 15.8692 17.6802C15.8762 17.6866 15.8817 17.6944 15.886 17.7037C15.8902 17.7129 15.8923 17.7228 15.8923 17.7332V18.3713C15.8923 18.4075 15.8966 18.4382 15.905 18.4636C15.9135 18.4889 15.9208 18.5068 15.927 18.5173Z" fill="white"/>
</svg>
