<svg id="Capa_1" enable-background="new 0 0 507.671 507.671" height="512" viewBox="0 0 507.671 507.671" width="512" xmlns="http://www.w3.org/2000/svg"><g id="XMLID_105_"><path id="XMLID_1886_" d="m278.514 118.125c0-34.381-27.972-62.352-62.353-62.352-18.932 0-35.907 8.492-47.352 21.854-11.445-13.362-28.42-21.854-47.352-21.854-30.709 0-56.286 22.322-61.403 51.588-27.634 6.392-48.302 31.188-48.302 60.736v9.285h266.762z" fill="#ffeb95"/><path id="XMLID_1650_" d="m216.161 55.773c-18.932 0-35.908 8.492-47.353 21.855v78.117h109.705v-37.62c.001-34.381-27.971-62.352-62.352-62.352z" fill="#ffde46"/><path id="XMLID_278_" d="m168.809 105.745c-34.381 0-62.352 27.972-62.352 62.353v9.285h124.704v-9.285c0-34.382-27.971-62.353-62.352-62.353z" fill="#ffde46"/><path id="XMLID_1887_" d="m263.514 105.745c-18.932 0-35.908 8.493-47.353 21.855-11.445-13.363-28.421-21.855-47.353-21.855v71.638h32.353 30 94.704v-9.285c0-34.382-27.97-62.353-62.351-62.353z" fill="#ffb64c"/><path id="XMLID_1185_" d="m337.62 162.386-22.15 289.26h-293.32l-22.15-289.26z" fill="#cfeaf9"/><path id="XMLID_1654_" d="m168.809 162.386v289.26h146.661l22.15-289.26z" fill="#a2d8f4"/><path id="XMLID_1044_" d="m104.68 451.646h-30.02l-9.68-289.26h30.01z" fill="#00cef5"/><path id="XMLID_1040_" d="m271.68 162.386-9.68 289.26h-30.01l9.68-289.26z" fill="#3baaff"/><path id="XMLID_292_" d="m477.671 87.898v70.051c0 15.645-9.498 29.109-23.029 34.94v-104.991h-30v104.991c-13.53-5.831-23.028-19.295-23.028-34.94v-70.051h-30v70.051c0 32.357 22.714 59.49 53.028 66.342v227.607h30v-227.607c30.316-6.852 53.029-33.985 53.029-66.342v-70.051z" fill="#cfeaf9"/><path id="XMLID_372_" d="m325.865 322.011h-127.651v-30h129.481z" fill="#00cef5"/><path id="XMLID_280_" d="m139.404 322.011h-127.193l-2.288-30h129.481z" fill="#75e2f8"/><circle id="XMLID_561_" cx="168.809" cy="307.011" fill="#ffeb95" r="41.458"/><path id="XMLID_1656_" d="m168.809 265.553v82.916c22.86 0 41.458-18.598 41.458-41.458s-18.598-41.458-41.458-41.458z" fill="#ffde46"/><path id="XMLID_328_" d="m477.671 87.898v70.051c0 15.645-9.498 29.109-23.029 34.94v-104.991h-15v108.08 30 225.92h15v-227.607c30.316-6.852 53.029-33.985 53.029-66.342v-70.051z" fill="#a2d8f4"/></g></svg>