<svg width="70" height="70" viewBox="0 0 70 70" fill="none" xmlns="http://www.w3.org/2000/svg">
<path fill-rule="evenodd" clip-rule="evenodd" d="M35.6956 29.8416C35.6505 29.8574 35.61 29.8707 35.5635 29.8631C34.8739 29.7691 34.2424 29.4857 33.5898 29.2559C33.5468 29.3552 33.5081 29.4565 33.4714 29.5586C33.8596 29.7534 34.2561 29.9357 34.6809 30.0235C34.7483 30.0374 34.8133 30.0659 34.8734 30.1004C35.0327 30.1919 35.1015 30.3595 35.0486 30.542C34.9917 30.7377 34.8312 30.7931 34.652 30.7705C34.3137 30.7278 33.6401 30.4121 33.2564 30.1978C33.2319 30.3012 33.2188 30.4066 33.2126 30.5132C33.66 30.5285 34.0176 30.7959 34.2894 31.1712L34.3444 31.2473L34.283 31.3178C34.2303 31.3783 34.2076 31.4513 34.1139 31.4672C34.0016 31.4861 33.8814 31.4926 33.771 31.4598C33.5922 31.4067 33.4187 31.3378 33.2445 31.271C33.2859 31.4605 33.3722 31.6348 33.4989 31.7831C33.6039 31.9059 33.6843 32.0468 33.7844 32.1729C33.9592 32.3933 34.1425 32.598 34.3471 32.7711C36.8685 32.7611 39.3901 32.8088 41.91 32.9137C41.9794 32.8632 42.0468 32.809 42.1121 32.7509C42.1934 32.6785 42.298 32.5699 42.3304 32.4616C42.4736 31.9829 42.6246 31.4987 42.5845 30.9898C42.5423 30.4529 42.332 29.945 42.2056 29.4268C42.2002 29.4047 42.1732 29.3676 42.1593 29.3467C41.8981 28.9375 41.6303 28.594 41.1304 28.5396C40.7861 28.5022 40.4524 28.3973 40.1213 28.2963C38.9557 27.9409 37.7724 27.8242 36.5676 28.0042C36.2334 28.0541 35.8996 28.109 35.5682 28.1772C35.6178 28.2618 35.6392 28.3627 35.617 28.4647C35.5624 28.7151 35.3028 28.8332 35.0753 28.7725C34.8365 28.7088 34.5992 28.6366 34.3685 28.5454C34.3635 28.5434 34.3585 28.5413 34.3537 28.5391C34.2573 28.5814 34.1618 28.6259 34.0667 28.6713C34.0576 28.6756 34.0485 28.6802 34.0396 28.6849C34.5351 28.8385 35.0309 28.991 35.5257 29.1469C35.6197 29.1765 35.7097 29.2295 35.7996 29.271L35.87 29.3035L35.8649 29.3837C35.8584 29.4853 35.8514 29.5867 35.8448 29.6882L35.8412 29.7425L35.7988 29.774C35.7673 29.7974 35.7328 29.8292 35.6956 29.8416Z" fill="black"/>
<path fill-rule="evenodd" clip-rule="evenodd" d="M33.5292 19.4794C33.5035 19.4273 33.4766 19.3765 33.4467 19.3306C32.9312 18.5382 32.4209 17.742 31.8926 16.9587C31.2565 16.0152 30.4806 15.1997 29.628 14.4694C29.3327 14.2166 29.0969 13.8996 28.8631 13.587C28.7421 13.4251 28.6834 13.217 28.6421 13.019C28.5704 12.675 28.7105 12.3746 28.9595 12.154C29.2133 11.9291 29.4977 11.9854 29.7703 12.1319L29.8144 12.1557C30.2007 12.3821 30.5996 12.5836 30.9671 12.8436C31.4715 13.2005 31.9473 13.5982 32.4347 13.9793C32.4713 14.0079 32.4893 14.0352 32.5187 14.0681C32.8287 14.4148 33.1475 14.7531 33.4477 15.1093C33.6583 15.3589 33.8564 15.6207 34.0354 15.896C34.3219 16.3367 34.5859 16.7926 34.8639 17.2389C34.8743 17.2557 34.8857 17.2723 34.8977 17.2888C35.0209 16.7852 35.1162 16.2694 35.0967 15.7477C35.0899 15.568 35.0839 15.3449 34.9642 15.2019C34.776 14.9773 34.5822 14.73 34.2986 14.6381C34.1066 14.5759 33.9235 14.4907 33.7348 14.4195C33.292 14.2525 32.9569 13.9699 32.8298 13.4798C32.7733 13.2624 32.7179 13.0445 32.6749 12.8237C32.5988 12.434 32.5383 12.0412 32.4611 11.6517C32.3003 10.8412 31.3732 10.3291 30.6424 10.6648C30.5209 10.7206 30.3949 10.7609 30.27 10.8069C29.3023 11.1637 28.379 11.0339 27.504 10.4878C27.1305 10.2549 26.7532 10.0284 26.3687 9.8158C26.1034 9.66903 25.8242 9.55791 25.5223 9.53524C25.1322 9.50593 25.0592 9.63192 24.9537 10.021C24.9406 10.069 24.9486 10.1395 24.9579 10.1878C25.0488 10.659 25.1255 11.1352 25.2515 11.5981C25.2977 11.768 25.4357 11.9407 25.5456 12.073C25.8769 12.4718 26.2845 12.7846 26.7143 13.0579C27.1706 13.3481 27.5602 13.7226 27.9039 14.1478C28.3078 14.6476 28.5683 15.2319 28.7707 15.846C28.8962 16.2271 28.9899 16.6179 29.0919 17.0064C29.1314 17.1566 29.2195 17.262 29.3379 17.3525C29.4879 17.467 29.6529 17.4877 29.8323 17.4516C30.1351 17.3907 30.4399 17.3386 30.7405 17.2661C31.0749 17.1856 31.3781 17.2745 31.6566 17.4732C31.9117 17.6552 32.1136 17.8796 32.25 18.1714C32.3762 18.4416 32.5248 18.701 32.6842 18.9511C32.782 19.1045 32.898 19.2549 33.0341 19.3731C33.1934 19.5113 33.3579 19.5277 33.5292 19.4794Z" fill="#C2C4C6"/>
<path fill-rule="evenodd" clip-rule="evenodd" d="M35.9213 13.7104C35.9958 13.3475 36.0453 12.8645 36.0544 12.5938C36.0786 11.8707 36.1207 11.1483 36.1586 10.4258C36.1639 10.326 36.1844 10.2305 36.2038 10.1331C36.2684 9.8101 36.3174 9.48434 36.4043 9.16654C36.5142 8.7641 36.6394 8.3658 36.785 7.97583C36.9176 7.62103 37.159 7.36635 37.5406 7.34867L37.6043 7.34573L37.6572 7.38267C37.9288 7.57244 38.079 7.73443 38.1749 8.06496C38.3272 8.58957 38.3971 9.12786 38.3407 9.67509C38.2063 10.9806 38.0695 12.2858 37.9404 13.592C37.9389 13.6079 37.9389 13.6258 37.9399 13.6447C38.4496 13.3103 38.8626 12.6853 38.7333 12.0395C38.6905 11.8257 38.6549 11.6099 38.6055 11.3976C38.4828 10.87 38.6086 10.3961 38.944 9.987C39.1852 9.69269 39.4904 9.51851 39.7983 9.31459C40.1628 9.07324 40.4717 8.77285 40.7138 8.39855C40.8657 8.16381 40.8922 7.93943 40.77 7.68302C40.612 7.35177 40.4341 7.03369 40.2131 6.74345C39.7644 6.15434 39.4235 5.50834 39.2944 4.76074C39.2814 4.68567 39.2552 4.61087 39.2303 4.53928C39.0344 3.97513 38.9922 3.37583 39.0677 2.78341C39.1177 2.39065 39.0874 2.00133 39.0231 1.61291C38.9561 1.2077 38.6963 0.942426 38.3564 0.761373C38.196 0.675822 38.0417 0.741817 37.9516 0.897828C37.6935 1.34432 37.539 1.81397 37.5352 2.3394C37.5286 3.26703 37.4265 4.18144 37.1412 5.06385C37.0436 5.36546 36.896 5.60579 36.6506 5.7986C36.1332 6.20492 35.6974 6.69369 35.3455 7.26129C35.2064 7.48556 35.1486 7.72362 35.1463 7.98906C35.1438 8.27445 35.2038 8.54259 35.3214 8.79977C35.4266 9.02981 35.5422 9.25397 35.6356 9.48988C35.8175 9.94944 35.9698 10.3933 35.9447 10.9003C35.9234 11.331 35.7883 11.7194 35.6327 12.1138C35.444 12.5922 35.5109 13.0129 35.7662 13.446C35.8175 13.5331 35.8656 13.6254 35.9213 13.7104Z" fill="#C2C4C6"/>
<path fill-rule="evenodd" clip-rule="evenodd" d="M40.6386 14.1726C40.6276 14.1882 40.6184 14.2023 40.6147 14.2116C40.3844 14.8237 40.1452 15.4322 40.1098 16.0977C40.0563 17.103 39.5513 17.8522 38.6811 18.2763C38.4829 18.3729 38.3972 18.4888 38.3747 18.7161C38.3249 19.2186 38.3672 19.7139 38.4817 20.1999C38.8615 19.3568 39.3691 18.5948 39.9614 17.8991C40.1683 17.6561 40.4 17.4379 40.6068 17.1951C40.8356 16.9263 41.1156 16.7475 41.451 16.6652L41.5155 16.6492L41.576 16.678C42.3313 17.0375 42.7171 17.7191 42.4593 18.5717C42.398 18.7744 42.3043 18.9769 42.1791 19.1451C41.9157 19.4992 41.6409 19.8445 41.3473 20.1718C40.9486 20.6165 40.5463 21.058 40.2042 21.5531C39.6959 22.2889 39.5106 23.1513 39.3038 24.0123C39.5927 24.0142 39.8817 24.0186 40.1704 24.0096C40.3229 24.0048 40.4067 23.9279 40.4427 23.7741C40.4861 23.5885 40.5114 23.3986 40.5534 23.2125C40.6028 22.9939 40.6251 22.7772 40.7254 22.5735C41.2163 21.5755 42.0163 21.004 43.0879 20.9039C43.3003 20.884 43.4237 20.8051 43.5062 20.5979C43.5406 20.5117 43.5686 20.422 43.591 20.3316C43.6858 19.9499 43.7019 19.5576 43.6793 19.1655C43.6215 18.1578 43.8871 17.2755 44.6658 16.6343C44.9182 16.4265 45.1631 16.2089 45.4072 15.9905C45.7601 15.675 46.1129 15.3593 46.4582 15.0349C46.5911 14.91 46.7213 14.7631 46.743 14.5694C46.7796 14.2425 46.6757 13.985 46.4248 13.7855C46.1844 13.5943 45.933 13.5704 45.6555 13.6887C45.5371 13.7393 45.4266 13.8072 45.3066 13.8562C44.8611 14.0385 44.4219 14.2425 44.0326 14.5368C43.8971 14.6393 43.7559 14.7344 43.6049 14.8098C43.0678 15.0776 42.5125 15.143 41.965 14.8636C41.6686 14.7122 41.3828 14.5396 41.0997 14.363C40.9597 14.2758 40.8066 14.1666 40.6386 14.1726Z" fill="#C2C4C6"/>
<path fill-rule="evenodd" clip-rule="evenodd" d="M36.06 22.4914C35.9819 22.2482 35.9036 22.0051 35.8252 21.7621C35.6362 21.1768 35.4306 20.5974 35.2237 20.0187C35.1065 19.6912 34.9789 19.3675 34.8415 19.0486C34.5601 18.3962 34.1996 17.7853 33.8478 17.1728C33.4133 16.4163 32.9355 15.6871 32.3083 15.0889C32.2598 15.0427 32.2122 14.997 32.17 14.9444C31.5135 14.127 30.6644 13.5476 29.7928 13.0111C29.6787 12.9408 29.5824 12.8794 29.4593 12.8776C29.4218 12.9993 29.4704 13.1038 29.5599 13.2125C29.7712 13.4695 29.9897 13.73 30.2423 13.9438C31.0348 14.6143 31.7766 15.3514 32.3937 16.2022C33.0443 17.099 33.6296 18.044 34.2356 18.9735C34.5017 19.3816 34.776 19.7854 34.999 20.222C35.3534 20.9156 35.6799 21.6246 35.9942 22.339C36.0164 22.3897 36.0385 22.4404 36.06 22.4914Z" fill="#C2C4C6"/>
<path fill-rule="evenodd" clip-rule="evenodd" d="M38.0057 25.7682C38.1238 25.1553 38.2263 24.539 38.3711 23.9321C38.5058 23.3678 38.6822 22.8158 38.8616 22.2657C38.9513 21.9907 39.0772 21.7315 39.2063 21.4749C39.5751 20.7416 40.1063 20.1447 40.6608 19.5618C40.9452 19.2628 41.2021 18.9362 41.4597 18.6124C41.5774 18.4646 41.6155 18.276 41.6061 18.0875C41.5974 17.9103 41.5523 17.8116 41.4217 17.7486C41.2385 17.9308 41.0545 18.1122 40.8757 18.2993C40.2388 18.9656 39.7019 19.7133 39.3125 20.5648C39.1791 20.8563 39.0299 21.1399 38.901 21.4334C38.8275 21.6008 38.7767 21.78 38.7189 21.9537C38.6496 22.1622 38.5853 22.3723 38.5167 22.5809C38.4509 22.7803 38.3898 22.981 38.3121 23.1758C38.0616 23.8035 38.1392 24.5258 37.8721 25.1778C37.8726 25.1839 37.874 25.1909 37.8751 25.1957C37.9184 25.3875 37.9614 25.5795 38.0057 25.7682Z" fill="#C2C4C6"/>
<path fill-rule="evenodd" clip-rule="evenodd" d="M36.9068 19.9129C36.94 18.9848 36.9728 18.0567 36.9943 17.1283C37.0028 16.7585 37.0847 16.3591 36.9294 16.0098C36.8862 15.9127 36.9085 15.8187 36.9197 15.7193C36.9676 15.2961 37.0295 14.8746 37.0665 14.4502C37.1603 13.3769 37.2395 12.3022 37.3325 11.2288C37.3763 10.7246 37.4117 10.2187 37.5021 9.72058C37.5688 9.35303 37.5257 9.00078 37.4413 8.64294C37.4397 8.63849 37.4342 8.63059 37.4263 8.6206C37.3673 8.71856 37.3254 8.82166 37.2961 8.94139C37.1989 9.33901 37.1038 9.73732 37.0197 10.1382C36.9759 10.347 36.9429 10.5596 36.9304 10.7731C36.8951 11.3756 36.8756 11.979 36.8494 12.5819C36.8447 12.6873 36.8488 12.7924 36.8401 12.8979C36.8148 13.2075 36.7918 13.5173 36.7567 13.826C36.72 14.1484 36.6825 14.4754 36.7436 14.7974C36.7789 14.9837 36.7997 15.1799 36.7762 15.3691C36.7045 15.947 36.7241 16.5291 36.7579 17.109C36.766 17.2489 36.7405 17.3812 36.7356 17.5194C36.73 17.6813 36.7321 17.8433 36.726 18.0051C36.7023 18.6452 36.826 19.2774 36.9068 19.9129Z" fill="#C2C4C6"/>
<path fill-rule="evenodd" clip-rule="evenodd" d="M37.6468 22.5519C37.7323 22.4264 37.7956 22.3511 37.8402 22.264C37.991 21.9714 38.1004 21.6786 37.9216 21.3439C37.8562 21.2211 37.862 21.0581 37.8378 20.9124C37.7919 20.6362 37.7477 20.3602 37.6994 20.0849C37.6951 20.0621 37.6634 20.0448 37.6211 20.0019C37.5112 20.7818 37.5946 21.5452 37.5741 22.3053C37.5726 22.3691 37.6111 22.4341 37.6468 22.5519ZM35.3428 28.1104C35.4706 28.1784 35.5391 28.3172 35.5116 28.4407C35.476 28.6062 35.2953 28.7141 35.1044 28.6628C34.8695 28.6005 34.6355 28.529 34.4093 28.4396C34.393 28.433 34.3775 28.424 34.3627 28.4131C34.2482 28.4623 34.1349 28.515 34.0229 28.5684C33.9365 28.6097 33.86 28.6633 33.7921 28.7289L33.7974 28.7305C34.364 28.9054 34.9299 29.0797 35.4958 29.2583C35.5764 29.2833 35.6514 29.3288 35.757 29.3776C35.7496 29.4931 35.742 29.6034 35.7369 29.682C35.6876 29.7185 35.6767 29.7299 35.6636 29.7338C35.6366 29.7433 35.6065 29.7551 35.5795 29.7507C34.8656 29.6534 34.2104 29.3479 33.5337 29.1162C33.4565 29.2809 33.3942 29.4498 33.335 29.6198C33.3459 29.6241 33.3567 29.6288 33.3671 29.6341C33.7839 29.8447 34.2043 30.0428 34.6614 30.1377C34.7174 30.1489 34.7723 30.1742 34.8223 30.2026C34.9392 30.2702 34.9823 30.3823 34.9452 30.5101C34.9052 30.6476 34.795 30.6739 34.667 30.658C34.3954 30.6235 33.6383 30.299 33.1922 30.0298C33.1242 30.2287 33.1035 30.4301 33.1002 30.6313C33.5188 30.6037 33.8922 30.8121 34.2035 31.2421C34.1706 31.2798 34.1389 31.3483 34.0982 31.3553C34.0015 31.3716 33.8958 31.3781 33.8029 31.3508C33.5975 31.2895 33.3979 31.2074 33.1965 31.1314C33.1645 31.1197 33.1359 31.1061 33.1105 31.0906C33.1272 31.3698 33.2287 31.6386 33.4187 31.8611C33.5219 31.9817 33.602 32.1229 33.7016 32.2478C33.8509 32.4362 34.0069 32.614 34.1774 32.7716C33.8677 32.7732 33.5581 32.7757 33.2484 32.779C33.1395 32.6417 33.0347 32.5019 32.9444 32.3527C32.7174 31.9785 32.5316 31.5787 32.5193 31.1156C32.5161 30.9855 32.48 30.8512 32.4337 30.7286C32.257 30.2643 32.3315 29.7962 32.4038 29.3299C32.415 29.2573 32.4387 29.1852 32.473 29.121C32.8355 28.4295 33.2628 27.7888 33.8935 27.3331C34.0398 27.2283 34.227 27.1762 34.4015 27.1214C34.9665 26.9461 35.5484 26.9737 36.128 26.9789C36.2928 26.9807 36.4579 26.9644 36.6191 26.9576C36.6422 25.9933 35.0836 21.52 34.2653 20.3772C34.0141 20.348 33.7637 20.31 33.5119 20.2915C33.0393 20.2571 32.6469 20.1005 32.3414 19.6827C32.1449 19.4122 31.9396 19.153 31.7912 18.8487C31.721 18.7042 31.6348 18.5684 31.5512 18.4315C31.3466 18.0984 31.0615 17.9555 30.6818 18.0341C30.418 18.0894 30.1521 18.1321 29.8882 18.1825C29.3366 18.2882 28.7536 17.9706 28.5347 17.4305C28.4577 17.2418 28.4101 17.0389 28.3516 16.8412C28.248 16.4895 28.1663 16.1276 28.0401 15.7838C27.692 14.8392 27.0627 14.1325 26.2529 13.5982C25.7807 13.2876 25.3766 12.9042 24.9997 12.4782C24.7277 12.1705 24.5823 11.8185 24.5214 11.4135C24.488 11.1954 24.4502 10.9756 24.3923 10.7641C24.2042 10.0806 24.3773 9.4857 24.7675 8.91737C25.2582 8.77443 25.7527 8.7473 26.2209 8.95842C26.725 9.18752 27.2038 9.47628 27.6971 9.73385C27.9492 9.86655 28.1998 10.0041 28.4625 10.1115C29.1226 10.3819 29.7766 10.2687 30.4059 10.0017C30.8101 9.8292 31.1945 9.80194 31.5956 9.9769C31.6862 10.0158 31.7827 10.0444 31.8784 10.0703C32.5357 10.2507 32.9003 10.7321 33.0765 11.3802C33.1839 11.7757 33.2435 12.1859 33.3251 12.5893C33.3577 12.7484 33.3925 12.9066 33.4242 13.0662C33.4876 13.3843 33.6816 13.582 33.9583 13.7053C34.2189 13.821 34.4826 13.9283 34.7371 14.0569C35.3913 14.3857 35.764 14.9122 35.7692 15.6923C35.7739 16.3897 35.6652 17.0756 35.5219 17.7507C35.4125 18.2628 35.4292 18.7409 35.6283 19.2201C35.792 19.6126 35.9419 20.012 36.1015 20.4065C36.1213 20.4554 36.1631 20.4937 36.239 20.5987C36.3134 19.9622 36.0992 19.4248 36.1049 18.871C36.1106 18.2951 36.1182 17.7197 36.1157 17.1443C36.1134 16.5839 36.1 16.0226 36.0918 15.4888C35.7333 14.805 35.2678 14.2075 34.9782 13.4989C34.7812 13.015 34.7278 12.5361 34.9216 12.0375C35.0121 11.8041 35.0757 11.5616 35.1624 11.3268C35.2806 11.0094 35.2867 10.6899 35.1749 10.3749C35.0281 9.95884 34.8698 9.54853 34.7112 9.13827C34.4341 8.42257 34.3818 7.71651 34.7261 7.00099C35.0387 6.35255 35.4963 5.83254 36.032 5.39387C36.3915 5.10067 36.5784 4.74843 36.6673 4.2898C36.7874 3.66424 36.8791 3.03975 36.9074 2.4024C36.9172 2.18205 36.9603 1.96305 36.9726 1.74249C37.0023 1.21162 37.2858 0.79527 37.5514 0.383355C37.8104 -0.0218722 38.4103 -0.116499 38.7956 0.150596C38.9944 0.289602 39.1793 0.452723 39.358 0.620471C39.6717 0.911897 39.6957 1.3243 39.7317 1.7185C39.7623 2.05469 39.743 2.39719 39.7511 2.73542C39.7582 3.06025 39.7564 3.38629 39.7874 3.70791C39.8098 3.9406 39.8571 4.17668 39.9316 4.39684C40.0599 4.77203 40.1933 5.14965 40.3713 5.50058C40.5561 5.86434 40.7842 6.20634 41.0158 6.54009C41.2426 6.86846 41.3981 7.22643 41.5317 7.60195C41.626 7.86926 41.605 8.11531 41.5036 8.37471C41.298 8.90198 40.9166 9.275 40.5084 9.61882C40.2357 9.85025 39.9351 10.0465 39.6476 10.2608C39.3215 10.5042 39.2232 10.8294 39.3181 11.2331C39.3694 11.4472 39.4019 11.6664 39.4395 11.8855C39.5772 12.6826 39.342 13.3392 38.7565 13.8657C38.5531 14.0486 38.3563 14.2399 38.1543 14.4246C37.8456 14.706 37.7231 15.0813 37.6996 15.4887C37.6557 16.2837 37.6286 17.081 37.5997 17.8768C37.5928 18.0671 37.608 18.2572 37.664 18.4586C37.7013 18.383 37.7379 18.3072 37.7738 18.2311C37.9147 17.9289 38.1146 17.7144 38.4321 17.5866C38.9535 17.3744 39.2619 16.9439 39.3921 16.3764C39.4214 16.2469 39.4608 16.1159 39.4649 15.9862C39.4831 15.3057 39.7294 14.6917 39.963 14.0738C39.9887 14.0051 40.0133 13.9354 40.0447 13.8688C40.2514 13.4371 40.4075 13.3671 40.8587 13.4715C41.1244 13.5347 41.3598 13.6473 41.5917 13.7987C41.8522 13.9709 42.1374 14.1101 42.4264 14.2241C42.7143 14.3366 43.0114 14.3048 43.2886 14.1501C43.8865 13.8171 44.4816 13.4797 45.083 13.1533C45.2811 13.0461 45.488 12.9358 45.7031 12.8884C46.618 12.6881 47.4283 13.3884 47.4439 14.3682C47.4514 14.8013 47.3316 15.1791 47.0467 15.5014C46.68 15.9167 46.2613 16.2677 45.8136 16.5812C45.3614 16.8966 44.9743 17.2883 44.6533 17.7373C44.3937 18.1 44.3377 18.5489 44.3541 19.0015C44.3644 19.2962 44.4078 19.5943 44.3745 19.8834C44.331 20.261 44.2453 20.6394 44.1415 21.0051C44.0284 21.4021 43.7932 21.6938 43.3506 21.6655C42.8721 21.6353 42.4789 21.8414 42.092 22.0928C41.6335 22.3917 41.3349 22.8 41.2791 23.3712C41.2486 23.6826 41.1881 23.981 41.0516 24.2629C40.8685 24.6405 40.5644 24.8255 40.1723 24.8623C39.7943 24.8978 39.415 24.921 38.9757 24.9534C38.7114 25.6209 38.7003 26.2922 38.6521 26.9304C38.8079 27.1116 38.9805 27.1168 39.148 27.139C39.9925 27.2513 40.825 27.4286 41.5924 27.823C42.1509 28.1111 42.5781 28.5603 42.8107 29.1822C42.9085 29.4425 43.0057 29.7052 43.0861 29.9721C43.2444 30.5027 43.2829 31.0517 43.203 31.5941C43.1431 31.9985 43.0167 32.3962 42.8871 32.7848C42.8684 32.8412 42.8442 32.8984 42.8153 32.9539C42.5735 32.9426 42.3317 32.9314 42.0899 32.9211C42.1221 32.8949 42.154 32.8678 42.1853 32.8398C42.2889 32.7479 42.3986 32.6271 42.4372 32.4974C42.5845 32.0056 42.7381 31.5117 42.696 30.9819C42.6531 30.4324 42.4427 29.9274 42.314 29.4C42.3038 29.3583 42.2766 29.3205 42.2526 29.2845C41.9816 28.86 41.6899 28.4856 41.1436 28.4269C40.8093 28.3899 40.4788 28.2859 40.154 28.1876C38.9728 27.8266 37.7784 27.7089 36.5539 27.892C36.1475 27.9526 35.7428 28.0206 35.3428 28.1103V28.1104ZM36.9048 21.5093L36.9623 21.5034C36.9816 21.1364 37.0054 20.7695 37.0188 20.4047C37.0572 19.3123 37.0983 18.2226 37.1237 17.1315C37.1328 16.7388 37.2176 16.3373 37.0468 15.9529C37.0202 15.8932 37.0399 15.8076 37.0482 15.7352C37.096 15.3109 37.1587 14.887 37.1954 14.4624C37.2895 13.3888 37.369 12.3143 37.4614 11.241C37.5054 10.7413 37.5396 10.2382 37.6292 9.74578C37.7002 9.35313 37.6541 8.98266 37.5666 8.60935C37.5502 8.54237 37.4776 8.48813 37.4152 8.40675C37.2802 8.57843 37.2128 8.73756 37.1707 8.90792C37.0735 9.30766 36.9779 9.70683 36.8933 10.1093C36.8484 10.3245 36.8144 10.5445 36.8011 10.7649C36.7663 11.368 36.746 11.9727 36.72 12.5758C36.7152 12.6799 36.7201 12.7826 36.7112 12.8863C36.6864 13.1948 36.6628 13.5028 36.6281 13.8101C36.5894 14.148 36.5517 14.4834 36.6167 14.8236C36.649 14.9958 36.6692 15.1793 36.6478 15.3517C36.5748 15.9408 36.5939 16.5278 36.6286 17.1172C36.6358 17.2484 36.6108 17.3824 36.6062 17.5145C36.6005 17.6765 36.6021 17.8392 36.5966 17.9998C36.5628 18.8912 36.8109 19.7543 36.8403 20.6391C36.8498 20.9301 36.8829 21.2187 36.9048 21.5093H36.9048ZM41.3738 17.5161C41.1608 17.7288 40.9455 17.9388 40.7383 18.1559C40.0848 18.8391 39.5369 19.603 39.1372 20.4773C39.0032 20.7697 38.854 21.0552 38.7246 21.349C38.649 21.5223 38.5953 21.707 38.5355 21.8871C38.4659 22.0957 38.402 22.3065 38.3331 22.515C38.2693 22.7093 38.2092 22.9068 38.1329 23.0977C37.8757 23.7425 37.9568 24.4683 37.6883 25.111C37.6724 25.1485 37.6762 25.2006 37.6861 25.2422C37.757 25.5587 37.8282 25.8734 37.9088 26.1875C37.9245 26.2468 37.9822 26.2957 38.0336 26.3693C38.1577 26.2251 38.1445 26.0706 38.1721 25.9311C38.2996 25.2811 38.4055 24.6246 38.5595 23.9811C38.6924 23.4228 38.8682 22.8756 39.0454 22.3311C39.1317 22.0677 39.254 21.816 39.3783 21.5691C39.7377 20.8544 40.2584 20.2735 40.7986 19.7047C41.0868 19.4026 41.3472 19.0708 41.6091 18.7421C41.7587 18.5536 41.8119 18.3173 41.8001 18.077C41.7878 17.8293 41.71 17.6133 41.3738 17.5161ZM29.3322 12.6874C29.182 12.9396 29.2619 13.1605 29.4126 13.3446C29.633 13.6118 29.8597 13.8813 30.1202 14.1014C30.9035 14.7645 31.6326 15.4876 32.2391 16.3246C32.887 17.2168 33.4705 18.1613 34.075 19.0876C34.3372 19.4904 34.6088 19.8904 34.8277 20.3173C35.1798 21.0081 35.5058 21.7124 35.8178 22.4237C36.2555 23.4168 36.5547 24.4641 36.8699 25.5054C36.9643 25.8141 37.0691 26.12 37.182 26.4221C37.2052 26.4855 37.2825 26.5264 37.3352 26.5768C37.3599 26.5639 37.3847 26.5509 37.4104 26.5378C37.3167 26.0995 37.2475 25.6507 37.1187 25.2239C36.7644 24.0434 36.3871 22.8697 36.0091 21.6973C35.8191 21.1099 35.6132 20.529 35.4056 19.9478C35.2869 19.6166 35.1583 19.2873 35.0184 18.9654C34.7341 18.3038 34.3703 17.6885 34.0143 17.0685C33.5687 16.2931 33.0831 15.5527 32.4393 14.9391C32.3974 14.8987 32.3553 14.8591 32.3187 14.8141C31.6446 13.9743 30.7827 13.3858 29.8915 12.8364C29.7348 12.7409 29.5728 12.6382 29.3322 12.6874ZM39.1344 24.2185C39.4775 24.2189 39.8286 24.2269 40.1787 24.2163C40.4162 24.2086 40.5767 24.0719 40.6338 23.8263C40.6776 23.6405 40.7029 23.45 40.7449 23.2633C40.7902 23.0636 40.8134 22.8484 40.9005 22.6702C41.3616 21.7342 42.1024 21.2025 43.1077 21.11C43.4024 21.0809 43.5815 20.9482 43.688 20.6799C43.726 20.5857 43.7565 20.4857 43.7814 20.3867C43.8811 19.9837 43.8997 19.5755 43.8756 19.1574C43.8222 18.2264 44.0532 17.4036 44.7884 16.7977C45.0431 16.5885 45.29 16.3684 45.536 16.1486C45.89 15.8317 46.2441 15.5159 46.5905 15.1897C46.7603 15.0308 46.9103 14.8474 46.9382 14.5971C46.9828 14.1994 46.851 13.8715 46.5448 13.6283C46.2496 13.3932 45.9257 13.3591 45.5846 13.5052C45.4663 13.5551 45.3557 13.6236 45.2383 13.6716C44.7761 13.8608 44.3261 14.0708 43.9211 14.3767C43.7954 14.4721 43.6633 14.5608 43.5235 14.6309C43.0429 14.8703 42.5479 14.938 42.0527 14.6855C41.7618 14.5367 41.4801 14.3667 41.2016 14.193C40.9945 14.0638 40.795 13.9296 40.5357 13.9865C40.4976 14.0454 40.4562 14.0899 40.4364 14.1415C40.1995 14.7721 39.9553 15.3929 39.9184 16.0906C39.8688 17.0185 39.4094 17.7035 38.6015 18.0966C38.3333 18.228 38.2131 18.4095 38.184 18.6994C38.1253 19.2957 38.1885 19.8783 38.3465 20.4514C38.3628 20.5112 38.4088 20.5618 38.4643 20.6559C38.5379 20.5241 38.593 20.4421 38.6324 20.3518C39.0087 19.4992 39.5138 18.7369 40.1089 18.038C40.3153 17.7959 40.5476 17.5767 40.7543 17.334C40.9594 17.0932 41.2051 16.9385 41.4978 16.8666C42.205 17.2033 42.4919 17.8007 42.2766 18.5147C42.2219 18.6941 42.139 18.8768 42.0282 19.0248C41.7692 19.3737 41.4975 19.7141 41.208 20.0373C40.8036 20.4879 40.3997 20.9302 40.0493 21.4385C39.4902 22.2466 39.3106 23.1789 39.0848 24.1041C39.0817 24.1162 39.0956 24.1302 39.1344 24.2185ZM36.0177 14.0883C36.1337 13.7656 36.232 12.9584 36.2439 12.601C36.2682 11.8796 36.3104 11.1581 36.348 10.437C36.3529 10.3494 36.3722 10.2617 36.3894 10.1746C36.453 9.85692 36.5011 9.53364 36.5864 9.22227C36.6943 8.82608 36.8185 8.43307 36.9614 8.04957C37.0625 7.77948 37.2361 7.56563 37.5447 7.55134C37.7984 7.72856 37.9071 7.85743 37.9846 8.12386C38.129 8.62221 38.1969 9.13141 38.1433 9.65358C38.0087 10.9588 37.8724 12.2644 37.7427 13.5712C37.7324 13.6809 37.7639 13.7938 37.7746 13.9012C37.8375 13.9039 37.8704 13.915 37.8922 13.9039C38.4951 13.578 39.085 12.828 38.9187 11.998C38.8753 11.7812 38.8393 11.5639 38.7896 11.3498C38.6809 10.8829 38.7931 10.4769 39.087 10.119C39.3115 9.84446 39.6115 9.67525 39.8978 9.48594C40.2847 9.22947 40.6123 8.91085 40.8703 8.51211C41.0612 8.21682 41.0934 7.91665 40.9393 7.59271C40.7747 7.24823 40.5921 6.92029 40.3605 6.61735C39.9344 6.05662 39.6048 5.44131 39.481 4.72484C39.466 4.63802 39.4372 4.55382 39.4083 4.47022C39.221 3.93092 39.1844 3.36979 39.2557 2.81023C39.3089 2.39167 39.2773 1.98412 39.21 1.57846C39.1321 1.10715 38.8339 0.790861 38.4401 0.580775C38.1904 0.447911 37.9249 0.543704 37.7808 0.793121C37.506 1.26826 37.3408 1.76972 37.3365 2.33792C37.3303 3.24149 37.2323 4.13291 36.9527 4.99908C36.8666 5.26363 36.7421 5.4694 36.5294 5.63667C35.9941 6.05695 35.5438 6.56116 35.1781 7.15116C35.0164 7.4116 34.9504 7.6859 34.9476 7.98735C34.9452 8.30376 35.0113 8.60166 35.1417 8.88725C35.2455 9.11363 35.3594 9.33496 35.4516 9.56748C35.6189 9.9901 35.7701 10.4099 35.7463 10.8899C35.7261 11.3015 35.5921 11.6738 35.4488 12.0366C35.2325 12.5851 35.313 13.0722 35.5964 13.5523C35.6631 13.6662 35.7239 13.784 35.8012 13.8895C35.85 13.9556 35.9229 14.0023 36.0177 14.0883ZM34.9249 17.633C34.9812 17.5696 35.0369 17.5328 35.0491 17.4863C35.1949 16.913 35.3129 16.3334 35.2907 15.7397C35.282 15.5107 35.2696 15.258 35.1103 15.0683C34.8966 14.8131 34.6867 14.5509 34.3562 14.4444C34.1678 14.3828 33.9865 14.2992 33.8007 14.2289C33.4218 14.0862 33.1276 13.8537 33.0171 13.4269C32.9615 13.2135 32.9074 12.9986 32.8651 12.7832C32.7891 12.3924 32.7286 12.0001 32.6512 11.6105C32.4544 10.6177 31.3619 10.1136 30.5642 10.4791C30.4479 10.5335 30.3255 10.5724 30.2054 10.6157C29.2914 10.9537 28.428 10.8282 27.6035 10.3138C27.227 10.0789 26.8474 9.85076 26.4596 9.63663C26.1717 9.47706 25.8682 9.35674 25.5362 9.33297C25.1079 9.29973 24.9165 9.41274 24.7668 9.96567C24.7445 10.0466 24.7508 10.1434 24.7675 10.2278C24.8591 10.7057 24.9374 11.1863 25.0647 11.6535C25.1195 11.8555 25.2628 12.0423 25.399 12.2059C25.7443 12.622 26.1654 12.946 26.6133 13.2311C27.0533 13.5106 27.4255 13.8706 27.7555 14.2787C28.1445 14.7603 28.393 15.3237 28.587 15.9119C28.7109 16.2886 28.8042 16.6763 28.9046 17.06C28.9568 17.2571 29.0704 17.3996 29.2233 17.5161C29.4174 17.6647 29.6362 17.6973 29.869 17.6507C30.1743 17.5891 30.4814 17.5363 30.7841 17.4637C31.0697 17.3946 31.3168 17.4767 31.547 17.6406C31.771 17.8008 31.953 17.9969 32.0755 18.2604C32.2054 18.5372 32.3582 18.8066 32.5226 19.0634C32.6307 19.2343 32.7604 19.3993 32.9099 19.529C33.1722 19.7568 33.4659 19.7533 33.7986 19.5886C33.7256 19.4445 33.6769 19.3233 33.6073 19.2166C33.0914 18.4233 32.5804 17.6261 32.0513 16.8419C31.4044 15.882 30.6196 15.0572 29.751 14.3127C29.4705 14.0732 29.241 13.7632 29.0162 13.4622C28.9171 13.3301 28.8674 13.1452 28.8319 12.9759C28.7755 12.7047 28.893 12.4782 29.0851 12.3087C29.2739 12.1409 29.4827 12.2073 29.6814 12.3122L29.7193 12.3326C30.1005 12.5559 30.4971 12.7558 30.8582 13.0115C31.3591 13.3657 31.8328 13.7623 32.3183 14.1416C32.3407 14.1594 32.3575 14.1847 32.3767 14.2064C32.6856 14.5518 33.0027 14.8894 33.302 15.2433C33.5062 15.4867 33.7007 15.7419 33.8747 16.0099C34.1601 16.4485 34.424 16.9043 34.7011 17.3495C34.7609 17.4451 34.84 17.5269 34.9248 17.633H34.9249Z" fill="black"/>
<path fill-rule="evenodd" clip-rule="evenodd" d="M65.1632 19.972C65.3904 19.5699 65.6176 19.1677 65.8437 18.765C66.1021 18.3045 66.3716 17.8506 66.6103 17.3784C66.6911 17.2183 66.7775 17.0703 66.934 16.9813C67.0353 16.9239 67.1241 16.8513 67.2199 16.7856C67.6111 16.517 68.0359 16.3382 68.4941 16.2393C68.6086 16.2146 68.7197 16.2379 68.8197 16.2996C69.0007 16.4116 69.1914 16.7178 69.0993 16.9371C69.0202 17.1255 68.9499 17.3328 68.8223 17.4924C68.5418 17.8434 68.246 18.1873 67.8617 18.4167C67.783 18.4637 67.707 18.5251 67.661 18.6084C67.5751 18.764 67.4477 18.8284 67.2835 18.8626C67.1567 18.889 67.0526 18.9519 66.939 19.011C66.4831 19.2484 66.0247 19.4811 65.5747 19.7307C65.4358 19.8078 65.299 19.889 65.1632 19.972Z" fill="#C2C4C6"/>
<path fill-rule="evenodd" clip-rule="evenodd" d="M62.1903 19.6116C62.0668 19.1408 62.066 18.6076 62.1532 18.1541C62.3199 17.2881 62.4755 16.4198 62.6553 15.5566C62.8031 14.8467 63.0513 14.1799 63.4695 13.5941C63.6146 13.3908 63.7918 13.2691 64.0216 13.1928C64.0868 13.1712 64.1509 13.1664 64.1982 13.2249C64.2703 13.314 64.3837 13.4445 64.4129 13.557C64.4676 13.7679 64.4944 13.9934 64.4877 14.2119C64.4764 14.5887 64.4746 14.9706 64.3929 15.3398C64.352 15.5241 64.293 15.6804 64.17 15.8219C63.765 16.288 63.4175 16.8022 63.1011 17.3369C63.0376 17.4443 63.0035 17.5574 62.9569 17.672C62.8342 17.9737 62.7113 18.2754 62.5906 18.5779C62.4497 18.9313 62.285 19.2586 62.1903 19.6116Z" fill="#C2C4C6"/>
<path fill-rule="evenodd" clip-rule="evenodd" d="M66.2349 15.5487C66.2369 15.566 66.2379 15.5825 66.2364 15.5956C66.2087 15.8617 66.1631 16.1251 66.1447 16.3924C66.1229 16.7102 66.0216 16.9945 65.8584 17.2621C65.7258 17.4792 65.5859 17.6913 65.4688 17.9184C65.0833 18.6662 64.6921 19.4163 64.203 20.0971C63.9043 20.5128 63.7038 21.0212 63.3595 21.3952C63.2753 21.4868 63.2353 21.6239 63.2239 21.748C63.1899 22.121 63.5226 22.3632 63.8409 22.178C63.999 22.086 64.1372 21.9665 64.2769 21.8477C64.6606 21.521 65.0348 21.1819 65.4243 20.8625C65.5756 20.7383 65.7473 20.6385 65.9198 20.5504C66.4521 20.2785 66.9908 20.0205 67.5262 19.7553C67.7434 19.6477 68.1042 19.616 68.3767 19.6523C68.3611 19.7517 68.3166 19.8385 68.2444 19.9211C67.699 20.5447 67.0618 21.046 66.3306 21.4087C65.6744 21.7342 65.0193 22.0622 64.3636 22.3889C64.1693 22.4858 64.0521 22.595 64.012 22.8314L63.9993 22.906L64.0404 22.9685C64.0982 23.0562 64.1562 23.1438 64.2135 23.2319L64.2795 23.3331L64.3944 23.3094C64.4852 23.2907 64.5779 23.2846 64.6649 23.2488C64.9627 23.1263 65.2808 23.1143 65.5969 23.1208C65.7196 23.1234 65.8228 23.1442 65.9142 23.2157C65.9126 23.2234 65.9112 23.2296 65.9098 23.2333C65.7676 23.4153 65.5931 23.5704 65.3825 23.6583C65.1995 23.7347 65.0084 23.7908 64.8168 23.8387C64.6966 23.8688 64.5935 23.8546 64.4979 23.7682C64.3822 23.6638 64.2537 23.5812 64.1282 23.4912C63.6113 23.1204 63.0305 22.9003 62.448 22.6719C62.2385 22.5898 62.0209 22.5493 61.807 22.485C61.6108 22.426 61.3835 22.425 61.2028 22.3215C61.1825 22.2181 61.1622 22.1146 61.1421 22.0112C61.0602 21.5901 60.9819 21.1682 60.8972 20.7477C60.8399 20.4635 60.771 20.182 60.7139 19.8978C60.6711 19.6845 60.6521 19.4679 60.6003 19.256C60.4342 18.5749 60.5941 17.95 60.9142 17.3491C60.9218 17.3349 60.9366 17.318 60.9541 17.3005C60.9887 17.3316 61 17.3814 61.0143 17.4386C61.0948 17.7626 61.1719 18.0884 61.2245 18.4187C61.2853 18.8001 61.2718 19.1853 61.3697 19.5628C61.5337 20.195 61.6381 20.8346 61.613 21.4916C61.6085 21.6099 61.6369 21.7256 61.6503 21.8424L61.6696 22.0101L61.8312 22.0053C61.9385 22.0022 62.0458 21.9992 62.1531 21.9964L62.2534 21.9939L62.3029 21.9028C62.3335 21.8465 62.3677 21.7907 62.3943 21.7323C62.6287 21.2156 62.79 20.6707 62.9118 20.1143C62.9523 19.9291 63.0238 19.7498 63.0929 19.5746C63.2727 19.119 63.4608 18.6671 63.6421 18.2122C63.76 17.9163 63.875 17.6055 64.0682 17.3523C64.2713 17.086 64.4735 16.8189 64.6799 16.5553C64.9232 16.2446 65.232 16.0011 65.5466 15.7749C65.6895 15.6721 65.87 15.6089 66.0327 15.5478C66.1078 15.5195 66.1717 15.5143 66.2348 15.5487H66.2349Z" fill="#C2C4C6"/>
<path fill-rule="evenodd" clip-rule="evenodd" d="M64.6638 20.4974C65.02 19.8671 65.3575 19.2703 65.6941 18.6717C65.9508 18.2134 66.2197 17.7613 66.4568 17.2923C66.557 17.0939 66.6628 16.9272 66.8527 16.8191C66.9482 16.7652 67.0346 16.6941 67.1259 16.6313C67.5356 16.3503 67.9791 16.1624 68.4615 16.0585C69.007 15.9406 69.4317 16.6129 69.2648 17.0117C69.177 17.2198 69.1053 17.4309 68.9615 17.6114C68.6655 17.9813 68.3587 18.3352 67.9529 18.5776C67.9018 18.608 67.8459 18.6496 67.8177 18.7011C67.7052 18.9044 67.5363 18.9994 67.3215 19.0443C67.2168 19.066 67.1184 19.1267 67.0213 19.1769C66.5668 19.4139 66.1096 19.6456 65.661 19.8944C65.3319 20.0769 65.016 20.2838 64.6638 20.4974ZM61.9797 18.1177C62.1448 17.2503 62.3026 16.3811 62.4823 15.5173C62.6352 14.7839 62.892 14.0939 63.3276 13.4835C63.4973 13.2459 63.7068 13.1033 63.968 13.0165C64.1088 12.97 64.241 12.9907 64.3337 13.1056C64.4327 13.2279 64.5452 13.3612 64.584 13.5086C64.6427 13.7367 64.6715 13.9818 64.6649 14.2178C64.6526 14.6059 64.6507 14.9953 64.5656 15.3815C64.5166 15.6011 64.4437 15.782 64.3013 15.9463C63.9024 16.405 63.5627 16.9096 63.2519 17.4342C63.1956 17.5301 63.1623 17.6405 63.12 17.7444C62.9975 18.0456 62.8749 18.347 62.7542 18.6491C62.5783 19.0906 62.3502 19.5123 62.2957 19.9998C62.2899 20.0521 62.2438 20.0998 62.2098 20.1633C61.7907 19.3568 61.9259 18.3878 61.9797 18.1177ZM68.5554 19.4308C68.5738 19.6388 68.5139 19.818 68.3739 19.9776C67.8122 20.6203 67.159 21.134 66.4053 21.5076C65.7485 21.8336 65.0932 22.1613 64.4386 22.4878C64.3275 22.5429 64.2181 22.6002 64.185 22.7955C64.2305 22.8645 64.2953 22.9624 64.3587 23.0597C64.4592 23.039 64.5336 23.0359 64.5986 23.0085C64.9222 22.876 65.2585 22.8607 65.599 22.8677C65.7856 22.8715 65.9573 22.915 66.1044 23.0798C66.0869 23.1452 66.0856 23.2303 66.0458 23.2821C65.8835 23.4889 65.6856 23.6621 65.447 23.7619C65.2563 23.8413 65.0565 23.9 64.8568 23.9505C64.6867 23.9926 64.5239 23.9697 64.3807 23.84C64.271 23.7413 64.1464 23.6612 64.0265 23.5755C63.5223 23.2134 62.9509 22.9994 62.3843 22.777C62.1818 22.698 61.9651 22.6569 61.7566 22.5947C61.5268 22.5251 61.2728 22.5389 61.0431 22.3675C61.0199 22.2494 60.9927 22.1149 60.9671 21.9798C60.8849 21.5596 60.8069 21.138 60.7225 20.7176C60.665 20.434 60.596 20.1519 60.5392 19.8676C60.4967 19.6575 60.4774 19.4412 60.4273 19.2335C60.2478 18.5001 60.4171 17.8309 60.7581 17.1909C60.7957 17.1201 60.8676 17.0691 60.9141 17.0194C61.1027 17.0523 61.1522 17.1929 61.1844 17.324C61.2664 17.6528 61.3446 17.9852 61.398 18.3202C61.4574 18.6936 61.4456 19.0846 61.5394 19.4463C61.7089 20.0993 61.8147 20.7531 61.7887 21.4307C61.7852 21.5264 61.81 21.6231 61.8249 21.7522C61.9523 21.7485 62.0551 21.7456 62.1475 21.7433C62.1865 21.6716 62.2127 21.6304 62.2328 21.5848C62.4624 21.0802 62.6178 20.5498 62.7377 20.005C62.7798 19.8099 62.8539 19.6216 62.9278 19.4359C63.1071 18.9797 63.2957 18.5289 63.4772 18.0729C63.6032 17.7573 63.7216 17.439 63.9283 17.1689C64.1321 16.901 64.3354 16.6336 64.5415 16.37C64.7976 16.0434 65.1166 15.7898 65.4448 15.5544C65.6013 15.4411 65.7906 15.3736 65.9714 15.3056C66.1107 15.2533 66.2577 15.2511 66.3971 15.3744C66.4024 15.4243 66.4176 15.4875 66.4112 15.5474C66.3838 15.8117 66.3382 16.074 66.3201 16.3375C66.296 16.6878 66.1853 17.0011 66.0064 17.2933C65.8767 17.5069 65.7375 17.7163 65.6234 17.9379C65.233 18.6949 64.839 19.4508 64.3433 20.14C64.0382 20.5654 63.8436 21.067 63.486 21.4553C63.4328 21.5133 63.406 21.614 63.399 21.6974C63.3775 21.9262 63.5622 22.0598 63.7533 21.9483C63.9007 21.8628 64.033 21.7472 64.1636 21.6361C64.548 21.3088 64.9228 20.9694 65.3135 20.6488C65.4738 20.5174 65.6566 20.4103 65.8406 20.316C66.3738 20.044 66.9123 19.7856 67.4489 19.52C67.7188 19.386 68.2111 19.3415 68.5554 19.4308ZM54.4786 33.9145C54.5259 33.679 54.5749 33.4438 54.62 33.2078C54.8124 32.1902 54.9984 31.1713 55.1958 30.1559C55.2946 29.6484 55.4134 29.1463 55.5191 28.6627C55.5689 28.635 55.5886 28.6176 55.6109 28.6126C55.658 28.6037 55.7068 28.5951 55.7547 28.5964C56.5188 28.6137 57.2337 28.8526 57.9281 29.1531C58.4194 29.3653 58.8752 29.6623 59.3837 29.8399C59.4931 29.8783 59.6014 29.9544 59.6845 30.0414C59.8321 30.1969 59.9894 30.2245 60.1727 30.1536C60.2488 29.7895 60.2037 29.6747 59.9322 29.5232C59.8794 29.4933 59.8262 29.4577 59.7681 29.4421C59.2013 29.2838 58.7095 28.9461 58.1686 28.724C57.4593 28.4327 56.7584 28.1119 55.9732 28.1176C55.8791 28.1177 55.7745 28.1229 55.708 27.9888C55.7626 27.7009 55.7805 27.3812 56.0313 27.1517C56.0854 27.1031 56.147 27.0345 56.1553 26.9683C56.1893 26.6715 56.3725 26.4313 56.4308 26.1498C56.4836 25.8932 56.6138 25.6833 56.7336 25.4652C56.8359 25.2788 56.9652 25.1071 57.057 24.9164C57.3811 24.2401 57.9069 23.7557 58.4512 23.2895C58.6898 23.0861 58.967 22.9573 59.2768 22.927C59.5786 22.8978 59.8806 22.854 60.1816 22.8591C60.8755 22.8726 61.5546 22.982 62.2058 23.2497C62.6667 23.4394 63.1467 23.5791 63.5829 23.8377C64.0536 24.1178 64.4539 24.4841 64.7682 24.9356C65.0153 25.2919 65.2174 25.679 65.3664 26.1018C65.5684 26.6774 65.5671 27.2399 65.3961 27.8089C65.2344 28.3511 65.0643 28.8923 64.8709 29.4227C64.6819 29.9415 64.4887 30.4634 64.2431 30.9542C63.9913 31.4565 63.6837 31.9296 63.3823 32.4042C63.109 32.8357 62.8115 33.2518 62.5255 33.6753C62.3296 33.964 62.1322 34.2506 61.9427 34.5439C61.8595 34.6729 61.7731 34.8009 61.6902 34.9309C61.865 34.9601 62.0396 34.9896 62.2143 35.0194C62.4121 34.7039 62.6307 34.4004 62.8378 34.091C63.2108 33.5313 63.6041 32.984 63.9641 32.4163C64.4742 31.6132 64.9086 30.7659 65.2285 29.86C65.458 29.207 65.674 28.5495 65.8845 27.889C66.0487 27.3729 66.0594 26.8487 65.9064 26.3217C65.7493 25.7859 65.5421 25.2771 65.227 24.8191C65.1582 24.7208 65.1133 24.604 65.0598 24.5003C65.2126 24.3042 65.4107 24.2734 65.5909 24.2123C65.9124 24.1025 66.1664 23.8968 66.3797 23.6288C66.4103 23.5904 66.4396 23.5496 66.4623 23.5058C66.6927 23.0655 66.5573 22.6541 66.1099 22.4457C66.0125 22.3996 65.9049 22.3762 65.7613 22.3299C65.8225 22.2783 65.8583 22.2371 65.9021 22.2132C66.4038 21.936 66.9219 21.6839 67.4084 21.379C67.7584 21.1589 68.0718 20.872 68.3958 20.6061C68.5982 20.4401 68.7473 20.2222 68.8631 19.9839C68.9278 19.8503 68.9806 19.7038 69.0047 19.5571C69.0574 19.2334 68.9717 19.08 68.6865 18.9168C68.655 18.8995 68.6282 18.8735 68.5803 18.8381C68.615 18.775 68.6418 18.706 68.6853 18.6541C68.8773 18.4268 69.0791 18.2075 69.2692 17.9778C69.5828 17.5977 69.7165 17.136 69.7326 16.6489C69.7452 16.2728 69.5442 15.9619 69.265 15.7502C68.9639 15.5203 68.6139 15.4325 68.2321 15.5561C67.8497 15.6797 67.4687 15.8029 67.1212 16.0182C67.0293 16.0753 66.9285 16.1189 66.8174 16.1756C66.7266 16.0177 66.7698 15.8694 66.8071 15.7295C66.8555 15.5502 66.8343 15.3784 66.7887 15.2059C66.7388 15.0191 66.6223 14.9098 66.4385 14.8618C66.0907 14.7717 65.7662 14.8398 65.4511 14.9963C65.3547 15.0438 65.2603 15.097 65.1315 15.1654C65.1054 15.0604 65.0713 14.983 65.0713 14.9051C65.0677 14.652 65.0699 14.3988 65.0837 14.1464C65.0996 13.8241 65.0228 13.5188 64.9489 13.212C64.885 12.9415 64.7268 12.7476 64.5048 12.5901C64.2671 12.4217 64.0359 12.4249 63.7804 12.5149C63.2381 12.7069 62.9106 13.1223 62.6461 13.6276C62.1505 14.5772 61.9225 15.6053 61.7789 16.6622C61.7586 16.8095 61.766 16.9645 61.6388 17.121C61.5563 16.9894 61.4872 16.8769 61.4153 16.7662C61.3205 16.6169 61.208 16.4861 61.0452 16.4128C60.8406 16.3197 60.686 16.3411 60.5694 16.5382C60.2557 17.0663 59.9938 17.6184 59.9237 18.2518C59.8646 18.7784 59.9787 19.2819 60.0767 19.7876C60.2077 20.4677 60.3558 21.1445 60.4859 21.8245C60.5158 21.98 60.5047 22.1451 60.5134 22.3128C60.223 22.4033 59.9535 22.3907 59.6952 22.3802C59.2814 22.3631 58.8968 22.4636 58.5356 22.6405C58.2992 22.7557 58.0867 22.9383 57.8866 23.1182C57.3216 23.6258 56.8522 24.2144 56.5106 24.9108C56.3507 25.2373 56.1719 25.5537 56.0021 25.8742L55.9631 25.9375C55.7059 26.1317 55.6418 26.4354 55.5678 26.7275C55.3355 27.6441 55.1111 28.5628 54.8874 29.4819C54.7857 29.8985 54.6937 30.3179 54.5985 30.7361C54.5702 30.8596 54.5418 30.9824 54.5177 31.1061C54.3428 32.024 54.1657 32.9414 53.9932 33.8598C54.155 33.8779 54.3168 33.8959 54.4786 33.9145Z" fill="white"/>
<path fill-rule="evenodd" clip-rule="evenodd" d="M54.6592 33.9357C54.7055 33.7064 54.753 33.4772 54.7966 33.2473C54.9895 32.2305 55.1747 31.2122 55.3723 30.1964C55.4637 29.7262 55.5729 29.2602 55.6761 28.7926C55.7019 28.7882 55.7289 28.7845 55.7537 28.785C56.4912 28.802 57.1877 29.0356 57.8632 29.3277C58.3604 29.5426 58.8168 29.8394 59.3304 30.019C59.4147 30.0485 59.4993 30.1098 59.5617 30.1755C59.7539 30.3775 59.9825 30.4292 60.2371 30.3307L60.328 30.2956L60.3487 30.1967C60.4351 29.7834 60.3862 29.5694 60.0187 29.3638C59.9509 29.3259 59.8928 29.2882 59.8167 29.2671C59.2639 29.1132 58.7678 28.7737 58.2363 28.5555C57.4967 28.2517 56.7864 27.9309 55.975 27.9363C55.9486 27.9365 55.9222 27.9412 55.901 27.9352C55.9396 27.7032 55.9721 27.4575 56.1508 27.2947C56.2365 27.2165 56.3198 27.1168 56.3341 26.9942C56.3649 26.7298 56.5498 26.4685 56.6069 26.1924C56.654 25.9638 56.7803 25.7609 56.8902 25.5608C56.9945 25.3708 57.1237 25.2 57.2182 25.0029C57.5281 24.3569 58.04 23.8863 58.5663 23.4362C58.7779 23.2552 59.0226 23.1414 59.2961 23.1148C59.5896 23.0863 59.8861 23.0421 60.1814 23.0477C60.8546 23.0602 61.5149 23.1668 62.1438 23.4255C62.5952 23.6112 63.0748 23.7506 63.4983 24.0022C63.9433 24.2665 64.3268 24.6148 64.6277 25.0479C64.8678 25.3935 65.062 25.7682 65.203 26.1693C65.3891 26.6987 65.3903 27.2214 65.2299 27.7574C65.0687 28.296 64.9006 28.833 64.7083 29.3606C64.5218 29.8722 64.3323 30.3862 64.089 30.8721C63.8394 31.3705 63.5344 31.8373 63.2374 32.3056C62.9644 32.7362 62.669 33.1506 62.3837 33.5722C62.1876 33.862 61.9887 34.1499 61.7987 34.4442C61.7006 34.5962 61.5992 34.7459 61.5036 34.8994C59.2281 34.5225 56.946 34.2016 54.6592 33.9357V33.9357Z" fill="white"/>
<path fill-rule="evenodd" clip-rule="evenodd" d="M9.23246 20.5903C9.14222 20.4057 9.05029 20.2645 9.00297 20.1087C8.84939 19.5978 8.73003 19.0802 8.69412 18.5422C8.66452 18.1166 8.60965 17.6937 8.5643 17.2454C8.39275 17.2558 8.2355 17.2586 8.08028 17.2766C7.77143 17.3124 7.63918 17.2292 7.52273 16.9089C7.60501 16.7853 7.72941 16.7805 7.85704 16.7802C7.99344 16.7793 8.13004 16.7696 8.26611 16.7579C8.36855 16.749 8.43689 16.6826 8.45873 16.5828C8.49132 16.4301 8.49709 16.2707 8.40732 16.1354C8.02325 15.5457 7.16269 15.5789 6.86179 16.0916C6.74031 16.2998 6.66238 16.5218 6.63452 16.7584C6.54688 17.496 6.67108 18.2078 6.95721 18.8785C7.16873 19.3754 7.43758 19.8471 7.85418 20.2007C7.91577 20.2528 7.96427 20.3223 7.96962 20.3299C7.94516 20.6324 7.83307 20.7654 7.63918 20.8296C7.58655 20.8475 7.53562 20.8779 7.48538 20.9056C7.13574 21.0991 6.95739 21.4002 6.91711 21.8148C6.87245 22.2815 6.91038 22.7368 6.97219 23.1972C7.05541 23.8205 6.98358 24.4289 6.72328 25.0058C6.68588 25.0887 6.6585 25.1759 6.60758 25.3091C6.92125 25.2461 7.17286 25.1548 7.38252 24.9671C7.77 24.6177 8.08632 24.2201 8.15131 23.6637C8.17609 23.4567 8.27508 23.3107 8.46165 23.2372C8.60695 23.2474 8.68463 23.3297 8.74525 23.4599C8.88355 23.7587 9.02823 24.0551 9.18594 24.344C9.42174 24.7724 9.73616 25.129 10.1355 25.3996C10.3723 25.56 10.6298 25.672 10.9444 25.7495C10.8612 24.9701 10.6193 24.2685 10.4233 23.5499C10.5191 23.4584 10.5992 23.3804 10.6724 23.3102C10.9389 23.4495 11.1788 23.5851 11.4275 23.6981C11.6769 23.8117 11.9302 23.9315 12.1934 23.9918C12.447 24.0501 12.6872 24.2229 12.9965 24.1434C12.9315 24.0547 12.8888 23.985 12.8361 23.9269C12.4866 23.5418 12.243 23.0902 12.0588 22.6014C12.0041 22.4571 11.9559 22.3099 11.8853 22.1735C11.7729 21.9559 11.6773 21.7128 11.516 21.5395C10.9925 20.9758 10.3646 20.6185 9.58646 20.62C9.4758 20.62 9.36398 20.6026 9.23246 20.5903ZM24.8223 33.082C24.5995 32.4225 24.2555 31.8491 23.7854 31.3574C23.2366 30.7825 22.6041 30.3175 21.9456 29.8901C21.8876 29.8523 21.8289 29.8138 21.7656 29.7905C20.987 29.4918 20.2104 29.1842 19.393 29.0121C18.8575 28.8991 18.3242 28.7826 17.7919 28.6568C17.5367 28.5963 17.2744 28.5416 17.0397 28.4286C16.4078 28.1271 15.7634 27.8594 15.1115 27.6144C14.4323 27.3595 13.8568 26.9559 13.3996 26.368C13.0388 25.9041 12.7832 25.373 12.4987 24.8609C12.4291 24.7364 12.3737 24.6147 12.2276 24.5616C11.9811 24.4717 11.7402 24.3635 11.4947 24.2705C11.3921 24.232 11.2916 24.157 11.1521 24.2145C11.1586 24.2811 11.1599 24.3513 11.1732 24.418C11.2591 24.8356 11.3477 25.2534 11.434 25.6715C11.4612 25.7992 11.4859 25.9274 11.5083 26.0561C11.5684 26.4046 11.3967 26.5621 11.0873 26.4402C10.9168 26.3731 10.7484 26.3009 10.5814 26.2233C9.82593 25.8737 9.18133 25.3884 8.7827 24.605C8.72447 24.4904 8.65889 24.3812 8.53353 24.3397C8.39539 24.5143 8.2712 24.6818 8.13704 24.8414C7.99509 25.0104 7.84448 25.17 7.66564 25.3695C7.72384 25.4941 7.69255 25.5957 7.63599 25.7077C7.57854 25.8197 7.54624 25.9535 7.53292 26.082C7.45048 26.8979 7.39828 27.7186 7.44003 28.5371C7.48289 29.377 7.56639 30.2175 7.6719 31.0526C7.72797 31.4981 7.86118 31.9329 7.9709 32.3694C8.03758 32.6319 8.12686 32.8894 8.2016 33.1504C8.25008 33.3214 8.29302 33.4937 8.33645 33.6663C8.44134 34.0837 8.61386 34.4701 8.80371 34.8496C8.63358 34.8768 8.46357 34.9048 8.29349 34.9325C8.20644 34.7362 8.12102 34.5391 8.03901 34.3403C7.96261 34.1561 7.90362 33.9602 7.86532 33.7636C7.76893 33.2725 7.61664 32.8023 7.46523 32.3284C7.34199 31.9478 7.26677 31.5459 7.2107 31.1479C7.1273 30.5369 7.0795 29.9202 7.01617 29.3063C7.00205 29.1766 6.98093 29.0463 6.97537 28.9168C6.96374 28.6452 6.9603 28.3726 6.955 28.0997C6.95448 28.0531 6.9664 28.0054 6.96348 27.9583C6.91469 27.2554 7.01271 26.5601 7.07536 25.8633C7.07871 25.8286 7.06953 25.7936 7.06465 25.7348C6.85914 25.6973 6.67187 25.8128 6.47432 25.8214C6.28244 25.8296 6.09124 25.8511 5.86753 25.8699C5.82483 25.7749 5.77851 25.6748 5.72712 25.5625C5.99978 25.3497 6.18276 25.0976 6.2982 24.7933C6.50859 24.2399 6.58981 23.6705 6.48095 23.0832C6.3802 22.5404 6.36758 21.9987 6.4506 21.4562C6.50418 21.1078 6.71839 20.8607 6.97469 20.6484C7.0802 20.5622 7.18576 20.4758 7.30947 20.375C7.24178 20.2653 7.19005 20.1758 7.13335 20.0909C6.76014 19.532 6.41367 18.9608 6.3157 18.2678C6.30551 18.1987 6.27516 18.1318 6.25167 18.0649C6.07353 17.5447 6.08323 17.0106 6.18276 16.482C6.27537 15.9955 6.5003 15.582 6.96153 15.3785C7.64204 15.08 8.43688 15.193 8.85565 15.9124C8.92435 16.0302 8.97237 16.1693 9.00001 16.3046C9.07236 16.6535 9.11145 17.0034 9.05585 17.365C9.02669 17.5597 9.06482 17.7684 9.09348 17.9678C9.17691 18.5427 9.26668 19.1164 9.36424 19.6889C9.38848 19.8249 9.45422 19.9526 9.50975 20.1112C9.66334 20.1269 9.77527 20.1408 9.88804 20.1487C10.7431 20.2108 11.7424 20.8691 12.1629 21.6617C12.2614 21.8481 12.3293 22.0521 12.4002 22.2533C12.593 22.794 12.8769 23.2791 13.2452 23.7034C13.3876 23.8684 13.5844 23.9801 13.7561 24.116C13.9129 24.2396 13.9129 24.2396 13.8893 24.5216C13.6421 24.7364 13.3224 24.7059 13.0108 24.7593C13.0196 24.8163 13.0166 24.866 13.0346 24.9053C13.3323 25.5395 13.6861 26.1352 14.2225 26.5814C14.4166 26.7426 14.634 26.8857 14.8608 26.9895C15.6423 27.3469 16.4309 27.6887 17.2225 28.0221C17.4207 28.106 17.6364 28.1478 17.8477 28.1945C18.5387 28.3444 19.2331 28.4759 19.9211 28.6422C20.3076 28.7351 20.6842 28.8763 21.0622 29.0065C21.7044 29.2267 22.2976 29.5516 22.8504 29.9575C23.3064 30.2917 23.7439 30.6482 24.1328 31.0701C24.6624 31.6468 25.0529 32.2934 25.2859 33.0542C25.1314 33.0632 24.9769 33.0726 24.8223 33.082Z" fill="black"/>
<path fill-rule="evenodd" clip-rule="evenodd" d="M24.6075 33.0949C24.396 32.4935 24.0749 31.9656 23.6393 31.5096C23.1027 30.9479 22.4799 30.4908 21.8367 30.0731C21.7926 30.0445 21.7434 30.0115 21.6946 29.9928C20.9265 29.699 20.1564 29.3928 19.3522 29.2234C18.8157 29.1103 18.2801 28.9932 17.7464 28.867C17.4773 28.8034 17.2063 28.7453 16.9539 28.6246C16.3285 28.3254 15.6887 28.0603 15.0416 27.8172C14.327 27.5488 13.7198 27.1215 13.2393 26.5039C12.8711 26.0305 12.612 25.4935 12.3203 24.9692C12.282 24.9004 12.2373 24.7933 12.1597 24.7651C11.912 24.6749 11.6711 24.5663 11.4245 24.4732C11.4154 24.4697 11.4046 24.4648 11.3927 24.4593C11.4727 24.8483 11.5547 25.2369 11.6357 25.6258C11.6628 25.756 11.6887 25.8866 11.7113 26.0179C11.7985 26.5225 11.483 26.8264 11.0145 26.6418C10.8403 26.5732 10.668 26.4991 10.4978 26.4203C9.69511 26.0486 9.01988 25.5304 8.60049 24.7061C8.59072 24.6871 8.57904 24.6634 8.56531 24.6402C8.47561 24.7559 8.38612 24.8716 8.29211 24.9835C8.16494 25.1349 8.03063 25.2801 7.8979 25.4264C7.91758 25.5565 7.88352 25.6806 7.81821 25.8088C7.77296 25.8977 7.74818 26.005 7.73806 26.1047C7.65658 26.908 7.6048 27.7179 7.64607 28.5256C7.68867 29.3614 7.77174 30.1948 7.87647 31.0244C7.93158 31.4617 8.06299 31.889 8.17042 32.3145C8.2363 32.5757 8.32553 32.8301 8.39931 33.0889C8.44872 33.262 8.4921 33.4368 8.53608 33.6115C8.64239 34.0347 8.82431 34.4299 9.01952 34.8153C14.1929 33.9956 19.3946 33.422 24.6075 33.0949Z" fill="white"/>
<path fill-rule="evenodd" clip-rule="evenodd" d="M8.38042 17.4704C8.28765 17.4749 8.19486 17.4802 8.10303 17.4907C7.68999 17.5386 7.47635 17.3884 7.32983 16.9854L7.29121 16.8793L7.35328 16.786C7.47864 16.5976 7.65265 16.5657 7.85608 16.5647C7.98728 16.564 8.11847 16.5544 8.24913 16.5432C8.25151 16.543 8.25416 16.5443 8.25639 16.5433C8.25779 16.541 8.25692 16.538 8.25744 16.5355C8.27674 16.4459 8.28964 16.3375 8.23685 16.2568C7.97283 15.8529 7.29061 15.7726 7.03778 16.204C6.93284 16.3831 6.86398 16.5764 6.83922 16.7849C6.75683 17.4803 6.87396 18.1534 7.14568 18.7909C7.34567 19.2602 7.59734 19.7052 7.98424 20.0334C8.04036 20.0811 8.09282 20.1412 8.13575 20.2022L8.18168 20.2674L8.17516 20.348C8.148 20.6837 8.01776 20.9297 7.70186 21.0349C7.66259 21.048 7.61851 21.0758 7.58191 21.096C7.29083 21.2571 7.15502 21.4972 7.1224 21.8363C7.07937 22.2823 7.11736 22.7252 7.1765 23.1674C7.26011 23.7924 7.1946 24.4068 6.95857 24.9846C7.06233 24.9404 7.16022 24.8827 7.24781 24.8039C7.59804 24.4888 7.88827 24.1334 7.94651 23.6374C7.98005 23.3522 8.129 23.1379 8.38885 23.0356L8.4307 23.0191L8.47537 23.0223C8.69578 23.0376 8.83754 23.1647 8.93096 23.366C9.0675 23.6605 9.20905 23.9528 9.3649 24.2369C9.58415 24.6366 9.87714 24.9678 10.2478 25.2188C10.3906 25.3157 10.539 25.3903 10.6948 25.4487C10.5907 24.8215 10.3921 24.2222 10.2248 23.6089L10.1898 23.4807L10.284 23.3909C10.3673 23.3114 10.4498 23.2311 10.5329 23.1514L10.6377 23.0511L10.7648 23.1176C11.0119 23.2468 11.2565 23.3853 11.5098 23.5006C11.7444 23.6073 11.9872 23.7239 12.2377 23.7814C12.3283 23.8021 12.4224 23.8402 12.5175 23.8745C12.2382 23.5171 12.0298 23.1126 11.8668 22.6804C11.8158 22.5454 11.7698 22.4037 11.7037 22.2759C11.6067 22.0882 11.51 21.8425 11.3679 21.6896C10.8786 21.1629 10.3022 20.8343 9.58675 20.8355C9.46209 20.8357 9.33817 20.8165 9.21412 20.805L9.10055 20.7944L9.04867 20.6883C8.96576 20.5186 8.86119 20.356 8.80613 20.1734C8.64725 19.6461 8.52588 19.1102 8.48831 18.5575C8.46365 18.1943 8.41962 17.8324 8.3804 17.4704H8.38042Z" fill="#C2C4C6"/>
<path fill-rule="evenodd" clip-rule="evenodd" d="M68.7555 38.4134C69.1675 37.9628 69.5824 37.5137 70 37.0663C69.4105 36.9387 68.8204 36.8146 68.23 36.6936C46.2859 32.1971 23.7139 32.1971 1.76994 36.6936C1.17954 36.8146 0.589578 36.9387 0 37.0663C0.41749 37.5137 0.832293 37.9628 1.24443 38.4134C2.53787 39.8261 3.80517 41.2534 5.04653 42.6951C4.37472 44.5024 3.73139 46.3132 3.11644 48.127C2.92058 48.7051 2.72758 49.2836 2.53745 49.8626C3.0896 49.7431 3.64221 49.6267 4.19519 49.5135C6.7936 48.9813 9.4047 48.5172 12.0252 48.1214C28.3228 45.6595 44.9843 45.8342 61.2312 48.6492C62.7593 48.9139 64.2841 49.2021 65.8047 49.5135C66.3577 49.6267 66.9104 49.7431 67.4626 49.8626C67.2725 49.2836 67.0794 48.7051 66.8835 48.1266C66.269 46.313 65.626 44.5024 64.9547 42.6952C66.1955 41.2537 67.4625 39.8261 68.7555 38.4134Z" fill="black"/>
<path fill-rule="evenodd" clip-rule="evenodd" d="M56.2742 51.6201C52.9063 60.4473 44.6535 66.6883 34.9998 66.6888C25.3463 66.6882 17.0935 60.4473 13.7258 51.6201C13.6253 51.3569 13.7482 51.0582 14.0003 50.9532C14.2524 50.8485 14.5381 50.9768 14.6386 51.2401C17.8632 59.6885 25.7605 65.6632 34.9998 65.6624C44.2392 65.6631 52.1368 59.6885 55.3611 51.2401C55.4616 50.9768 55.7474 50.8485 55.9995 50.9532C56.2516 51.0582 56.3747 51.3569 56.2742 51.6201Z" fill="#565757"/>
<path fill-rule="evenodd" clip-rule="evenodd" d="M59.6833 51.5542C56.1855 62.2827 46.4557 69.9992 34.9999 70C23.5438 69.9992 13.8143 62.2827 10.3167 51.5542C10.251 51.353 10.3539 51.1341 10.5467 51.0656C10.7394 50.9971 10.9487 51.1049 11.0144 51.306C14.4133 61.7299 23.8677 69.2306 34.9999 69.2299C46.1319 69.2306 55.5862 61.7299 58.9855 51.306C59.0511 51.1049 59.2604 50.9971 59.4531 51.0656C59.6459 51.1341 59.7489 51.353 59.6833 51.5542Z" fill="black"/>
<path fill-rule="evenodd" clip-rule="evenodd" d="M12.0994 37.8312L12.3125 37.8103C12.5476 37.7873 12.761 38.0679 12.9537 38.652L12.8963 38.9761L12.9381 38.972C12.8899 39.4125 12.9009 40.0155 12.9697 40.7814L13.0865 42.082L13.1384 42.166L13.2204 42.1152C13.3038 42.107 13.4391 42.1695 13.6262 42.3013L13.6058 42.5291L13.6546 42.6171C13.6141 42.6211 13.5752 42.67 13.5381 42.7639C13.5682 42.761 13.5834 42.7742 13.5859 42.802C13.5094 42.8095 13.4167 42.9089 13.3089 43.1013C13.379 43.2299 13.4266 43.4217 13.4495 43.677C13.3969 43.7566 13.3735 43.82 13.3777 43.8672L13.292 43.8756C13.109 43.8935 12.928 43.805 12.7481 43.6103L12.6635 43.6185C11.7497 44.1914 11.2117 44.4869 11.0507 44.5027L10.9585 44.4654C10.9068 44.501 10.8653 44.5209 10.8341 44.5239L10.6554 44.4475C10.6027 45.1495 10.5051 45.507 10.3615 45.5211C10.3163 45.5255 10.2621 45.5601 10.1968 45.6263L10.1528 45.6306C9.81501 45.4086 9.63711 45.1844 9.61664 44.9569L9.60456 44.8226C9.58402 44.5939 9.63884 44.2407 9.76922 43.7666L9.72515 43.7709C9.84394 43.4676 10.0112 42.9081 10.2253 42.0913C10.2843 42.0855 10.3106 42.0524 10.3052 41.9931C10.2763 41.996 10.2599 41.9829 10.2571 41.9515C10.4303 41.616 10.614 41.0842 10.8093 40.3572C10.8948 40.0473 10.9355 39.8626 10.93 39.801L10.8894 39.805C11.2296 39.0112 11.4259 38.4647 11.4782 38.1629L11.6429 38.0577C11.6953 38.0819 11.7533 38.0897 11.817 38.0835L11.8132 38.0411L11.905 38.0748L11.9896 38.0665C11.997 37.9157 12.0333 37.8377 12.0994 37.8312ZM11.9302 40.2937C11.8295 40.6819 11.5232 41.6175 11.0113 43.1006C11.0141 43.1321 11.0292 43.1452 11.0594 43.1422L12.2643 42.5702L12.3083 42.5659L12.2963 42.4315L12.2119 41.9858L12.2559 41.9815C12.187 41.8784 12.1474 41.7615 12.1357 41.632L12.1278 41.5437C12.1249 41.5123 12.1387 41.4962 12.1676 41.4933L12.1156 41.4081L12.0147 40.2854L11.9302 40.2937ZM18.0906 37.5624L18.0931 37.6085L18.1788 37.557L19.036 37.5042C20.021 37.4437 20.816 37.8987 21.4209 38.8694C21.5626 39.2319 21.6572 39.5877 21.7072 39.9364C21.6945 40.5568 21.5052 41.2306 21.1417 41.9565C20.4659 43.0158 20 43.5801 19.7451 43.6481C19.751 43.7525 19.5786 43.9213 19.2305 44.1545C19.0442 44.4057 18.698 44.6937 18.193 45.0205C18.1912 44.9889 18.1753 44.9753 18.1463 44.9771C18.1533 45.1021 17.8329 45.3106 17.1839 45.6025L17.0514 45.6106C16.9701 45.7397 16.6009 45.8878 15.9437 46.0573L15.9409 46.0075L15.8542 46.0628C15.5997 46.0139 15.3087 45.9369 14.981 45.8317L15.0199 45.7356C14.805 45.7488 14.6384 45.4596 14.5199 44.8679L14.5173 44.8219C14.5664 44.6386 14.6649 44.506 14.8132 44.4263C14.8361 44.8326 14.937 45.0309 15.1159 45.02L15.3438 45.0522C16.0513 45.0087 16.8597 44.629 17.7692 43.9121C17.6327 43.6405 17.5554 43.3446 17.5375 43.028L17.503 42.4166C17.4723 41.8719 17.4797 41.4454 17.523 41.1385L17.4754 41.1414C17.5153 40.9198 17.5465 40.6659 17.5699 40.3796L17.5246 40.3824C17.6045 39.6495 17.7243 39.1078 17.884 38.7559L17.8813 38.7086L17.8371 38.7113C17.6327 38.7239 17.3845 38.8487 17.0902 39.0859C17.1282 39.2431 17.1628 39.32 17.1918 39.3183C17.1468 39.573 17.0947 39.7028 17.0331 39.7066L16.9448 39.7121C16.7474 39.7242 16.512 39.5804 16.2409 39.2806L16.3221 39.0869L16.2745 39.0899L16.3169 38.9948L16.2638 38.9018C16.5213 38.3821 16.7325 38.1171 16.8986 38.1068C17.1793 37.8778 17.576 37.6963 18.0906 37.5624ZM18.4959 38.5284L18.4985 38.5745C18.6926 38.8121 18.7934 39.0104 18.8025 39.1693C18.7243 39.3957 18.6425 39.8267 18.5571 40.4613L18.6048 40.4584C18.5875 40.586 18.5596 40.6498 18.5236 40.652C18.5254 40.6835 18.5413 40.6972 18.5703 40.6954C18.5737 40.7548 18.5518 40.8828 18.5033 41.0781L18.5475 41.0754L18.4727 41.3186C18.5017 41.3168 18.5176 41.3317 18.5194 41.362C18.4904 41.3639 18.4761 41.3805 18.4779 41.4108L18.5219 41.408L18.4392 42.359L18.4833 42.3563C18.4368 42.5844 18.4282 42.9477 18.4562 43.445C18.7301 43.1761 18.9483 43.0374 19.1121 43.0273L19.1096 42.9812L19.0565 42.8883C19.1497 42.8461 19.3354 42.646 19.6135 42.2868C19.6153 42.3171 19.6301 42.332 19.6602 42.3302C19.7107 42.17 19.8215 42.0061 19.9939 41.8385C19.9907 41.7815 20.1151 41.5694 20.3647 41.2022C20.5689 40.7502 20.7111 40.3154 20.7901 39.8991L20.746 39.9018L20.7847 39.8032L20.7795 39.711C20.7316 38.8631 20.2269 38.4681 19.264 38.5274L19.128 38.5357L19.0371 38.4951L19.0398 38.5411L18.9454 38.5007L18.4959 38.5284ZM18.6467 43.4332L18.6078 43.5293L18.652 43.5267L18.6943 43.4303L18.6467 43.4332ZM16.6075 45.7778L16.6102 45.8276L16.702 45.8219L16.6993 45.7722L16.6075 45.7778ZM25.2508 39.8146L25.3334 39.8111C25.9391 39.7857 26.3186 40.0556 26.4695 40.6184C26.4736 40.7252 26.5037 40.8104 26.5608 40.8712L26.5234 40.9591C26.5532 41.0077 26.5682 41.0642 26.5706 41.1274C26.4296 41.7608 26.1066 42.2305 25.6013 42.5363C24.9853 42.961 24.407 43.1847 23.8675 43.2074L23.4583 43.2245C22.8886 43.2485 22.5097 42.9945 22.3238 42.4598C22.29 42.308 22.2722 42.1798 22.2683 42.0778C22.2391 41.319 22.6665 40.7453 23.5528 40.3565L24.1541 40.0321C24.1551 40.06 24.1697 40.074 24.1964 40.0729C24.1919 39.9588 24.5439 39.8734 25.2508 39.8146ZM23.9222 41.4526C23.9212 41.4247 23.9067 41.4107 23.8799 41.4118L23.1637 41.9551L23.167 42.0401L23.6169 42.0213C23.7529 42.0155 23.957 41.9924 24.228 41.953C24.225 41.8765 24.427 41.7975 24.8336 41.7136C25.229 41.5449 25.5073 41.3338 25.6687 41.0801C25.5978 41.0259 25.5561 40.9997 25.5421 41.0003L24.9701 41.0243C24.8887 41.0848 24.6199 41.1813 24.1627 41.3148C24.1637 41.3428 24.0841 41.3886 23.9222 41.4526ZM30.9305 37.5815C31.1422 37.577 31.3209 37.7834 31.4653 38.1997L31.506 38.1988L31.4669 38.2822L31.4743 38.6589C31.3261 38.7545 31.1274 38.8292 30.8782 38.882L30.8773 38.8395C29.7094 39.2184 28.8744 39.6011 28.3699 39.9864C28.158 40.155 28.052 40.2691 28.0532 40.3287C28.2647 40.4347 29.0452 40.5856 30.3944 40.7801C30.9979 40.9846 31.3913 41.2836 31.5748 41.6771C31.5762 41.7476 31.6043 41.8175 31.6604 41.8843L31.6629 42.0095C31.669 42.3156 31.4858 42.5298 31.1135 42.6509C30.2279 43.0627 29.5627 43.2727 29.1173 43.2822L28.916 43.2866C28.6274 43.2928 28.4232 43.143 28.3042 42.8367L28.3008 42.6691C28.3003 42.6436 28.3129 42.63 28.3408 42.6294L28.2168 42.4218C28.2971 42.42 28.3358 42.3767 28.3341 42.2916C28.3062 42.2922 28.2931 42.2791 28.2926 42.2536C28.7696 42.2433 29.3292 42.1182 29.9728 41.8782L29.9711 41.7968C29.5674 41.7484 29.3653 41.7103 29.3648 41.6811C29.3403 41.6817 29.3278 41.6965 29.3284 41.7256C28.3136 41.5519 27.6793 41.3139 27.4254 41.0107C27.323 41.013 27.1974 40.7228 27.0473 40.1401C27.0331 39.4233 27.5964 38.8375 28.7374 38.3838C29.4713 38.0118 30.2027 37.7444 30.9303 37.5816L30.9305 37.5815ZM37.9855 37.4837C38.024 37.4797 38.0625 37.4781 38.1009 37.4789C38.7442 37.4933 39.1597 38.1163 39.3487 39.3481C39.3601 39.476 39.3607 39.899 39.3532 40.616C39.5022 40.4406 39.8583 39.8176 40.4213 38.7448C40.8171 38.1678 41.1339 37.8697 41.3706 37.8508L41.4626 37.8467C41.7307 37.945 41.8842 38.234 41.9221 38.7151L41.9402 38.9683C41.9474 39.0681 41.9498 39.1812 41.9472 39.3099C41.9323 40.0376 41.7431 41.2112 41.3784 42.8295C41.3831 42.889 41.3853 42.9462 41.3842 43.0009C41.3755 43.4298 41.1857 43.6614 40.8149 43.6932C40.6079 43.5743 40.4963 43.398 40.4814 43.1619L40.4547 42.8089L40.3951 42.7115C40.4522 42.7055 40.4808 42.6745 40.482 42.6174L40.4823 42.5992C40.4416 42.484 40.4197 42.4191 40.4177 42.4021L40.4152 42.3521L40.464 42.3532L40.4713 42.4531L40.5192 42.4469L40.5167 42.397C40.4772 42.3365 40.4561 42.2875 40.4522 42.2497L41.1314 39.1921L41.1325 39.1423L41.0847 39.145C40.3791 40.8686 39.7474 42.11 39.192 42.8658L39.0105 43.0368L38.8635 43.0518C38.8507 43.0539 38.8378 43.0548 38.8263 43.0546C38.6063 43.0497 38.4092 42.8448 38.2346 42.4422C38.2458 42.3549 38.2521 42.2761 38.2535 42.2044C38.2544 42.1618 38.254 42.123 38.2525 42.0865L38.3002 42.0839L38.3121 42.185L38.3565 42.1787L38.2871 41.9304L38.2821 41.8307L38.3299 41.8256L38.3384 41.9255L38.3861 41.9229L38.3802 41.873L38.3072 41.5723L38.4028 41.5636L38.3368 41.3165L38.3309 41.2666L38.4324 41.3114C38.457 40.7868 38.4715 40.3642 38.4781 40.041C38.4847 39.7179 38.4834 39.4966 38.4719 39.3748C38.3916 38.7483 38.3026 38.4339 38.2049 38.4317L38.2013 38.4317C37.5729 38.487 37.0405 39.9385 36.6053 42.7876L36.6748 43.0347C36.6132 43.3104 36.4775 43.4593 36.2712 43.4778L36.1744 43.4866C35.8387 43.3393 35.6513 42.9985 35.6098 42.4664L35.6115 42.3838C35.63 41.48 36.0082 40.172 36.7484 38.4601C37.1088 37.8519 37.5204 37.5256 37.9857 37.4837L37.9855 37.4837ZM45.2421 37.1213L45.456 37.131C45.6919 37.1419 45.8665 37.4503 45.9807 38.0564L45.8814 38.3693L45.9232 38.3712C45.8177 38.8007 45.7496 39.3996 45.7172 40.1681L45.6623 41.4731L45.7027 41.5638L45.7906 41.5252C45.8742 41.5291 46.0001 41.6103 46.1682 41.7676L46.118 41.9904L46.1548 42.0844C46.1141 42.0826 46.0693 42.1256 46.0202 42.2133C46.0504 42.2147 46.0637 42.2299 46.0626 42.2578C45.9858 42.2543 45.8809 42.3395 45.7489 42.5147C45.8014 42.6521 45.8234 42.849 45.8126 43.1051C45.7502 43.1764 45.7185 43.2359 45.7166 43.2832L45.6306 43.2792C45.4469 43.2708 45.2793 43.1573 45.1266 42.9386L45.0417 42.9347C44.0613 43.3714 43.4897 43.5872 43.3281 43.5798L43.2417 43.5296C43.1858 43.5575 43.1421 43.5712 43.1108 43.5698L42.9438 43.4685C42.7995 44.1564 42.656 44.4965 42.5118 44.4899C42.4665 44.4879 42.4083 44.5143 42.3349 44.5706L42.2907 44.5686C41.9853 44.3003 41.8384 44.0528 41.848 43.8245L41.8537 43.6898C41.8634 43.4603 41.9639 43.1182 42.1553 42.6673L42.1111 42.6653C42.2686 42.3818 42.5076 41.8515 42.8268 41.073C42.8861 41.0757 42.9164 41.0467 42.919 40.9872C42.8899 40.9859 42.8754 40.9706 42.8767 40.939C43.0923 40.6314 43.3439 40.131 43.6327 39.4387C43.7582 39.1441 43.8227 38.967 43.8253 38.9051L43.7846 38.9032C44.2257 38.1657 44.4918 37.6524 44.5832 37.361L44.7602 37.2803C44.8089 37.3118 44.8653 37.3277 44.9293 37.3307L44.9311 37.2881L45.0176 37.3347L45.1025 37.3386C45.1297 37.1903 45.1759 37.1182 45.2421 37.1213H45.2421ZM44.7515 39.5363C44.6008 39.9064 44.1747 40.7894 43.473 42.1852C43.4716 42.2168 43.4849 42.232 43.5152 42.2334L44.7838 41.8391L44.828 41.8412L44.8337 41.7063L44.8085 41.2527L44.8526 41.2547C44.798 41.1427 44.774 41.0213 44.7794 40.8914L44.7832 40.8027C44.7846 40.7712 44.8002 40.7573 44.8293 40.7586L44.7889 40.6667L44.8363 39.5402L44.7515 39.5363ZM49.5396 39.5897L49.7958 39.5936L49.8168 39.5949C50.1025 39.6115 50.3139 39.866 50.452 40.3584C50.2512 42.5083 49.7317 43.5735 48.8948 43.5564L48.8436 43.5535C48.1651 43.1428 47.8289 42.7594 47.8363 42.4031L47.7852 42.4002C47.5849 43.0969 47.4051 43.4515 47.2472 43.4631L47.1959 43.4638L47.1901 43.4635C47.1599 43.4616 47.1445 43.4438 47.1452 43.4085L47.0433 43.4622C46.6319 43.3106 46.4336 42.9643 46.4459 42.4259L46.4475 42.2653C46.5232 42.2674 46.6114 42.1434 46.7133 41.8925C46.7128 41.8596 46.6974 41.8417 46.6684 41.84L46.6614 41.8397C46.8047 41.556 47.0057 40.9323 47.2668 39.9702C47.3262 39.9713 47.4128 39.9202 47.5279 39.815L47.535 39.8153C47.564 39.817 47.5782 39.8337 47.5764 39.8676L47.6805 39.8164C48.0518 40.0876 48.3003 40.5414 48.4283 41.1792C48.5712 41.8217 48.7007 42.1468 48.8169 42.1536L48.8192 42.1536C48.9902 42.1587 49.172 41.6789 49.3645 40.7127L49.3661 40.5521C49.3679 40.517 49.3515 40.4978 49.3178 40.4958L49.3729 40.2289L49.3788 39.8544C49.4827 39.7411 49.5363 39.6542 49.5396 39.5923L49.5396 39.5897ZM53.9884 40.4645L54.0709 40.4703C54.6757 40.5131 55.0252 40.824 55.1172 41.4005C55.1104 41.5073 55.1315 41.5952 55.182 41.6621L55.1357 41.7453C55.1604 41.797 55.1694 41.8549 55.1653 41.9179C54.9599 42.5319 54.5903 42.9624 54.0564 43.2097C53.4003 43.5628 52.8023 43.7202 52.2637 43.6821L51.855 43.6532C51.2862 43.613 50.9356 43.3178 50.8058 42.7654C50.7879 42.6107 50.7835 42.4812 50.7901 42.3794C50.8392 41.6216 51.3233 41.0993 52.2445 40.8124L52.8757 40.5574C52.8739 40.5853 52.8869 40.6009 52.9136 40.6028C52.9209 40.4888 53.2796 40.4435 53.9884 40.4645ZM52.4989 41.9436C52.5007 41.9158 52.4877 41.9002 52.461 41.8983L51.693 42.358L51.6874 42.4429L52.1367 42.4747C52.2725 42.4843 52.4778 42.4842 52.7513 42.4756C52.7562 42.3991 52.9651 42.3433 53.378 42.3056C53.7885 42.1822 54.0869 42.0037 54.2735 41.7696C54.2087 41.7078 54.1699 41.677 54.1559 41.676L53.5848 41.6356C53.4975 41.6867 53.2204 41.7524 52.752 41.8338C52.7502 41.8616 52.6663 41.8983 52.4989 41.9437V41.9436ZM59.8946 38.898C60.1054 38.9184 60.2606 39.1446 60.3591 39.5752L60.3996 39.5792L60.3517 39.6574L60.3184 40.0325C60.1608 40.11 59.9552 40.1608 59.702 40.1839L59.7057 40.1416C58.5043 40.3803 57.6332 40.6619 57.0903 40.9853C56.8614 41.1278 56.7438 41.2286 56.7385 41.288C56.9373 41.4183 57.6964 41.6603 59.0159 42.0128C59.5934 42.2871 59.952 42.6307 60.0918 43.0432C60.0855 43.1135 60.1059 43.1862 60.1544 43.2593L60.1433 43.3839C60.1162 43.6888 59.9111 43.8801 59.528 43.9564C58.6035 44.261 57.9199 44.3912 57.4763 44.3482L57.2758 44.3288C56.9885 44.301 56.8017 44.1279 56.7166 43.8096L56.7314 43.6427C56.7337 43.6173 56.7476 43.6052 56.7754 43.6079L56.6747 43.387C56.7546 43.3948 56.7978 43.3562 56.8053 43.2715C56.7776 43.2688 56.766 43.2543 56.7682 43.2288C57.2433 43.2748 57.8128 43.2166 58.4782 43.0541L58.4854 42.973C58.0895 42.8773 57.8929 42.8155 57.8955 42.7865C57.8711 42.7842 57.8572 42.7974 57.8545 42.8264C56.865 42.5341 56.2605 42.2228 56.0411 41.8916C55.9391 41.8817 55.8457 41.5786 55.7596 40.9819C55.8231 40.268 56.4461 39.7524 57.6288 39.4362C58.3983 39.1533 59.1539 38.9738 59.8946 38.898Z" fill="white"/>
<path fill-rule="evenodd" clip-rule="evenodd" d="M25.4436 52.3094C25.4436 52.3892 25.4206 52.4501 25.3745 52.4924C25.3285 52.5346 25.2774 52.5563 25.2213 52.5575C25.1651 52.5586 25.114 52.5393 25.068 52.4994C25.0219 52.4596 24.9989 52.3962 24.9989 52.3094C24.9989 52.293 24.9911 52.2643 24.9754 52.2232C24.9596 52.1822 24.9344 52.1418 24.8996 52.1019C24.8648 52.062 24.8182 52.0262 24.7598 51.9946C24.7014 51.9629 24.6307 51.9471 24.5475 51.9471C24.4712 51.9471 24.3971 51.9676 24.3252 52.0087C24.2533 52.0497 24.1899 52.1118 24.1349 52.1951C24.0799 52.2784 24.0355 52.3833 24.0018 52.51C23.9681 52.6366 23.9513 52.7844 23.9513 52.9532C23.9513 53.1198 23.9676 53.2616 24.0002 53.3789C24.0327 53.4962 24.0788 53.5912 24.1383 53.6639C24.1978 53.7366 24.2685 53.7899 24.3505 53.824C24.4325 53.858 24.524 53.875 24.625 53.875C24.6946 53.875 24.7558 53.8644 24.8086 53.8433C24.8614 53.8222 24.917 53.7952 24.9754 53.7624C25.027 53.7319 25.0725 53.7172 25.1118 53.7184C25.1511 53.7197 25.1842 53.7313 25.2112 53.7536C25.2381 53.7759 25.2578 53.8052 25.2701 53.8416C25.2825 53.8779 25.2881 53.9154 25.2869 53.9541C25.2859 53.9928 25.2768 54.0304 25.26 54.0667C25.2431 54.1031 25.219 54.1318 25.1876 54.1529C25.1584 54.1717 25.1264 54.1904 25.0916 54.2092C25.0568 54.2279 25.0169 54.245 24.972 54.2602C24.9271 54.2754 24.8743 54.2878 24.8137 54.2971C24.753 54.3066 24.6811 54.3112 24.5981 54.3112C24.5262 54.3112 24.4499 54.3047 24.369 54.2919C24.2882 54.279 24.2079 54.255 24.1282 54.2198C24.0485 54.1846 23.9715 54.1359 23.8974 54.0738C23.8233 54.0116 23.7582 53.9301 23.702 53.8293C23.6459 53.7284 23.6004 53.6064 23.5656 53.4633C23.5308 53.3203 23.5134 53.1503 23.5134 52.9532C23.5134 52.7046 23.5426 52.4894 23.601 52.3077C23.6594 52.1259 23.7379 51.9752 23.8368 51.8556C23.9356 51.736 24.0485 51.6474 24.1753 51.59C24.3022 51.5325 24.4341 51.5038 24.5711 51.5038C24.6811 51.5038 24.7884 51.5249 24.8928 51.5671C24.9973 51.6093 25.0905 51.6674 25.1724 51.7413C25.2544 51.8152 25.3201 51.9008 25.3695 51.998C25.4189 52.0954 25.4436 52.1992 25.4436 52.3094ZM26.5115 54.3112C26.3947 54.3112 26.2869 54.2883 26.1881 54.2426C26.0893 54.1969 26.0033 54.1336 25.9304 54.0527C25.8574 53.9717 25.8007 53.875 25.7602 53.7624C25.7198 53.6498 25.6996 53.5267 25.6996 53.393C25.6996 53.2593 25.7198 53.1356 25.7602 53.0219C25.8007 52.9081 25.8574 52.8102 25.9304 52.7281C26.0033 52.646 26.0893 52.5821 26.1881 52.5363C26.2869 52.4906 26.3947 52.4677 26.5115 52.4677C26.6282 52.4677 26.736 52.4906 26.8348 52.5363C26.9336 52.5821 27.019 52.646 27.0908 52.7281C27.1627 52.8102 27.2194 52.9081 27.2609 53.0219C27.3025 53.1356 27.3233 53.2593 27.3233 53.393C27.3233 53.5267 27.3031 53.6498 27.2627 53.7624C27.2222 53.875 27.1655 53.9717 27.0925 54.0527C27.0196 54.1336 26.9336 54.1969 26.8348 54.2426C26.736 54.2883 26.6282 54.3112 26.5115 54.3112ZM26.5115 52.8512C26.4463 52.8512 26.3879 52.8653 26.3363 52.8934C26.2846 52.9216 26.2408 52.9603 26.2049 53.0095C26.169 53.0588 26.1409 53.1174 26.1207 53.1854C26.1005 53.2534 26.0904 53.3273 26.0904 53.4071C26.0904 53.5665 26.1286 53.6944 26.2049 53.7906C26.2812 53.8867 26.3835 53.9348 26.5115 53.9348C26.6394 53.9348 26.7417 53.8867 26.818 53.7906C26.8943 53.6944 26.9325 53.5665 26.9325 53.4071C26.9325 53.3297 26.9224 53.257 26.9022 53.189C26.882 53.1209 26.8533 53.0617 26.8163 53.0113C26.7793 52.9609 26.7349 52.9216 26.6832 52.8934C26.6316 52.8653 26.5743 52.8512 26.5115 52.8512ZM28.9032 53.0201C28.8852 53.0201 28.8678 53.0172 28.8509 53.0113C28.8341 53.0054 28.82 52.9978 28.8088 52.9884C28.7752 52.965 28.7454 52.9456 28.7196 52.9304C28.6937 52.9151 28.6674 52.9028 28.6404 52.8934C28.6134 52.8841 28.5848 52.8782 28.5545 52.8758C28.5242 52.8735 28.4877 52.8723 28.4451 52.8723C28.3732 52.8723 28.3109 52.8858 28.258 52.9128C28.2053 52.9397 28.1604 52.9773 28.1233 53.0254C28.0863 53.0735 28.0588 53.1303 28.0408 53.196C28.0228 53.2617 28.0138 53.3332 28.0138 53.4106C28.0138 53.4716 28.0256 53.532 28.0492 53.5918C28.0728 53.6516 28.1048 53.7055 28.1452 53.7536C28.1856 53.8017 28.2328 53.841 28.2867 53.8715C28.3406 53.902 28.3979 53.9172 28.4585 53.9172C28.5102 53.9172 28.5562 53.9149 28.5966 53.9101C28.637 53.9055 28.6797 53.8949 28.7246 53.8785C28.7336 53.8738 28.7465 53.8697 28.7634 53.8662C28.7802 53.8626 28.7942 53.8609 28.8055 53.8609C28.8526 53.8609 28.8959 53.8779 28.9352 53.9119C28.9744 53.9459 28.9941 53.9957 28.9941 54.0614C28.9941 54.1295 28.9722 54.1799 28.9284 54.2127C28.8846 54.2455 28.8336 54.269 28.7752 54.2831C28.746 54.2901 28.7162 54.2954 28.6859 54.2989C28.6556 54.3024 28.6258 54.3054 28.5966 54.3077C28.5652 54.3101 28.5365 54.3106 28.5107 54.3095C28.4849 54.3084 28.4619 54.3077 28.4417 54.3077C28.3271 54.3077 28.2199 54.286 28.12 54.2426C28.02 54.1992 27.9325 54.1376 27.8572 54.0579C27.782 53.9782 27.7225 53.8832 27.6787 53.773C27.6349 53.6627 27.613 53.5419 27.613 53.4106C27.613 53.291 27.6332 53.1749 27.6736 53.0623C27.714 52.9497 27.7707 52.8501 27.8438 52.7633C27.9167 52.6765 28.0043 52.6061 28.1065 52.5522C28.2087 52.4982 28.3215 52.4712 28.4451 52.4712C28.5416 52.4712 28.6404 52.4859 28.7415 52.5152C28.8425 52.5446 28.9324 52.5967 29.011 52.6718C29.0289 52.6906 29.0458 52.7122 29.0615 52.7369C29.0772 52.7615 29.0851 52.7926 29.0851 52.8301C29.0851 52.8841 29.0671 52.9292 29.0312 52.9656C28.9952 53.0019 28.9526 53.0201 28.9032 53.0201ZM29.9508 51.933C29.9508 52.008 29.9261 52.0714 29.8767 52.123C29.8273 52.1746 29.7667 52.2003 29.6948 52.2003C29.623 52.2003 29.5623 52.1746 29.5129 52.123C29.4635 52.0714 29.4388 52.008 29.4388 51.933C29.4388 51.858 29.4635 51.7946 29.5129 51.743C29.5623 51.6914 29.623 51.6656 29.6948 51.6656C29.7667 51.6656 29.8273 51.6914 29.8767 51.743C29.9261 51.7946 29.9508 51.858 29.9508 51.933ZM29.9037 52.6612L29.9003 54.072C29.9003 54.133 29.8801 54.1881 29.8397 54.2373C29.7992 54.2866 29.7509 54.3112 29.6948 54.3112C29.6387 54.3112 29.5904 54.2866 29.55 54.2373C29.5096 54.1881 29.4893 54.133 29.4893 54.072L29.486 52.6612C29.486 52.6307 29.4927 52.602 29.5062 52.5751C29.5197 52.548 29.5365 52.5246 29.5567 52.5047C29.5769 52.4848 29.5994 52.4689 29.6241 52.4572C29.6488 52.4455 29.6724 52.4396 29.6948 52.4396C29.7172 52.4396 29.7409 52.4455 29.7655 52.4572C29.7903 52.4689 29.8127 52.4848 29.8329 52.5047C29.8531 52.5246 29.87 52.548 29.8835 52.5751C29.8969 52.602 29.9037 52.6307 29.9037 52.6612ZM31.5897 54.3112C31.5307 54.3112 31.483 54.2895 31.4471 54.2461C31.4106 54.2027 31.3926 54.1529 31.3926 54.0966V53.3649C31.3926 53.2945 31.3892 53.2288 31.3825 53.1679C31.3758 53.1068 31.3617 53.0547 31.3404 53.0113C31.3191 52.9679 31.2887 52.9339 31.2494 52.9093C31.2101 52.8846 31.1591 52.8723 31.0961 52.8723C31.04 52.8723 30.9844 52.8829 30.9294 52.904C30.8744 52.9251 30.8311 52.9509 30.7997 52.9814V54.086C30.7997 54.14 30.7823 54.191 30.7475 54.2391C30.7127 54.2872 30.665 54.3112 30.6043 54.3112C30.5437 54.3112 30.496 54.2872 30.4612 54.2391C30.4264 54.191 30.409 54.14 30.409 54.086V52.6999C30.409 52.6272 30.428 52.5715 30.4662 52.5328C30.5044 52.4941 30.5527 52.4748 30.6111 52.4748C30.6493 52.4748 30.6829 52.4848 30.7121 52.5047C30.7413 52.5246 30.7627 52.5498 30.7761 52.5803C30.8166 52.5428 30.8654 52.5158 30.9216 52.4994C30.9777 52.483 31.0378 52.4748 31.1006 52.4748C31.3348 52.4748 31.5071 52.5463 31.6178 52.6894C31.7284 52.8325 31.7834 53.026 31.7834 53.2699V54.0966C31.7834 54.1529 31.7659 54.2027 31.7306 54.2461C31.6958 54.2895 31.6486 54.3112 31.5897 54.3112ZM33.5115 54.3288C33.4396 54.3288 33.3823 54.2995 33.3396 54.2408C33.2947 54.2596 33.2408 54.276 33.1779 54.2901C33.1151 54.3042 33.0612 54.3112 33.0163 54.3112C32.8882 54.3112 32.7703 54.2895 32.6626 54.2461C32.5548 54.2027 32.4621 54.1417 32.3847 54.0632C32.3072 53.9846 32.2465 53.8897 32.2027 53.7782C32.1589 53.6668 32.1371 53.5431 32.1371 53.4071C32.1371 53.2734 32.1584 53.1497 32.201 53.0359C32.2437 52.9221 32.3038 52.8231 32.3813 52.7386C32.4587 52.6542 32.5514 52.5885 32.6592 52.5416C32.767 52.4947 32.886 52.4712 33.0163 52.4712C33.05 52.4712 33.092 52.4777 33.1426 52.4906C33.1931 52.5035 33.2341 52.5217 33.2655 52.5451C33.3014 52.4912 33.3486 52.4642 33.407 52.4642C33.4722 52.4642 33.5193 52.4841 33.5485 52.524C33.5777 52.5639 33.5923 52.6143 33.5923 52.6753V53.6287C33.5923 53.6756 33.5962 53.7266 33.6041 53.7818C33.612 53.8369 33.626 53.8855 33.6462 53.9277C33.6597 53.9606 33.6737 53.9917 33.6883 54.0209C33.7029 54.0503 33.7102 54.0837 33.7102 54.1212C33.7102 54.1752 33.69 54.2233 33.6496 54.2655C33.6092 54.3077 33.5631 54.3288 33.5115 54.3288ZM33.2116 53.7624V52.8969C33.1824 52.8829 33.1505 52.8711 33.1156 52.8618C33.0808 52.8524 33.0488 52.8477 33.0196 52.8477C32.9455 52.8477 32.8776 52.8612 32.8158 52.8881C32.7541 52.9151 32.7007 52.9526 32.6558 53.0007C32.6109 53.0488 32.5761 53.1057 32.5514 53.1714C32.5267 53.237 32.5143 53.3086 32.5143 53.386C32.5143 53.4633 32.5267 53.5355 32.5514 53.6023C32.5761 53.6692 32.6103 53.7272 32.6541 53.7765C32.6979 53.8257 32.7513 53.8644 32.8141 53.8926C32.877 53.9207 32.9455 53.9348 33.0196 53.9348C33.0533 53.9348 33.0875 53.9307 33.1224 53.9225C33.1572 53.9142 33.1915 53.9043 33.2251 53.8926C33.2206 53.8691 33.2173 53.8468 33.215 53.8257C33.2128 53.8046 33.2116 53.7835 33.2116 53.7624ZM37.0755 54.0755C37.0755 54.1482 37.053 54.2057 37.0081 54.2479C36.9631 54.2901 36.9126 54.3112 36.8565 54.3112C36.7779 54.3112 36.7161 54.2772 36.6712 54.2092L35.5495 52.429V54.079C35.5495 54.1423 35.5281 54.1969 35.4849 54.2426C35.4422 54.2883 35.3911 54.3112 35.3322 54.3112C35.271 54.3112 35.2188 54.2883 35.1761 54.2426C35.1329 54.1969 35.1116 54.1423 35.1116 54.079V51.736C35.1116 51.6633 35.1334 51.607 35.1772 51.5671C35.221 51.5272 35.2721 51.5073 35.3305 51.5073C35.362 51.5073 35.3934 51.5137 35.4248 51.5267C35.4563 51.5395 35.4821 51.5624 35.5023 51.5953L36.6342 53.393V51.7325C36.6342 51.6691 36.6561 51.6152 36.7004 51.5706C36.7442 51.5261 36.7958 51.5038 36.8548 51.5038C36.9138 51.5038 36.9649 51.5255 37.0075 51.5689C37.0507 51.6123 37.0721 51.6668 37.0721 51.7325L37.0755 54.0755ZM38.817 54.3288C38.7452 54.3288 38.6879 54.2995 38.6452 54.2408C38.6003 54.2596 38.5464 54.276 38.4835 54.2901C38.4207 54.3042 38.3668 54.3112 38.3218 54.3112C38.1938 54.3112 38.0759 54.2895 37.9681 54.2461C37.8603 54.2027 37.7677 54.1417 37.6902 54.0632C37.6127 53.9846 37.5521 53.8897 37.5083 53.7782C37.4645 53.6668 37.4426 53.5431 37.4426 53.4071C37.4426 53.2734 37.464 53.1497 37.5066 53.0359C37.5493 52.9221 37.6094 52.8231 37.6868 52.7386C37.7643 52.6542 37.857 52.5885 37.9648 52.5416C38.0726 52.4947 38.1916 52.4712 38.3218 52.4712C38.3555 52.4712 38.3976 52.4777 38.4481 52.4906C38.4987 52.5035 38.5397 52.5217 38.5711 52.5451C38.607 52.4912 38.6542 52.4642 38.7126 52.4642C38.7777 52.4642 38.8249 52.4841 38.8541 52.524C38.8833 52.5639 38.8979 52.6143 38.8979 52.6753V53.6287C38.8979 53.6756 38.9018 53.7266 38.9097 53.7818C38.9175 53.8369 38.9315 53.8855 38.9518 53.9277C38.9652 53.9606 38.9793 53.9917 38.9938 54.0209C39.0085 54.0503 39.0158 54.0837 39.0158 54.1212C39.0158 54.1752 38.9956 54.2233 38.9551 54.2655C38.9147 54.3077 38.8687 54.3288 38.817 54.3288ZM38.5172 53.7624V52.8969C38.488 52.8829 38.456 52.8711 38.4212 52.8618C38.3864 52.8524 38.3544 52.8477 38.3252 52.8477C38.2511 52.8477 38.1832 52.8612 38.1214 52.8881C38.0597 52.9151 38.0063 52.9526 37.9614 53.0007C37.9165 53.0488 37.8817 53.1057 37.857 53.1714C37.8322 53.237 37.8199 53.3086 37.8199 53.386C37.8199 53.4633 37.8322 53.5355 37.857 53.6023C37.8817 53.6692 37.9159 53.7272 37.9597 53.7765C38.0035 53.8257 38.0568 53.8644 38.1197 53.8926C38.1826 53.9207 38.2511 53.9348 38.3252 53.9348C38.3589 53.9348 38.3931 53.9307 38.428 53.9225C38.4627 53.9142 38.497 53.9043 38.5307 53.8926C38.5262 53.8691 38.5228 53.8468 38.5206 53.8257C38.5183 53.8046 38.5172 53.7835 38.5172 53.7624ZM40.2083 54.3112H40.1173C40.0252 54.3112 39.9455 54.293 39.8781 54.2567C39.8107 54.2203 39.7546 54.1728 39.7097 54.1142C39.6648 54.0556 39.6311 53.9887 39.6087 53.9137C39.5862 53.8386 39.575 53.7612 39.575 53.6815V52.8371H39.5009C39.4492 52.8371 39.4015 52.8237 39.3577 52.7967C39.3139 52.7697 39.292 52.7258 39.292 52.6647C39.292 52.6038 39.3128 52.5557 39.3543 52.5205C39.3958 52.4853 39.4447 52.4677 39.5009 52.4677H39.575V52.0878C39.575 52.0268 39.5935 51.974 39.6305 51.9295C39.6676 51.8849 39.7131 51.8626 39.767 51.8626C39.8231 51.8626 39.8692 51.8849 39.9051 51.9295C39.941 51.974 39.959 52.0268 39.959 52.0878V52.4677H40.1914C40.2476 52.4677 40.2964 52.4853 40.338 52.5205C40.3795 52.5557 40.4003 52.6038 40.4003 52.6647C40.4003 52.7258 40.3784 52.7697 40.3346 52.7967C40.2908 52.8237 40.2431 52.8371 40.1914 52.8371H39.959V53.6392C39.959 53.7448 39.9814 53.8175 40.0264 53.8574C40.0712 53.8973 40.1319 53.9184 40.2083 53.9207C40.2487 53.923 40.2908 53.9401 40.3346 53.9717C40.3784 54.0034 40.4003 54.0473 40.4003 54.1036C40.4003 54.1576 40.3829 54.2057 40.3481 54.2479C40.3132 54.2901 40.2666 54.3112 40.2083 54.3112ZM42.0206 54.3288C41.9802 54.3288 41.9442 54.3189 41.9128 54.2989C41.8814 54.279 41.8578 54.2538 41.842 54.2233C41.8016 54.2491 41.7477 54.2702 41.6803 54.2866C41.613 54.303 41.531 54.3112 41.4344 54.3112C41.3581 54.3112 41.2784 54.3018 41.1953 54.2831C41.1122 54.2643 41.0352 54.2262 40.9645 54.1687C40.8938 54.1112 40.8354 54.0304 40.7894 53.926C40.7433 53.8216 40.7203 53.6838 40.7203 53.5126V52.6753C40.7203 52.6143 40.74 52.5639 40.7787 52.524C40.818 52.4841 40.864 52.4642 40.9174 52.4642C40.9707 52.4642 41.0162 52.4841 41.0544 52.524C41.0919 52.5639 41.1111 52.6143 41.1111 52.6753V53.3895C41.1111 53.5607 41.1324 53.6915 41.1756 53.7818C41.2183 53.8721 41.3064 53.9184 41.4395 53.9207C41.4805 53.9207 41.5159 53.9184 41.5462 53.9137C41.5765 53.909 41.6045 53.9031 41.6293 53.8961C41.6495 53.8914 41.668 53.8855 41.6854 53.8785C41.7022 53.8714 41.7185 53.8656 41.7343 53.8609C41.723 53.8304 41.7163 53.797 41.7141 53.7606C41.7118 53.7243 41.7107 53.7003 41.7107 53.6885V52.6823C41.7107 52.6214 41.7292 52.5698 41.7663 52.5276C41.8033 52.4853 41.8499 52.4642 41.906 52.4642C41.9622 52.4642 42.0088 52.4853 42.0459 52.5276C42.0829 52.5698 42.1014 52.6214 42.1014 52.6823V53.6252C42.1014 53.7143 42.1093 53.7864 42.125 53.8416C42.1407 53.8967 42.1632 53.9512 42.1924 54.0052C42.2126 54.045 42.221 54.0837 42.2176 54.1212C42.2143 54.1588 42.2042 54.1934 42.1873 54.225C42.1705 54.2567 42.1469 54.2819 42.1166 54.3007C42.0863 54.3194 42.0543 54.3288 42.0206 54.3288ZM43.459 52.8618C43.4455 52.8571 43.4286 52.8524 43.4084 52.8477C43.3883 52.843 43.3658 52.8406 43.3411 52.8406C43.3006 52.8406 43.2585 52.8494 43.2147 52.867C43.1709 52.8846 43.13 52.9093 43.0918 52.9409C43.0536 52.9725 43.0193 53.0095 42.989 53.0518C42.9588 53.094 42.9391 53.1397 42.9301 53.189V54.0755C42.9301 54.1388 42.911 54.1939 42.8728 54.2408C42.8347 54.2878 42.7864 54.3112 42.728 54.3112C42.6696 54.3112 42.6208 54.2878 42.5815 54.2408C42.5421 54.1939 42.5225 54.1388 42.5225 54.0755V52.6964C42.5225 52.6519 42.5292 52.6155 42.5427 52.5874C42.5562 52.5592 42.5736 52.5363 42.5949 52.5188C42.6163 52.5012 42.6393 52.4888 42.664 52.4818C42.6887 52.4748 42.7123 52.4712 42.7347 52.4712C42.7751 52.4712 42.8127 52.4824 42.8476 52.5047C42.8824 52.527 42.9054 52.5627 42.9166 52.612C43.002 52.5393 43.0834 52.4953 43.1608 52.48C43.2383 52.4648 43.3051 52.4572 43.3613 52.4572C43.4062 52.4572 43.4494 52.4631 43.4909 52.4748C43.5325 52.4865 43.5679 52.4994 43.5971 52.5135C43.6645 52.5487 43.706 52.5915 43.7217 52.6419C43.7375 52.6923 43.7352 52.7374 43.715 52.7773C43.6948 52.8172 43.6617 52.8471 43.6156 52.867C43.5696 52.887 43.5174 52.8852 43.459 52.8618ZM45.2881 54.3288C45.2163 54.3288 45.159 54.2995 45.1163 54.2408C45.0714 54.2596 45.0175 54.276 44.9546 54.2901C44.8918 54.3042 44.8379 54.3112 44.7929 54.3112C44.6649 54.3112 44.547 54.2895 44.4392 54.2461C44.3314 54.2027 44.2388 54.1417 44.1613 54.0632C44.0838 53.9846 44.0232 53.8897 43.9794 53.7782C43.9356 53.6668 43.9137 53.5431 43.9137 53.4071C43.9137 53.2734 43.9351 53.1497 43.9777 53.0359C44.0204 52.9221 44.0805 52.8231 44.1579 52.7386C44.2354 52.6542 44.3281 52.5885 44.4359 52.5416C44.5437 52.4947 44.6627 52.4712 44.7929 52.4712C44.8266 52.4712 44.8687 52.4777 44.9193 52.4906C44.9698 52.5035 45.0108 52.5217 45.0422 52.5451C45.0781 52.4912 45.1253 52.4642 45.1837 52.4642C45.2488 52.4642 45.296 52.4841 45.3252 52.524C45.3544 52.5639 45.369 52.6143 45.369 52.6753V53.6287C45.369 53.6756 45.3729 53.7266 45.3808 53.7818C45.3886 53.8369 45.4026 53.8855 45.4229 53.9277C45.4363 53.9606 45.4504 53.9917 45.465 54.0209C45.4796 54.0503 45.4869 54.0837 45.4869 54.1212C45.4869 54.1752 45.4667 54.2233 45.4262 54.2655C45.3858 54.3077 45.3398 54.3288 45.2881 54.3288ZM44.9883 53.7624V52.8969C44.9591 52.8829 44.9271 52.8711 44.8923 52.8618C44.8575 52.8524 44.8255 52.8477 44.7963 52.8477C44.7222 52.8477 44.6543 52.8612 44.5925 52.8881C44.5308 52.9151 44.4774 52.9526 44.4325 53.0007C44.3876 53.0488 44.3528 53.1057 44.3281 53.1714C44.3034 53.237 44.291 53.3086 44.291 53.386C44.291 53.4633 44.3034 53.5355 44.3281 53.6023C44.3528 53.6692 44.387 53.7272 44.4308 53.7765C44.4746 53.8257 44.528 53.8644 44.5908 53.8926C44.6537 53.9207 44.7222 53.9348 44.7963 53.9348C44.83 53.9348 44.8642 53.9307 44.8991 53.9225C44.9338 53.9142 44.9681 53.9043 45.0018 53.8926C44.9973 53.8691 44.994 53.8468 44.9917 53.8257C44.9895 53.8046 44.9883 53.7835 44.9883 53.7624ZM46.4537 54.0087C46.4762 54.0485 46.4863 54.0872 46.484 54.1248C46.4818 54.1623 46.4722 54.1957 46.4554 54.225C46.4385 54.2543 46.416 54.2784 46.388 54.2971C46.3599 54.3159 46.3291 54.3253 46.2954 54.3253C46.2437 54.3253 46.2005 54.3136 46.1656 54.2901C46.1309 54.2667 46.0943 54.2279 46.0562 54.174C46.0292 54.1342 46.0028 54.0679 45.977 53.9752C45.9512 53.8826 45.9383 53.7706 45.9383 53.6392V51.7219C45.9383 51.6914 45.9444 51.6627 45.9568 51.6357C45.9692 51.6087 45.9854 51.5859 46.0056 51.5671C46.0259 51.5483 46.0478 51.5331 46.0714 51.5214C46.0949 51.5096 46.1191 51.5038 46.1438 51.5038C46.1684 51.5038 46.1932 51.5096 46.2179 51.5214C46.2426 51.5331 46.2651 51.5483 46.2852 51.5671C46.3055 51.5859 46.3218 51.6087 46.3341 51.6357C46.3464 51.6627 46.3526 51.6914 46.3526 51.7219V53.583C46.3526 53.6885 46.365 53.7782 46.3897 53.8521C46.4144 53.926 46.4357 53.9782 46.4537 54.0087Z" fill="white"/>
</svg>
